# MagicaVoxel @ Ephtracy

# group
o 

# material
mtllib pickaxe.mtl
usemtl palette

# normals
vn -1 0 0
vn 1 0 0
vn 0 0 1
vn 0 0 -1
vn 0 -1 0
vn 0 1 0

# texcoords
vt 0.00195313 0.5
vt 0.00585938 0.5

# verts
v -1 0.1 -0.3
v -1 0.1 -0.5
v -1 0.2 -0.3
v -1 0.2 -0.5
v -0.9 0 -0.3
v -0.9 0 -0.5
v -0.9 0.1 -0.3
v -0.9 0.1 -0.5
v -0.9 0.1 -0.6
v -0.9 0.2 -0.3
v -0.9 0.2 -0.5
v -0.9 0.2 -0.6
v -0.9 0.3 -0.3
v -0.9 0.3 -0.5
v -0.8 0.1 -0.6
v -0.8 0.1 -0.7
v -0.8 0.2 -0.5
v -0.8 0.2 -0.6
v -0.8 0.2 -0.7
v -0.8 0.3 -0.5
v -0.8 0.3 -0.6
v -0.7 0 -0.5
v -0.7 0 -0.6
v -0.7 0.1 -0.5
v -0.7 0.1 -0.6
v -0.2 0.1 -0.7
v -0.2 0.1 -0.8
v -0.2 0.2 -0.7
v -0.2 0.2 -0.8
v -0.1 0.1 0.7
v -0.1 0.1 -0.5
v -0.1 0.2 0.7
v -0.1 0.2 -0.5
v 0.8 0 -0.4
v 0.8 0 -0.5
v 0.8 0.3 -0.4
v 0.8 0.3 -0.5
v 0.9 0 -0.3
v 0.9 0 -0.4
v 0.9 0.3 -0.3
v 0.9 0.3 -0.4
v -0.8 0 -0.3
v -0.8 0 -0.4
v -0.8 0.3 -0.3
v -0.8 0.3 -0.4
v -0.7 0 -0.4
v -0.7 0 -0.5
v -0.7 0.3 -0.4
v -0.7 0.3 -0.5
v 0.2 0.1 0.7
v 0.2 0.1 -0.5
v 0.2 0.2 0.7
v 0.2 0.2 -0.5
v 0.3 0.1 -0.7
v 0.3 0.1 -0.8
v 0.3 0.2 -0.7
v 0.3 0.2 -0.8
v 0.9 0 -0.5
v 0.9 0 -0.6
v 0.9 0.1 -0.5
v 0.9 0.1 -0.6
v 0.9 0.1 -0.7
v 0.9 0.2 -0.5
v 0.9 0.2 -0.6
v 0.9 0.2 -0.7
v 0.9 0.3 -0.5
v 0.9 0.3 -0.6
v 1 0 -0.3
v 1 0 -0.5
v 1 0.1 -0.3
v 1 0.1 -0.5
v 1 0.1 -0.6
v 1 0.2 -0.3
v 1 0.2 -0.5
v 1 0.2 -0.6
v 1 0.3 -0.3
v 1 0.3 -0.5
v 1.1 0.1 -0.3
v 1.1 0.1 -0.5
v 1.1 0.2 -0.3
v 1.1 0.2 -0.5
v -0.1 0.1 0.7
v -0.1 0.2 0.7
v 0.2 0.1 0.7
v 0.2 0.2 0.7
v -1 0.1 -0.3
v -1 0.2 -0.3
v -0.9 0 -0.3
v -0.9 0.1 -0.3
v -0.9 0.2 -0.3
v -0.9 0.3 -0.3
v -0.8 0 -0.3
v -0.8 0.3 -0.3
v 0.9 0 -0.3
v 0.9 0.3 -0.3
v 1 0 -0.3
v 1 0.1 -0.3
v 1 0.2 -0.3
v 1 0.3 -0.3
v 1.1 0.1 -0.3
v 1.1 0.2 -0.3
v -0.8 0 -0.4
v -0.8 0.3 -0.4
v -0.7 0 -0.4
v -0.7 0.3 -0.4
v 0.8 0 -0.4
v 0.8 0.3 -0.4
v 0.9 0 -0.4
v 0.9 0.3 -0.4
v -0.7 0 -0.5
v -0.7 0.3 -0.5
v -0.1 0.1 -0.5
v -0.1 0.2 -0.5
v 0.2 0.1 -0.5
v 0.2 0.2 -0.5
v 0.8 0 -0.5
v 0.8 0.3 -0.5
v -1 0.1 -0.5
v -1 0.2 -0.5
v -0.9 0 -0.5
v -0.9 0.1 -0.5
v -0.9 0.2 -0.5
v -0.9 0.3 -0.5
v -0.8 0.2 -0.5
v -0.8 0.3 -0.5
v -0.7 0 -0.5
v -0.7 0.1 -0.5
v 0.9 0 -0.5
v 0.9 0.1 -0.5
v 0.9 0.2 -0.5
v 0.9 0.3 -0.5
v 1 0 -0.5
v 1 0.1 -0.5
v 1 0.2 -0.5
v 1 0.3 -0.5
v 1.1 0.1 -0.5
v 1.1 0.2 -0.5
v -0.9 0.1 -0.6
v -0.9 0.2 -0.6
v -0.8 0.1 -0.6
v -0.8 0.2 -0.6
v -0.8 0.3 -0.6
v -0.7 0 -0.6
v -0.7 0.1 -0.6
v 0.9 0 -0.6
v 0.9 0.1 -0.6
v 0.9 0.2 -0.6
v 0.9 0.3 -0.6
v 1 0.1 -0.6
v 1 0.2 -0.6
v -0.8 0.1 -0.7
v -0.8 0.2 -0.7
v -0.2 0.1 -0.7
v -0.2 0.2 -0.7
v 0.3 0.1 -0.7
v 0.3 0.2 -0.7
v 0.9 0.1 -0.7
v 0.9 0.2 -0.7
v -0.2 0.1 -0.8
v -0.2 0.2 -0.8
v 0.3 0.1 -0.8
v 0.3 0.2 -0.8
v -0.9 0 -0.3
v -0.8 0 -0.3
v 0.9 0 -0.3
v 1 0 -0.3
v -0.8 0 -0.4
v -0.7 0 -0.4
v 0.8 0 -0.4
v 0.9 0 -0.4
v -0.9 0 -0.5
v -0.7 0 -0.5
v 0.8 0 -0.5
v 0.9 0 -0.5
v 1 0 -0.5
v -0.7 0 -0.6
v 0.9 0 -0.6
v -0.1 0.1 0.7
v 0.2 0.1 0.7
v -1 0.1 -0.3
v -0.9 0.1 -0.3
v 1 0.1 -0.3
v 1.1 0.1 -0.3
v -1 0.1 -0.5
v -0.9 0.1 -0.5
v -0.7 0.1 -0.5
v -0.1 0.1 -0.5
v 0.2 0.1 -0.5
v 0.9 0.1 -0.5
v 1 0.1 -0.5
v 1.1 0.1 -0.5
v -0.9 0.1 -0.6
v -0.8 0.1 -0.6
v -0.7 0.1 -0.6
v 0.9 0.1 -0.6
v 1 0.1 -0.6
v -0.8 0.1 -0.7
v -0.2 0.1 -0.7
v 0.3 0.1 -0.7
v 0.9 0.1 -0.7
v -0.2 0.1 -0.8
v 0.3 0.1 -0.8
v -0.1 0.2 0.7
v 0.2 0.2 0.7
v -1 0.2 -0.3
v -0.9 0.2 -0.3
v 1 0.2 -0.3
v 1.1 0.2 -0.3
v -1 0.2 -0.5
v -0.9 0.2 -0.5
v -0.8 0.2 -0.5
v -0.1 0.2 -0.5
v 0.2 0.2 -0.5
v 0.9 0.2 -0.5
v 1 0.2 -0.5
v 1.1 0.2 -0.5
v -0.9 0.2 -0.6
v -0.8 0.2 -0.6
v 0.9 0.2 -0.6
v 1 0.2 -0.6
v -0.8 0.2 -0.7
v -0.2 0.2 -0.7
v 0.3 0.2 -0.7
v 0.9 0.2 -0.7
v -0.2 0.2 -0.8
v 0.3 0.2 -0.8
v -0.9 0.3 -0.3
v -0.8 0.3 -0.3
v 0.9 0.3 -0.3
v 1 0.3 -0.3
v -0.8 0.3 -0.4
v -0.7 0.3 -0.4
v 0.8 0.3 -0.4
v 0.9 0.3 -0.4
v -0.9 0.3 -0.5
v -0.8 0.3 -0.5
v -0.7 0.3 -0.5
v 0.8 0.3 -0.5
v 0.9 0.3 -0.5
v 1 0.3 -0.5
v -0.8 0.3 -0.6
v 0.9 0.3 -0.6

# faces
f 3/1/1 2/1/1 1/1/1
f 4/1/1 2/1/1 3/1/1
f 7/1/1 6/1/1 5/1/1
f 8/1/1 6/1/1 7/1/1
f 11/1/1 9/1/1 8/1/1
f 12/1/1 9/1/1 11/1/1
f 13/1/1 11/1/1 10/1/1
f 14/1/1 11/1/1 13/1/1
f 18/1/1 16/1/1 15/1/1
f 19/1/1 16/1/1 18/1/1
f 20/1/1 18/1/1 17/1/1
f 21/1/1 18/1/1 20/1/1
f 24/1/1 23/1/1 22/1/1
f 25/1/1 23/1/1 24/1/1
f 28/2/1 27/2/1 26/2/1
f 29/2/1 27/2/1 28/2/1
f 32/2/1 31/2/1 30/2/1
f 33/2/1 31/2/1 32/2/1
f 36/1/1 35/1/1 34/1/1
f 37/1/1 35/1/1 36/1/1
f 40/1/1 39/1/1 38/1/1
f 41/1/1 39/1/1 40/1/1
f 42/1/2 43/1/2 44/1/2
f 44/1/2 43/1/2 45/1/2
f 46/1/2 47/1/2 48/1/2
f 48/1/2 47/1/2 49/1/2
f 50/2/2 51/2/2 52/2/2
f 52/2/2 51/2/2 53/2/2
f 54/2/2 55/2/2 56/2/2
f 56/2/2 55/2/2 57/2/2
f 58/1/2 59/1/2 60/1/2
f 60/1/2 59/1/2 61/1/2
f 61/1/2 62/1/2 64/1/2
f 64/1/2 62/1/2 65/1/2
f 63/1/2 64/1/2 66/1/2
f 66/1/2 64/1/2 67/1/2
f 68/1/2 69/1/2 70/1/2
f 70/1/2 69/1/2 71/1/2
f 71/1/2 72/1/2 74/1/2
f 74/1/2 72/1/2 75/1/2
f 73/1/2 74/1/2 76/1/2
f 76/1/2 74/1/2 77/1/2
f 78/1/2 79/1/2 80/1/2
f 80/1/2 79/1/2 81/1/2
f 84/2/3 83/2/3 82/2/3
f 85/2/3 83/2/3 84/2/3
f 89/1/3 87/1/3 86/1/3
f 90/1/3 87/1/3 89/1/3
f 92/1/3 89/1/3 88/1/3
f 92/1/3 91/1/3 90/1/3
f 92/1/3 90/1/3 89/1/3
f 93/1/3 91/1/3 92/1/3
f 96/1/3 95/1/3 94/1/3
f 97/1/3 95/1/3 96/1/3
f 98/1/3 95/1/3 97/1/3
f 99/1/3 95/1/3 98/1/3
f 100/1/3 98/1/3 97/1/3
f 101/1/3 98/1/3 100/1/3
f 104/1/3 103/1/3 102/1/3
f 105/1/3 103/1/3 104/1/3
f 108/1/3 107/1/3 106/1/3
f 109/1/3 107/1/3 108/1/3
f 112/1/3 111/1/3 110/1/3
f 113/1/3 111/1/3 112/1/3
f 114/1/3 112/1/3 110/1/3
f 115/1/3 111/1/3 113/1/3
f 116/1/3 114/1/3 110/1/3
f 116/1/3 115/1/3 114/1/3
f 117/1/3 111/1/3 115/1/3
f 117/1/3 115/1/3 116/1/3
f 118/1/4 119/1/4 121/1/4
f 121/1/4 119/1/4 122/1/4
f 122/1/4 123/1/4 124/1/4
f 124/1/4 123/1/4 125/1/4
f 120/1/4 121/1/4 126/1/4
f 126/1/4 121/1/4 127/1/4
f 128/1/4 129/1/4 132/1/4
f 132/1/4 129/1/4 133/1/4
f 130/1/4 131/1/4 134/1/4
f 134/1/4 131/1/4 135/1/4
f 133/1/4 134/1/4 136/1/4
f 136/1/4 134/1/4 137/1/4
f 138/1/4 139/1/4 140/1/4
f 140/1/4 139/1/4 141/1/4
f 143/1/4 144/1/4 145/1/4
f 145/1/4 144/1/4 146/1/4
f 141/1/4 142/1/4 147/1/4
f 147/1/4 142/1/4 148/1/4
f 146/1/4 147/1/4 149/1/4
f 149/1/4 147/1/4 150/1/4
f 151/1/4 152/1/4 153/1/4
f 153/1/4 152/1/4 154/1/4
f 155/1/4 156/1/4 157/1/4
f 157/1/4 156/1/4 158/1/4
f 159/2/4 160/2/4 161/2/4
f 161/2/4 160/2/4 162/2/4
f 167/1/5 164/1/5 163/1/5
f 170/1/5 166/1/5 165/1/5
f 171/1/5 168/1/5 167/1/5
f 171/1/5 167/1/5 163/1/5
f 172/1/5 168/1/5 171/1/5
f 173/1/5 170/1/5 169/1/5
f 174/1/5 166/1/5 170/1/5
f 174/1/5 170/1/5 173/1/5
f 175/1/5 166/1/5 174/1/5
f 176/1/5 173/1/5 172/1/5
f 176/1/5 174/1/5 173/1/5
f 177/1/5 174/1/5 176/1/5
f 184/1/5 181/1/5 180/1/5
f 185/1/5 181/1/5 184/1/5
f 187/2/5 179/2/5 178/2/5
f 188/2/5 179/2/5 187/2/5
f 190/1/5 183/1/5 182/1/5
f 191/1/5 183/1/5 190/1/5
f 192/1/5 186/1/5 185/1/5
f 193/1/5 186/1/5 192/1/5
f 194/1/5 186/1/5 193/1/5
f 195/1/5 190/1/5 189/1/5
f 196/1/5 190/1/5 195/1/5
f 197/1/5 194/1/5 193/1/5
f 197/1/5 195/1/5 194/1/5
f 198/1/5 195/1/5 197/1/5
f 199/1/5 195/1/5 198/1/5
f 200/1/5 195/1/5 199/1/5
f 201/2/5 199/2/5 198/2/5
f 202/2/5 199/2/5 201/2/5
f 205/1/6 206/1/6 209/1/6
f 209/1/6 206/1/6 210/1/6
f 203/2/6 204/2/6 212/2/6
f 212/2/6 204/2/6 213/2/6
f 207/1/6 208/1/6 215/1/6
f 215/1/6 208/1/6 216/1/6
f 210/1/6 211/1/6 217/1/6
f 217/1/6 211/1/6 218/1/6
f 214/1/6 215/1/6 219/1/6
f 219/1/6 215/1/6 220/1/6
f 218/1/6 219/1/6 221/1/6
f 221/1/6 219/1/6 222/1/6
f 222/1/6 219/1/6 223/1/6
f 223/1/6 219/1/6 224/1/6
f 222/2/6 223/2/6 225/2/6
f 225/2/6 223/2/6 226/2/6
f 227/1/6 228/1/6 231/1/6
f 229/1/6 230/1/6 234/1/6
f 231/1/6 232/1/6 235/1/6
f 227/1/6 231/1/6 235/1/6
f 235/1/6 232/1/6 236/1/6
f 236/1/6 232/1/6 237/1/6
f 233/1/6 234/1/6 238/1/6
f 234/1/6 230/1/6 239/1/6
f 238/1/6 234/1/6 239/1/6
f 239/1/6 230/1/6 240/1/6
f 236/1/6 237/1/6 241/1/6
f 237/1/6 238/1/6 241/1/6
f 238/1/6 239/1/6 241/1/6
f 241/1/6 239/1/6 242/1/6
