# MagicaVoxel @ Ephtracy

# group
o 

# material
mtllib hemp.mtl
usemtl palette

# normals
vn -1 0 0
vn 1 0 0
vn 0 0 1
vn 0 0 -1
vn 0 -1 0
vn 0 1 0

# texcoords
vt 0.00195313 0.5
vt 0.00585938 0.5
vt 0.0332031 0.5

# verts
v -0.4 0 0.2
v -0.4 0 -0.3
v -0.4 0.5 0.2
v -0.4 0.5 -0.3
v -0.3 0 0.3
v -0.3 0 0.2
v -0.3 0 -0.3
v -0.3 0 -0.4
v -0.3 0.5 0.3
v -0.3 0.5 0.2
v -0.3 0.5 -0.3
v -0.3 0.5 -0.4
v -0.2 0 0.4
v -0.2 0 0.3
v -0.2 0 -0.4
v -0.2 0 -0.5
v -0.2 0.5 0.4
v -0.2 0.5 0.3
v -0.2 0.5 -0.4
v -0.2 0.5 -0.5
v 0.3 0 0.4
v 0.3 0 0.3
v 0.3 0 -0.4
v 0.3 0 -0.5
v 0.3 0.5 0.4
v 0.3 0.5 0.3
v 0.3 0.5 -0.4
v 0.3 0.5 -0.5
v 0.4 0 0.3
v 0.4 0 0.2
v 0.4 0 -0.3
v 0.4 0 -0.4
v 0.4 0.5 0.3
v 0.4 0.5 0.2
v 0.4 0.5 -0.3
v 0.4 0.5 -0.4
v 0.5 0 0.2
v 0.5 0 -0.3
v 0.5 0.5 0.2
v 0.5 0.5 -0.3
v -0.2 0 0.4
v -0.2 0.5 0.4
v 0.3 0 0.4
v 0.3 0.5 0.4
v -0.3 0 0.3
v -0.3 0.5 0.3
v -0.2 0 0.3
v -0.2 0.5 0.3
v 0.3 0 0.3
v 0.3 0.5 0.3
v 0.4 0 0.3
v 0.4 0.5 0.3
v -0.4 0 0.2
v -0.4 0.5 0.2
v -0.3 0 0.2
v -0.3 0.5 0.2
v 0.4 0 0.2
v 0.4 0.5 0.2
v 0.5 0 0.2
v 0.5 0.5 0.2
v -0.4 0 -0.3
v -0.4 0.5 -0.3
v -0.3 0 -0.3
v -0.3 0.5 -0.3
v 0.4 0 -0.3
v 0.4 0.5 -0.3
v 0.5 0 -0.3
v 0.5 0.5 -0.3
v -0.3 0 -0.4
v -0.3 0.5 -0.4
v -0.2 0 -0.4
v -0.2 0.5 -0.4
v 0.3 0 -0.4
v 0.3 0.5 -0.4
v 0.4 0 -0.4
v 0.4 0.5 -0.4
v -0.2 0 -0.5
v -0.2 0.5 -0.5
v 0.3 0 -0.5
v 0.3 0.5 -0.5
v -0.2 0 0.4
v 0.3 0 0.4
v -0.3 0 0.3
v -0.2 0 0.3
v 0.3 0 0.3
v 0.4 0 0.3
v -0.4 0 0.2
v -0.3 0 0.2
v 0.4 0 0.2
v 0.5 0 0.2
v -0.4 0 -0.3
v -0.3 0 -0.3
v 0.4 0 -0.3
v 0.5 0 -0.3
v -0.3 0 -0.4
v -0.2 0 -0.4
v 0.3 0 -0.4
v 0.4 0 -0.4
v -0.2 0 -0.5
v 0.3 0 -0.5
v -0.2 0.5 0.4
v 0.3 0.5 0.4
v -0.3 0.5 0.3
v -0.2 0.5 0.3
v -0.1 0.5 0.3
v 0.2 0.5 0.3
v 0.3 0.5 0.3
v 0.4 0.5 0.3
v -0.4 0.5 0.2
v -0.3 0.5 0.2
v -0.2 0.5 0.2
v -0.1 0.5 0.2
v 0.2 0.5 0.2
v 0.3 0.5 0.2
v 0.4 0.5 0.2
v 0.5 0.5 0.2
v -0.3 0.5 0.1
v -0.2 0.5 0.1
v -0.1 0.5 0.1
v 0.2 0.5 0.1
v 0.3 0.5 0.1
v 0.4 0.5 0.1
v -0.3 0.5 -0.2
v -0.2 0.5 -0.2
v -0.1 0.5 -0.2
v 0.2 0.5 -0.2
v 0.3 0.5 -0.2
v 0.4 0.5 -0.2
v -0.4 0.5 -0.3
v -0.3 0.5 -0.3
v -0.2 0.5 -0.3
v -0.1 0.5 -0.3
v 0.2 0.5 -0.3
v 0.3 0.5 -0.3
v 0.4 0.5 -0.3
v 0.5 0.5 -0.3
v -0.3 0.5 -0.4
v -0.2 0.5 -0.4
v -0.1 0.5 -0.4
v 0.2 0.5 -0.4
v 0.3 0.5 -0.4
v 0.4 0.5 -0.4
v -0.2 0.5 -0.5
v 0.3 0.5 -0.5

# faces
f 3/1/1 2/1/1 1/1/1
f 4/1/1 2/1/1 3/1/1
f 9/1/1 6/1/1 5/1/1
f 10/1/1 6/1/1 9/1/1
f 11/1/1 8/1/1 7/1/1
f 12/1/1 8/1/1 11/1/1
f 17/1/1 14/1/1 13/1/1
f 18/1/1 14/1/1 17/1/1
f 19/1/1 16/1/1 15/1/1
f 20/1/1 16/1/1 19/1/1
f 21/1/2 22/1/2 25/1/2
f 25/1/2 22/1/2 26/1/2
f 23/1/2 24/1/2 27/1/2
f 27/1/2 24/1/2 28/1/2
f 29/1/2 30/1/2 33/1/2
f 33/1/2 30/1/2 34/1/2
f 31/1/2 32/1/2 35/1/2
f 35/1/2 32/1/2 36/1/2
f 37/1/2 38/1/2 39/1/2
f 39/1/2 38/1/2 40/1/2
f 43/1/3 42/1/3 41/1/3
f 44/1/3 42/1/3 43/1/3
f 47/1/3 46/1/3 45/1/3
f 48/1/3 46/1/3 47/1/3
f 51/1/3 50/1/3 49/1/3
f 52/1/3 50/1/3 51/1/3
f 55/1/3 54/1/3 53/1/3
f 56/1/3 54/1/3 55/1/3
f 59/1/3 58/1/3 57/1/3
f 60/1/3 58/1/3 59/1/3
f 61/1/4 62/1/4 63/1/4
f 63/1/4 62/1/4 64/1/4
f 65/1/4 66/1/4 67/1/4
f 67/1/4 66/1/4 68/1/4
f 69/1/4 70/1/4 71/1/4
f 71/1/4 70/1/4 72/1/4
f 73/1/4 74/1/4 75/1/4
f 75/1/4 74/1/4 76/1/4
f 77/1/4 78/1/4 79/1/4
f 79/1/4 78/1/4 80/1/4
f 84/1/5 82/1/5 81/1/5
f 85/1/5 82/1/5 84/1/5
f 88/1/5 84/1/5 83/1/5
f 88/1/5 86/1/5 85/1/5
f 88/1/5 85/1/5 84/1/5
f 89/1/5 86/1/5 88/1/5
f 91/1/5 88/1/5 87/1/5
f 91/1/5 90/1/5 89/1/5
f 91/1/5 89/1/5 88/1/5
f 92/1/5 90/1/5 91/1/5
f 93/1/5 90/1/5 92/1/5
f 94/1/5 90/1/5 93/1/5
f 95/1/5 93/1/5 92/1/5
f 96/1/5 93/1/5 95/1/5
f 97/1/5 93/1/5 96/1/5
f 98/1/5 93/1/5 97/1/5
f 99/1/5 97/1/5 96/1/5
f 100/1/5 97/1/5 99/1/5
f 101/1/6 102/1/6 104/1/6
f 104/1/6 102/1/6 105/1/6
f 105/1/6 102/1/6 106/1/6
f 106/1/6 102/1/6 107/1/6
f 103/1/6 104/1/6 110/1/6
f 104/1/6 105/1/6 110/1/6
f 110/1/6 105/1/6 111/1/6
f 105/2/6 106/2/6 112/2/6
f 111/1/6 105/1/6 112/1/6
f 107/1/6 108/1/6 113/1/6
f 112/2/6 106/2/6 113/2/6
f 106/1/6 107/1/6 113/1/6
f 113/1/6 108/1/6 114/1/6
f 114/1/6 108/1/6 115/1/6
f 109/1/6 110/1/6 117/1/6
f 110/1/6 111/1/6 117/1/6
f 111/2/6 112/2/6 118/2/6
f 117/1/6 111/1/6 118/1/6
f 112/2/6 113/2/6 118/2/6
f 113/2/6 114/2/6 118/2/6
f 118/2/6 114/2/6 119/2/6
f 119/2/6 114/2/6 120/2/6
f 115/1/6 116/1/6 121/1/6
f 120/2/6 114/2/6 121/2/6
f 114/1/6 115/1/6 121/1/6
f 121/1/6 116/1/6 122/1/6
f 109/1/6 117/1/6 123/1/6
f 118/2/6 119/2/6 123/2/6
f 117/2/6 118/2/6 123/2/6
f 123/2/6 119/2/6 124/2/6
f 119/3/6 120/3/6 125/3/6
f 124/2/6 119/2/6 125/2/6
f 121/2/6 122/2/6 126/2/6
f 125/3/6 120/3/6 126/3/6
f 120/2/6 121/2/6 126/2/6
f 126/2/6 122/2/6 127/2/6
f 122/1/6 116/1/6 128/1/6
f 127/2/6 122/2/6 128/2/6
f 123/1/6 124/1/6 129/1/6
f 109/1/6 123/1/6 129/1/6
f 129/1/6 124/1/6 130/1/6
f 126/2/6 127/2/6 131/2/6
f 130/1/6 124/1/6 131/1/6
f 124/2/6 125/2/6 131/2/6
f 125/2/6 126/2/6 131/2/6
f 131/2/6 127/2/6 132/2/6
f 132/2/6 127/2/6 133/2/6
f 127/1/6 128/1/6 134/1/6
f 133/2/6 127/2/6 134/2/6
f 128/1/6 116/1/6 135/1/6
f 134/1/6 128/1/6 135/1/6
f 135/1/6 116/1/6 136/1/6
f 130/1/6 131/1/6 137/1/6
f 131/1/6 132/1/6 137/1/6
f 137/1/6 132/1/6 138/1/6
f 132/2/6 133/2/6 139/2/6
f 138/1/6 132/1/6 139/1/6
f 133/1/6 134/1/6 140/1/6
f 139/2/6 133/2/6 140/2/6
f 134/1/6 135/1/6 140/1/6
f 140/1/6 135/1/6 141/1/6
f 141/1/6 135/1/6 142/1/6
f 138/1/6 139/1/6 143/1/6
f 140/1/6 141/1/6 143/1/6
f 139/1/6 140/1/6 143/1/6
f 143/1/6 141/1/6 144/1/6
