# MagicaVoxel @ Ephtracy

# group
o 

# material
mtllib fence.mtl
usemtl palette

# normals
vn -1 0 0
vn 1 0 0
vn 0 0 1
vn 0 0 -1
vn 0 -1 0
vn 0 1 0

# texcoords
vt 0.00195313 0.5
vt 0.00585938 0.5

# verts
v -0.1 0 0.8
v -0.1 0 0.5
v -0.1 0 -0.5
v -0.1 0 -0.8
v -0.1 0.5 0.7
v -0.1 0.5 0.6
v -0.1 0.5 -0.6
v -0.1 0.5 -0.7
v -0.1 0.7 0.7
v -0.1 0.7 0.6
v -0.1 0.7 -0.6
v -0.1 0.7 -0.7
v -0.1 0.8 0.8
v -0.1 0.8 0.5
v -0.1 0.8 -0.5
v -0.1 0.8 -0.8
v 0.1 0.4 1
v 0.1 0.4 0.8
v 0.1 0.4 0.5
v 0.1 0.4 -0.5
v 0.1 0.4 -0.8
v 0.1 0.4 -1
v 0.1 0.6 1
v 0.1 0.6 0.8
v 0.1 0.6 0.5
v 0.1 0.6 -0.5
v 0.1 0.6 -0.8
v 0.1 0.6 -1
v 0.1 0 0.8
v 0.1 0 0.5
v 0.1 0 -0.5
v 0.1 0 -0.8
v 0.1 0.4 0.8
v 0.1 0.4 0.5
v 0.1 0.4 -0.5
v 0.1 0.4 -0.8
v 0.1 0.6 0.8
v 0.1 0.6 0.5
v 0.1 0.6 -0.5
v 0.1 0.6 -0.8
v 0.1 0.8 0.8
v 0.1 0.8 0.5
v 0.1 0.8 -0.5
v 0.1 0.8 -0.8
v 0.2 0.4 1
v 0.2 0.4 -1
v 0.2 0.6 1
v 0.2 0.6 -1
v 0.1 0.4 1
v 0.1 0.6 1
v 0.2 0.4 1
v 0.2 0.6 1
v -0.1 0 0.8
v -0.1 0.8 0.8
v 0.1 0 0.8
v 0.1 0.4 0.8
v 0.1 0.6 0.8
v 0.1 0.8 0.8
v -0.1 0 -0.5
v -0.1 0.8 -0.5
v 0.1 0 -0.5
v 0.1 0.4 -0.5
v 0.1 0.6 -0.5
v 0.1 0.8 -0.5
v -0.1 0 0.5
v -0.1 0.8 0.5
v 0.1 0 0.5
v 0.1 0.4 0.5
v 0.1 0.6 0.5
v 0.1 0.8 0.5
v -0.1 0 -0.8
v -0.1 0.8 -0.8
v 0.1 0 -0.8
v 0.1 0.4 -0.8
v 0.1 0.6 -0.8
v 0.1 0.8 -0.8
v 0.1 0.4 -1
v 0.1 0.6 -1
v 0.2 0.4 -1
v 0.2 0.6 -1
v -0.1 0 0.8
v 0.1 0 0.8
v -0.1 0 0.5
v 0.1 0 0.5
v -0.1 0 -0.5
v 0.1 0 -0.5
v -0.1 0 -0.8
v 0.1 0 -0.8
v 0.1 0.4 1
v 0.2 0.4 1
v 0.1 0.4 0.8
v 0.1 0.4 0.5
v 0.1 0.4 -0.5
v 0.1 0.4 -0.8
v 0.1 0.4 -1
v 0.2 0.4 -1
v 0.1 0.6 1
v 0.2 0.6 1
v 0.1 0.6 0.8
v 0.1 0.6 0.5
v 0.1 0.6 -0.5
v 0.1 0.6 -0.8
v 0.1 0.6 -1
v 0.2 0.6 -1
v -0.1 0.8 0.8
v 0.1 0.8 0.8
v -0.1 0.8 0.5
v 0.1 0.8 0.5
v -0.1 0.8 -0.5
v 0.1 0.8 -0.5
v -0.1 0.8 -0.8
v 0.1 0.8 -0.8

# faces
f 5/1/1 2/1/1 1/1/1
f 6/1/1 2/1/1 5/1/1
f 7/1/1 4/1/1 3/1/1
f 8/1/1 4/1/1 7/1/1
f 9/1/1 5/1/1 1/1/1
f 9/2/1 6/2/1 5/2/1
f 10/1/1 2/1/1 6/1/1
f 10/2/1 6/2/1 9/2/1
f 11/2/1 8/2/1 7/2/1
f 11/1/1 7/1/1 3/1/1
f 12/1/1 4/1/1 8/1/1
f 12/2/1 8/2/1 11/2/1
f 13/1/1 9/1/1 1/1/1
f 13/1/1 10/1/1 9/1/1
f 14/1/1 2/1/1 10/1/1
f 14/1/1 10/1/1 13/1/1
f 15/1/1 11/1/1 3/1/1
f 15/1/1 12/1/1 11/1/1
f 16/1/1 4/1/1 12/1/1
f 16/1/1 12/1/1 15/1/1
f 23/2/1 18/2/1 17/2/1
f 24/2/1 18/2/1 23/2/1
f 25/2/1 20/2/1 19/2/1
f 26/2/1 20/2/1 25/2/1
f 27/2/1 22/2/1 21/2/1
f 28/2/1 22/2/1 27/2/1
f 29/1/2 30/1/2 33/1/2
f 33/1/2 30/1/2 34/1/2
f 31/1/2 32/1/2 35/1/2
f 35/1/2 32/1/2 36/1/2
f 37/1/2 38/1/2 41/1/2
f 41/1/2 38/1/2 42/1/2
f 39/1/2 40/1/2 43/1/2
f 43/1/2 40/1/2 44/1/2
f 45/2/2 46/2/2 47/2/2
f 47/2/2 46/2/2 48/2/2
f 51/2/3 50/2/3 49/2/3
f 52/2/3 50/2/3 51/2/3
f 55/1/3 54/1/3 53/1/3
f 56/1/3 54/1/3 55/1/3
f 57/1/3 54/1/3 56/1/3
f 58/1/3 54/1/3 57/1/3
f 61/1/3 60/1/3 59/1/3
f 62/1/3 60/1/3 61/1/3
f 63/1/3 60/1/3 62/1/3
f 64/1/3 60/1/3 63/1/3
f 65/1/4 66/1/4 67/1/4
f 67/1/4 66/1/4 68/1/4
f 68/1/4 66/1/4 69/1/4
f 69/1/4 66/1/4 70/1/4
f 71/1/4 72/1/4 73/1/4
f 73/1/4 72/1/4 74/1/4
f 74/1/4 72/1/4 75/1/4
f 75/1/4 72/1/4 76/1/4
f 77/2/4 78/2/4 79/2/4
f 79/2/4 78/2/4 80/2/4
f 83/1/5 82/1/5 81/1/5
f 84/1/5 82/1/5 83/1/5
f 87/1/5 86/1/5 85/1/5
f 88/1/5 86/1/5 87/1/5
f 91/2/5 90/2/5 89/2/5
f 92/2/5 90/2/5 91/2/5
f 93/2/5 90/2/5 92/2/5
f 94/2/5 90/2/5 93/2/5
f 95/2/5 90/2/5 94/2/5
f 96/2/5 90/2/5 95/2/5
f 97/2/6 98/2/6 99/2/6
f 99/2/6 98/2/6 100/2/6
f 100/2/6 98/2/6 101/2/6
f 101/2/6 98/2/6 102/2/6
f 102/2/6 98/2/6 103/2/6
f 103/2/6 98/2/6 104/2/6
f 105/1/6 106/1/6 107/1/6
f 107/1/6 106/1/6 108/1/6
f 109/1/6 110/1/6 111/1/6
f 111/1/6 110/1/6 112/1/6
