# MagicaVoxel @ Ephtracy

# group
o 

# material
mtllib charcoal_maker_1_no_ground.mtl
usemtl palette

# normals
vn -1 0 0
vn 1 0 0
vn 0 0 1
vn 0 0 -1
vn 0 -1 0
vn 0 1 0

# texcoords
vt 0.00195312 0.5
vt 0.00585938 0.5
vt 0.0214844 0.5

# verts
v -0.9 0 0.9
v -0.9 0 0.2
v -0.9 0 0.1
v -0.9 0 -0.9
v -0.9 0.2 0.9
v -0.9 0.2 0.8
v -0.9 0.2 0.6
v -0.9 0.2 0.5
v -0.9 0.2 0.3
v -0.9 0.2 0.2
v -0.9 0.4 0.8
v -0.9 0.4 0.6
v -0.9 0.4 0.5
v -0.9 0.4 0.3
v -0.9 0.5 0.1
v -0.9 0.5 -0.9
v -0.7 0 0
v -0.7 0 -0.7
v -0.7 0.2 0
v -0.7 0.2 -0.1
v -0.7 0.2 -0.3
v -0.7 0.2 -0.4
v -0.7 0.2 -0.5
v -0.7 0.2 -0.6
v -0.7 0.2 -0.7
v -0.7 0.4 -0.1
v -0.7 0.4 -0.3
v -0.7 0.4 -0.4
v -0.7 0.4 -0.5
v -0.7 0.4 -0.6
v -0.6 0 0.9
v -0.6 0 0.2
v -0.6 0.2 0.9
v -0.6 0.2 0.8
v -0.6 0.2 0.6
v -0.6 0.2 0.5
v -0.6 0.2 0.3
v -0.6 0.2 0.2
v -0.4 0 0
v -0.4 0 -0.7
v -0.4 0.2 0
v -0.4 0.2 -0.1
v -0.4 0.2 -0.3
v -0.4 0.2 -0.4
v -0.4 0.2 -0.5
v -0.4 0.2 -0.6
v -0.4 0.2 -0.7
v -0.1 0 0
v -0.1 0 -0.7
v -0.1 0.2 0
v -0.1 0.2 -0.1
v -0.1 0.2 -0.3
v -0.1 0.2 -0.4
v -0.1 0.2 -0.5
v -0.1 0.2 -0.6
v -0.1 0.2 -0.7
v 0.2 0 0.1
v 0.2 0 -0.8
v 0.2 0.5 0.1
v 0.2 0.5 -0.8
v 0.4 0 0.3
v 0.4 0 0.2
v 0.4 0 0.1
v 0.4 0 0
v 0.4 0 -0.1
v 0.4 0 -0.3
v 0.4 0 -0.4
v 0.4 0 -0.6
v 0.4 0 -0.7
v 0.4 0 -0.9
v 0.4 0.1 -0.1
v 0.4 0.1 -0.3
v 0.4 0.1 -0.4
v 0.4 0.1 -0.6
v 0.4 0.1 -0.7
v 0.4 0.1 -0.9
v 0.4 0.2 0.3
v 0.4 0.2 0.2
v 0.4 0.2 0.1
v 0.4 0.2 0
v 0.7 0 0.3
v 0.7 0 0.2
v 0.7 0 0.1
v 0.7 0 0
v 0.7 0 -0.1
v 0.7 0 -0.3
v 0.7 0 -0.4
v 0.7 0 -0.6
v 0.7 0 -0.7
v 0.7 0 -0.9
v 0.7 0.1 -0.1
v 0.7 0.1 -0.3
v 0.7 0.1 -0.4
v 0.7 0.1 -0.6
v 0.7 0.1 -0.7
v 0.7 0.1 -0.9
v 0.7 0.2 0.3
v 0.7 0.2 0.2
v 0.7 0.2 0.1
v 0.7 0.2 0
v -0.8 0 0
v -0.8 0 -0.8
v -0.8 0.4 0
v -0.8 0.4 -0.8
v -0.7 0 0.9
v -0.7 0 0.2
v -0.7 0.2 0.9
v -0.7 0.2 0.8
v -0.7 0.2 0.6
v -0.7 0.2 0.5
v -0.7 0.2 0.3
v -0.7 0.2 0.2
v -0.6 0.4 0.1
v -0.6 0.4 0
v -0.6 0.4 -0.1
v -0.6 0.4 -0.3
v -0.6 0.4 -0.4
v -0.6 0.4 -0.6
v -0.6 0.5 0.1
v -0.6 0.5 -0.6
v -0.5 0 0
v -0.5 0 -0.7
v -0.5 0.2 0
v -0.5 0.2 -0.1
v -0.5 0.2 -0.3
v -0.5 0.2 -0.4
v -0.5 0.2 -0.5
v -0.5 0.2 -0.6
v -0.5 0.2 -0.7
v -0.5 0.3 0.1
v -0.5 0.3 0
v -0.5 0.4 0.1
v -0.5 0.4 0
v -0.4 0 0.9
v -0.4 0 0.2
v -0.4 0 0.1
v -0.4 0 0
v -0.4 0.2 0.9
v -0.4 0.2 0.8
v -0.4 0.2 0.6
v -0.4 0.2 0.5
v -0.4 0.2 0.3
v -0.4 0.2 0.2
v -0.4 0.2 0
v -0.4 0.3 0.1
v -0.4 0.3 0
v -0.4 0.4 0.8
v -0.4 0.4 0.6
v -0.4 0.4 0.5
v -0.4 0.4 0.3
v -0.2 0 0
v -0.2 0 -0.7
v -0.2 0.2 0
v -0.2 0.2 -0.1
v -0.2 0.2 -0.3
v -0.2 0.2 -0.4
v -0.2 0.2 -0.5
v -0.2 0.2 -0.6
v -0.2 0.2 -0.7
v -0.2 0.4 -0.6
v -0.2 0.4 -0.7
v -0.2 0.5 -0.6
v -0.2 0.5 -0.7
v -0.1 0.4 -0.7
v -0.1 0.4 -0.8
v -0.1 0.5 -0.7
v -0.1 0.5 -0.8
v 0.1 0 0
v 0.1 0 -0.7
v 0.1 0.2 0
v 0.1 0.2 -0.1
v 0.1 0.2 -0.3
v 0.1 0.2 -0.4
v 0.1 0.2 -0.6
v 0.1 0.2 -0.7
v 0.1 0.4 -0.1
v 0.1 0.4 -0.3
v 0.1 0.4 -0.4
v 0.1 0.4 -0.6
v 0.3 0 0.1
v 0.3 0 -0.9
v 0.3 0.5 0.1
v 0.3 0.5 -0.9
v 0.6 0 0.3
v 0.6 0 0.2
v 0.6 0 0.1
v 0.6 0 0
v 0.6 0 -0.1
v 0.6 0 -0.3
v 0.6 0 -0.4
v 0.6 0 -0.6
v 0.6 0 -0.7
v 0.6 0 -0.9
v 0.6 0.1 -0.1
v 0.6 0.1 -0.3
v 0.6 0.1 -0.4
v 0.6 0.1 -0.6
v 0.6 0.1 -0.7
v 0.6 0.1 -0.9
v 0.6 0.2 0.3
v 0.6 0.2 0.2
v 0.6 0.2 0.1
v 0.6 0.2 0
v 0.9 0 0.3
v 0.9 0 0.2
v 0.9 0 0.1
v 0.9 0 0
v 0.9 0 -0.1
v 0.9 0 -0.3
v 0.9 0 -0.4
v 0.9 0 -0.5
v 0.9 0 -0.6
v 0.9 0 -0.7
v 0.9 0 -0.9
v 0.9 0.1 -0.1
v 0.9 0.1 -0.3
v 0.9 0.1 -0.4
v 0.9 0.1 -0.5
v 0.9 0.1 -0.6
v 0.9 0.1 -0.7
v 0.9 0.1 -0.9
v 0.9 0.2 0.3
v 0.9 0.2 0.2
v 0.9 0.2 0.1
v 0.9 0.2 0
v -0.9 0 0.9
v -0.9 0.2 0.9
v -0.7 0 0.9
v -0.7 0.2 0.9
v -0.6 0 0.9
v -0.6 0.2 0.9
v -0.4 0 0.9
v -0.4 0.2 0.9
v -0.9 0.2 0.8
v -0.9 0.4 0.8
v -0.7 0.2 0.8
v -0.6 0.2 0.8
v -0.4 0.2 0.8
v -0.4 0.4 0.8
v -0.9 0.2 0.5
v -0.9 0.4 0.5
v -0.7 0.2 0.5
v -0.6 0.2 0.5
v -0.4 0.2 0.5
v -0.4 0.4 0.5
v 0.4 0 0.3
v 0.4 0.2 0.3
v 0.6 0 0.3
v 0.6 0.2 0.3
v 0.7 0 0.3
v 0.7 0.2 0.3
v 0.9 0 0.3
v 0.9 0.2 0.3
v -0.9 0 0.1
v -0.9 0.5 0.1
v -0.6 0.4 0.1
v -0.6 0.5 0.1
v -0.5 0.3 0.1
v -0.5 0.4 0.1
v -0.4 0 0.1
v -0.4 0.3 0.1
v 0.2 0 0.1
v 0.2 0.5 0.1
v 0.3 0 0.1
v 0.3 0.5 0.1
v 0.4 0 0.1
v 0.4 0.2 0.1
v 0.6 0 0.1
v 0.6 0.2 0.1
v 0.7 0 0.1
v 0.7 0.2 0.1
v 0.9 0 0.1
v 0.9 0.2 0.1
v -0.4 0 0
v -0.4 0.2 0
v -0.2 0 0
v -0.2 0.2 0
v -0.1 0 0
v -0.1 0.2 0
v 0.1 0 0
v 0.1 0.2 0
v -0.7 0.2 -0.1
v -0.7 0.4 -0.1
v -0.6 0.4 -0.1
v -0.5 0.2 -0.1
v -0.4 0.2 -0.1
v -0.2 0.2 -0.1
v -0.1 0.2 -0.1
v 0.1 0.2 -0.1
v 0.1 0.4 -0.1
v 0.4 0 -0.1
v 0.4 0.1 -0.1
v 0.6 0 -0.1
v 0.6 0.1 -0.1
v 0.7 0 -0.1
v 0.7 0.1 -0.1
v 0.9 0 -0.1
v 0.9 0.1 -0.1
v -0.7 0.2 -0.4
v -0.7 0.4 -0.4
v -0.6 0.4 -0.4
v -0.5 0.2 -0.4
v -0.4 0.2 -0.4
v -0.2 0.2 -0.4
v -0.1 0.2 -0.4
v 0.1 0.2 -0.4
v 0.1 0.4 -0.4
v 0.4 0 -0.4
v 0.4 0.1 -0.4
v 0.6 0 -0.4
v 0.6 0.1 -0.4
v 0.7 0 -0.4
v 0.7 0.1 -0.4
v 0.8 0 -0.4
v 0.8 0.1 -0.4
v 0.9 0 -0.4
v 0.9 0.1 -0.4
v -0.6 0.4 -0.6
v -0.6 0.5 -0.6
v -0.2 0.4 -0.6
v -0.2 0.5 -0.6
v -0.2 0.4 -0.7
v -0.2 0.5 -0.7
v -0.1 0.4 -0.7
v -0.1 0.5 -0.7
v 0.4 0 -0.7
v 0.4 0.1 -0.7
v 0.6 0 -0.7
v 0.6 0.1 -0.7
v 0.7 0 -0.7
v 0.7 0.1 -0.7
v 0.9 0 -0.7
v 0.9 0.1 -0.7
v -0.8 0 -0.8
v -0.8 0.4 -0.8
v -0.1 0.4 -0.8
v -0.1 0.5 -0.8
v 0.2 0 -0.8
v 0.2 0.5 -0.8
v -0.9 0.2 0.6
v -0.9 0.4 0.6
v -0.7 0.2 0.6
v -0.6 0.2 0.6
v -0.4 0.2 0.6
v -0.4 0.4 0.6
v -0.9 0.2 0.3
v -0.9 0.4 0.3
v -0.7 0.2 0.3
v -0.6 0.2 0.3
v -0.4 0.2 0.3
v -0.4 0.4 0.3
v -0.9 0 0.2
v -0.9 0.2 0.2
v -0.7 0 0.2
v -0.7 0.2 0.2
v -0.6 0 0.2
v -0.6 0.2 0.2
v -0.4 0 0.2
v -0.4 0.2 0.2
v 0.4 0 0.2
v 0.4 0.2 0.2
v 0.6 0 0.2
v 0.6 0.2 0.2
v 0.7 0 0.2
v 0.7 0.2 0.2
v 0.9 0 0.2
v 0.9 0.2 0.2
v -0.8 0 0
v -0.8 0.4 0
v -0.7 0 0
v -0.7 0.2 0
v -0.6 0.4 0
v -0.5 0 0
v -0.5 0.2 0
v -0.5 0.3 0
v -0.5 0.4 0
v -0.4 0 0
v -0.4 0.2 0
v -0.4 0.3 0
v 0.4 0 0
v 0.4 0.2 0
v 0.6 0 0
v 0.6 0.2 0
v 0.7 0 0
v 0.7 0.2 0
v 0.9 0 0
v 0.9 0.2 0
v -0.7 0.2 -0.3
v -0.7 0.4 -0.3
v -0.6 0.4 -0.3
v -0.5 0.2 -0.3
v -0.4 0.2 -0.3
v -0.2 0.2 -0.3
v -0.1 0.2 -0.3
v 0.1 0.2 -0.3
v 0.1 0.4 -0.3
v 0.4 0 -0.3
v 0.4 0.1 -0.3
v 0.6 0 -0.3
v 0.6 0.1 -0.3
v 0.7 0 -0.3
v 0.7 0.1 -0.3
v 0.9 0 -0.3
v 0.9 0.1 -0.3
v -0.7 0.2 -0.6
v -0.7 0.4 -0.6
v -0.6 0.3 -0.6
v -0.6 0.4 -0.6
v -0.5 0.2 -0.6
v -0.4 0.2 -0.6
v -0.2 0.2 -0.6
v -0.2 0.4 -0.6
v -0.1 0.2 -0.6
v 0 0.2 -0.6
v 0 0.3 -0.6
v 0.1 0.2 -0.6
v 0.1 0.4 -0.6
v 0.4 0 -0.6
v 0.4 0.1 -0.6
v 0.6 0 -0.6
v 0.6 0.1 -0.6
v 0.7 0 -0.6
v 0.7 0.1 -0.6
v 0.9 0 -0.6
v 0.9 0.1 -0.6
v -0.7 0 -0.7
v -0.7 0.2 -0.7
v -0.5 0 -0.7
v -0.5 0.2 -0.7
v -0.4 0 -0.7
v -0.4 0.2 -0.7
v -0.2 0 -0.7
v -0.2 0.2 -0.7
v -0.1 0 -0.7
v -0.1 0.2 -0.7
v 0.1 0 -0.7
v 0.1 0.2 -0.7
v -0.9 0 -0.9
v -0.9 0.5 -0.9
v 0.3 0 -0.9
v 0.3 0.5 -0.9
v 0.4 0 -0.9
v 0.4 0.1 -0.9
v 0.6 0 -0.9
v 0.6 0.1 -0.9
v 0.7 0 -0.9
v 0.7 0.1 -0.9
v 0.9 0 -0.9
v 0.9 0.1 -0.9
v -0.9 0 0.9
v -0.7 0 0.9
v -0.6 0 0.9
v -0.4 0 0.9
v 0.4 0 0.3
v 0.6 0 0.3
v 0.7 0 0.3
v 0.9 0 0.3
v -0.9 0 0.2
v -0.7 0 0.2
v -0.6 0 0.2
v -0.4 0 0.2
v 0.4 0 0.2
v 0.6 0 0.2
v 0.7 0 0.2
v 0.9 0 0.2
v -0.9 0 0.1
v -0.4 0 0.1
v 0.2 0 0.1
v 0.3 0 0.1
v 0.4 0 0.1
v 0.6 0 0.1
v 0.7 0 0.1
v 0.9 0 0.1
v -0.8 0 0
v -0.7 0 0
v -0.5 0 0
v -0.4 0 0
v -0.2 0 0
v -0.1 0 0
v 0.1 0 0
v 0.4 0 0
v 0.6 0 0
v 0.7 0 0
v 0.9 0 0
v 0.4 0 -0.1
v 0.6 0 -0.1
v 0.7 0 -0.1
v 0.9 0 -0.1
v 0.4 0 -0.3
v 0.6 0 -0.3
v 0.7 0 -0.3
v 0.9 0 -0.3
v 0.4 0 -0.4
v 0.6 0 -0.4
v 0.7 0 -0.4
v 0.8 0 -0.4
v 0.9 0 -0.4
v 0.8 0 -0.5
v 0.9 0 -0.5
v 0.4 0 -0.6
v 0.6 0 -0.6
v 0.7 0 -0.6
v 0.9 0 -0.6
v -0.7 0 -0.7
v -0.5 0 -0.7
v -0.4 0 -0.7
v -0.2 0 -0.7
v -0.1 0 -0.7
v 0.1 0 -0.7
v 0.4 0 -0.7
v 0.6 0 -0.7
v 0.7 0 -0.7
v 0.9 0 -0.7
v -0.8 0 -0.8
v 0.2 0 -0.8
v -0.9 0 -0.9
v 0.3 0 -0.9
v 0.4 0 -0.9
v 0.6 0 -0.9
v 0.7 0 -0.9
v 0.9 0 -0.9
v -0.7 0.2 0.8
v -0.6 0.2 0.8
v -0.7 0.2 0.6
v -0.6 0.2 0.6
v -0.7 0.2 0.5
v -0.6 0.2 0.5
v -0.7 0.2 0.3
v -0.6 0.2 0.3
v -0.5 0.2 -0.1
v -0.4 0.2 -0.1
v -0.2 0.2 -0.1
v -0.1 0.2 -0.1
v -0.5 0.2 -0.3
v -0.4 0.2 -0.3
v -0.2 0.2 -0.3
v -0.1 0.2 -0.3
v -0.5 0.2 -0.4
v -0.4 0.2 -0.4
v -0.2 0.2 -0.4
v -0.1 0.2 -0.4
v -0.5 0.2 -0.5
v -0.4 0.2 -0.5
v -0.2 0.2 -0.5
v -0.1 0.2 -0.5
v -0.5 0.2 -0.6
v -0.4 0.2 -0.6
v -0.2 0.2 -0.6
v -0.1 0.2 -0.6
v -0.8 0.4 0
v -0.6 0.4 0
v -0.7 0.4 -0.1
v -0.6 0.4 -0.1
v -0.7 0.4 -0.3
v -0.6 0.4 -0.3
v -0.7 0.4 -0.4
v -0.6 0.4 -0.4
v -0.7 0.4 -0.5
v -0.7 0.4 -0.6
v -0.6 0.4 -0.6
v -0.2 0.4 -0.6
v -0.2 0.4 -0.7
v -0.1 0.4 -0.7
v -0.8 0.4 -0.8
v -0.1 0.4 -0.8
v 0.4 0.1 -0.1
v 0.6 0.1 -0.1
v 0.7 0.1 -0.1
v 0.9 0.1 -0.1
v 0.4 0.1 -0.3
v 0.6 0.1 -0.3
v 0.7 0.1 -0.3
v 0.9 0.1 -0.3
v 0.4 0.1 -0.4
v 0.6 0.1 -0.4
v 0.7 0.1 -0.4
v 0.8 0.1 -0.4
v 0.9 0.1 -0.4
v 0.8 0.1 -0.5
v 0.9 0.1 -0.5
v 0.4 0.1 -0.6
v 0.6 0.1 -0.6
v 0.7 0.1 -0.6
v 0.9 0.1 -0.6
v 0.4 0.1 -0.7
v 0.6 0.1 -0.7
v 0.7 0.1 -0.7
v 0.9 0.1 -0.7
v 0.4 0.1 -0.9
v 0.6 0.1 -0.9
v 0.7 0.1 -0.9
v 0.9 0.1 -0.9
v -0.9 0.2 0.9
v -0.7 0.2 0.9
v -0.6 0.2 0.9
v -0.4 0.2 0.9
v -0.9 0.2 0.8
v -0.7 0.2 0.8
v -0.6 0.2 0.8
v -0.4 0.2 0.8
v -0.9 0.2 0.6
v -0.7 0.2 0.6
v -0.6 0.2 0.6
v -0.4 0.2 0.6
v -0.9 0.2 0.5
v -0.7 0.2 0.5
v -0.6 0.2 0.5
v -0.4 0.2 0.5
v -0.9 0.2 0.3
v -0.7 0.2 0.3
v -0.6 0.2 0.3
v -0.4 0.2 0.3
v 0.4 0.2 0.3
v 0.6 0.2 0.3
v 0.7 0.2 0.3
v 0.9 0.2 0.3
v -0.9 0.2 0.2
v -0.7 0.2 0.2
v -0.6 0.2 0.2
v -0.4 0.2 0.2
v 0.4 0.2 0.2
v 0.6 0.2 0.2
v 0.7 0.2 0.2
v 0.9 0.2 0.2
v 0.4 0.2 0.1
v 0.6 0.2 0.1
v 0.7 0.2 0.1
v 0.9 0.2 0.1
v -0.7 0.2 0
v -0.5 0.2 0
v -0.4 0.2 0
v -0.2 0.2 0
v -0.1 0.2 0
v 0.1 0.2 0
v 0.4 0.2 0
v 0.6 0.2 0
v 0.7 0.2 0
v 0.9 0.2 0
v -0.7 0.2 -0.1
v -0.5 0.2 -0.1
v -0.4 0.2 -0.1
v -0.2 0.2 -0.1
v -0.1 0.2 -0.1
v 0.1 0.2 -0.1
v -0.7 0.2 -0.3
v -0.5 0.2 -0.3
v -0.4 0.2 -0.3
v -0.2 0.2 -0.3
v -0.1 0.2 -0.3
v 0.1 0.2 -0.3
v -0.7 0.2 -0.4
v -0.5 0.2 -0.4
v -0.4 0.2 -0.4
v -0.2 0.2 -0.4
v -0.1 0.2 -0.4
v 0.1 0.2 -0.4
v -0.7 0.2 -0.6
v -0.5 0.2 -0.6
v -0.4 0.2 -0.6
v -0.2 0.2 -0.6
v -0.1 0.2 -0.6
v 0 0.2 -0.6
v 0.1 0.2 -0.6
v -0.7 0.2 -0.7
v -0.5 0.2 -0.7
v -0.4 0.2 -0.7
v -0.2 0.2 -0.7
v -0.1 0.2 -0.7
v 0.1 0.2 -0.7
v -0.5 0.3 0.1
v -0.4 0.3 0.1
v -0.5 0.3 0
v -0.4 0.3 0
v -0.9 0.4 0.8
v -0.4 0.4 0.8
v -0.9 0.4 0.6
v -0.4 0.4 0.6
v -0.9 0.4 0.5
v -0.4 0.4 0.5
v -0.9 0.4 0.3
v -0.4 0.4 0.3
v -0.6 0.4 0.1
v -0.5 0.4 0.1
v -0.6 0.4 0
v -0.5 0.4 0
v -0.6 0.4 -0.1
v 0.1 0.4 -0.1
v -0.6 0.4 -0.3
v 0.1 0.4 -0.3
v -0.6 0.4 -0.4
v 0.1 0.4 -0.4
v -0.6 0.4 -0.6
v -0.2 0.4 -0.6
v 0.1 0.4 -0.6
v -0.9 0.5 0.1
v -0.6 0.5 0.1
v 0.2 0.5 0.1
v 0.3 0.5 0.1
v -0.6 0.5 -0.6
v -0.2 0.5 -0.6
v -0.2 0.5 -0.7
v -0.1 0.5 -0.7
v -0.1 0.5 -0.8
v 0.2 0.5 -0.8
v -0.9 0.5 -0.9
v 0.3 0.5 -0.9

# faces
f 5/1/1 2/1/1 1/1/1
f 6/1/1 2/1/1 5/1/1
f 7/1/1 2/1/1 6/1/1
f 8/1/1 2/1/1 7/1/1
f 9/1/1 2/1/1 8/1/1
f 10/1/1 2/1/1 9/1/1
f 11/3/1 7/3/1 6/3/1
f 12/3/1 7/3/1 11/3/1
f 13/3/1 9/3/1 8/3/1
f 14/3/1 9/3/1 13/3/1
f 15/2/1 4/2/1 3/2/1
f 16/2/1 4/2/1 15/2/1
f 19/1/1 18/1/1 17/1/1
f 20/1/1 18/1/1 19/1/1
f 21/1/1 18/1/1 20/1/1
f 22/1/1 18/1/1 21/1/1
f 23/1/1 18/1/1 22/1/1
f 24/1/1 18/1/1 23/1/1
f 25/1/1 18/1/1 24/1/1
f 26/1/1 21/1/1 20/1/1
f 27/1/1 21/1/1 26/1/1
f 28/3/1 23/3/1 22/3/1
f 29/1/1 24/1/1 23/1/1
f 29/3/1 23/3/1 28/3/1
f 30/1/1 24/1/1 29/1/1
f 33/1/1 32/1/1 31/1/1
f 34/1/1 32/1/1 33/1/1
f 35/1/1 32/1/1 34/1/1
f 36/1/1 32/1/1 35/1/1
f 37/1/1 32/1/1 36/1/1
f 38/1/1 32/1/1 37/1/1
f 41/1/1 40/1/1 39/1/1
f 42/1/1 40/1/1 41/1/1
f 43/1/1 40/1/1 42/1/1
f 44/1/1 40/1/1 43/1/1
f 45/1/1 40/1/1 44/1/1
f 46/1/1 40/1/1 45/1/1
f 47/1/1 40/1/1 46/1/1
f 50/1/1 49/1/1 48/1/1
f 51/1/1 49/1/1 50/1/1
f 52/1/1 49/1/1 51/1/1
f 53/1/1 49/1/1 52/1/1
f 54/1/1 49/1/1 53/1/1
f 55/1/1 49/1/1 54/1/1
f 56/1/1 49/1/1 55/1/1
f 59/2/1 58/2/1 57/2/1
f 60/2/1 58/2/1 59/2/1
f 71/2/1 66/2/1 65/2/1
f 72/2/1 66/2/1 71/2/1
f 73/2/1 68/2/1 67/2/1
f 74/2/1 68/2/1 73/2/1
f 75/2/1 70/2/1 69/2/1
f 76/2/1 70/2/1 75/2/1
f 77/2/1 62/2/1 61/2/1
f 78/2/1 62/2/1 77/2/1
f 79/2/1 64/2/1 63/2/1
f 80/2/1 64/2/1 79/2/1
f 91/2/1 86/2/1 85/2/1
f 92/2/1 86/2/1 91/2/1
f 93/2/1 88/2/1 87/2/1
f 94/2/1 88/2/1 93/2/1
f 95/2/1 90/2/1 89/2/1
f 96/2/1 90/2/1 95/2/1
f 97/2/1 82/2/1 81/2/1
f 98/2/1 82/2/1 97/2/1
f 99/2/1 84/2/1 83/2/1
f 100/2/1 84/2/1 99/2/1
f 101/2/2 102/2/2 103/2/2
f 103/2/2 102/2/2 104/2/2
f 105/1/2 106/1/2 107/1/2
f 107/1/2 106/1/2 108/1/2
f 108/1/2 106/1/2 109/1/2
f 109/1/2 106/1/2 110/1/2
f 110/1/2 106/1/2 111/1/2
f 111/1/2 106/1/2 112/1/2
f 113/2/2 114/2/2 119/2/2
f 117/2/2 118/2/2 119/2/2
f 116/2/2 117/2/2 119/2/2
f 115/2/2 116/2/2 119/2/2
f 114/2/2 115/2/2 119/2/2
f 119/2/2 118/2/2 120/2/2
f 121/1/2 122/1/2 123/1/2
f 123/1/2 122/1/2 124/1/2
f 124/1/2 122/1/2 125/1/2
f 125/1/2 122/1/2 126/1/2
f 126/1/2 122/1/2 127/1/2
f 127/1/2 122/1/2 128/1/2
f 128/1/2 122/1/2 129/1/2
f 130/2/2 131/2/2 132/2/2
f 132/2/2 131/2/2 133/2/2
f 134/1/2 135/1/2 138/1/2
f 138/1/2 135/1/2 139/1/2
f 139/1/2 135/1/2 140/1/2
f 140/1/2 135/1/2 141/1/2
f 141/1/2 135/1/2 142/1/2
f 142/1/2 135/1/2 143/1/2
f 136/2/2 137/2/2 144/2/2
f 136/2/2 144/2/2 145/2/2
f 145/2/2 144/2/2 146/2/2
f 139/3/2 140/3/2 147/3/2
f 147/3/2 140/3/2 148/3/2
f 141/3/2 142/3/2 149/3/2
f 149/3/2 142/3/2 150/3/2
f 151/1/2 152/1/2 153/1/2
f 153/1/2 152/1/2 154/1/2
f 154/1/2 152/1/2 155/1/2
f 155/1/2 152/1/2 156/1/2
f 156/1/2 152/1/2 157/1/2
f 157/1/2 152/1/2 158/1/2
f 158/1/2 152/1/2 159/1/2
f 160/2/2 161/2/2 162/2/2
f 162/2/2 161/2/2 163/2/2
f 164/2/2 165/2/2 166/2/2
f 166/2/2 165/2/2 167/2/2
f 168/1/2 169/1/2 170/1/2
f 170/1/2 169/1/2 171/1/2
f 171/1/2 169/1/2 172/1/2
f 172/1/2 169/1/2 173/1/2
f 173/1/2 169/1/2 174/1/2
f 174/1/2 169/1/2 175/1/2
f 171/1/2 172/1/2 176/1/2
f 176/1/2 172/1/2 177/1/2
f 173/3/2 174/3/2 178/3/2
f 178/3/2 174/3/2 179/3/2
f 180/2/2 181/2/2 182/2/2
f 182/2/2 181/2/2 183/2/2
f 188/2/2 189/2/2 194/2/2
f 194/2/2 189/2/2 195/2/2
f 190/2/2 191/2/2 196/2/2
f 196/2/2 191/2/2 197/2/2
f 192/2/2 193/2/2 198/2/2
f 198/2/2 193/2/2 199/2/2
f 184/2/2 185/2/2 200/2/2
f 200/2/2 185/2/2 201/2/2
f 186/2/2 187/2/2 202/2/2
f 202/2/2 187/2/2 203/2/2
f 208/2/2 209/2/2 215/2/2
f 215/2/2 209/2/2 216/2/2
f 210/3/2 211/3/2 217/3/2
f 211/2/2 212/2/2 218/2/2
f 217/3/2 211/3/2 218/3/2
f 218/2/2 212/2/2 219/2/2
f 213/2/2 214/2/2 220/2/2
f 220/2/2 214/2/2 221/2/2
f 204/2/2 205/2/2 222/2/2
f 222/2/2 205/2/2 223/2/2
f 206/2/2 207/2/2 224/2/2
f 224/2/2 207/2/2 225/2/2
f 228/1/3 227/1/3 226/1/3
f 229/1/3 227/1/3 228/1/3
f 232/1/3 231/1/3 230/1/3
f 233/1/3 231/1/3 232/1/3
f 236/3/3 235/3/3 234/3/3
f 237/3/3 235/3/3 236/3/3
f 238/3/3 235/3/3 237/3/3
f 239/3/3 235/3/3 238/3/3
f 242/3/3 241/3/3 240/3/3
f 243/3/3 241/3/3 242/3/3
f 244/3/3 241/3/3 243/3/3
f 245/3/3 241/3/3 244/3/3
f 248/2/3 247/2/3 246/2/3
f 249/2/3 247/2/3 248/2/3
f 252/2/3 251/2/3 250/2/3
f 253/2/3 251/2/3 252/2/3
f 256/2/3 255/2/3 254/2/3
f 257/2/3 255/2/3 256/2/3
f 258/2/3 256/2/3 254/2/3
f 259/2/3 256/2/3 258/2/3
f 260/2/3 258/2/3 254/2/3
f 261/2/3 258/2/3 260/2/3
f 264/2/3 263/2/3 262/2/3
f 265/2/3 263/2/3 264/2/3
f 268/2/3 267/2/3 266/2/3
f 269/2/3 267/2/3 268/2/3
f 272/2/3 271/2/3 270/2/3
f 273/2/3 271/2/3 272/2/3
f 276/1/3 275/1/3 274/1/3
f 277/1/3 275/1/3 276/1/3
f 280/1/3 279/1/3 278/1/3
f 281/1/3 279/1/3 280/1/3
f 284/1/3 283/1/3 282/1/3
f 285/1/3 284/1/3 282/1/3
f 286/1/3 284/1/3 285/1/3
f 287/1/3 284/1/3 286/1/3
f 288/1/3 284/1/3 287/1/3
f 289/1/3 284/1/3 288/1/3
f 290/1/3 284/1/3 289/1/3
f 293/2/3 292/2/3 291/2/3
f 294/2/3 292/2/3 293/2/3
f 297/2/3 296/2/3 295/2/3
f 298/2/3 296/2/3 297/2/3
f 301/3/3 300/3/3 299/3/3
f 302/3/3 301/3/3 299/3/3
f 303/3/3 301/3/3 302/3/3
f 304/3/3 301/3/3 303/3/3
f 305/3/3 301/3/3 304/3/3
f 306/3/3 301/3/3 305/3/3
f 307/3/3 301/3/3 306/3/3
f 310/2/3 309/2/3 308/2/3
f 311/2/3 309/2/3 310/2/3
f 314/2/3 313/2/3 312/2/3
f 315/2/3 313/2/3 314/2/3
f 316/3/3 315/3/3 314/3/3
f 317/3/3 315/3/3 316/3/3
f 320/2/3 319/2/3 318/2/3
f 321/2/3 319/2/3 320/2/3
f 324/2/3 323/2/3 322/2/3
f 325/2/3 323/2/3 324/2/3
f 328/2/3 327/2/3 326/2/3
f 329/2/3 327/2/3 328/2/3
f 332/2/3 331/2/3 330/2/3
f 333/2/3 331/2/3 332/2/3
f 336/2/3 335/2/3 334/2/3
f 338/2/3 336/2/3 334/2/3
f 338/2/3 337/2/3 336/2/3
f 339/2/3 337/2/3 338/2/3
f 340/3/4 341/3/4 342/3/4
f 342/3/4 341/3/4 343/3/4
f 343/3/4 341/3/4 344/3/4
f 344/3/4 341/3/4 345/3/4
f 346/3/4 347/3/4 348/3/4
f 348/3/4 347/3/4 349/3/4
f 349/3/4 347/3/4 350/3/4
f 350/3/4 347/3/4 351/3/4
f 352/1/4 353/1/4 354/1/4
f 354/1/4 353/1/4 355/1/4
f 356/1/4 357/1/4 358/1/4
f 358/1/4 357/1/4 359/1/4
f 360/2/4 361/2/4 362/2/4
f 362/2/4 361/2/4 363/2/4
f 364/2/4 365/2/4 366/2/4
f 366/2/4 365/2/4 367/2/4
f 368/2/4 369/2/4 370/2/4
f 370/2/4 369/2/4 371/2/4
f 371/2/4 369/2/4 372/2/4
f 371/2/4 372/2/4 374/2/4
f 374/2/4 372/2/4 375/2/4
f 375/2/4 372/2/4 376/2/4
f 373/2/4 374/2/4 377/2/4
f 374/2/4 375/2/4 377/2/4
f 377/2/4 375/2/4 378/2/4
f 378/2/4 375/2/4 379/2/4
f 380/2/4 381/2/4 382/2/4
f 382/2/4 381/2/4 383/2/4
f 384/2/4 385/2/4 386/2/4
f 386/2/4 385/2/4 387/2/4
f 388/1/4 389/1/4 390/1/4
f 388/1/4 390/1/4 391/1/4
f 391/1/4 390/1/4 392/1/4
f 392/1/4 390/1/4 393/1/4
f 393/1/4 390/1/4 394/1/4
f 394/1/4 390/1/4 395/1/4
f 395/1/4 390/1/4 396/1/4
f 397/2/4 398/2/4 399/2/4
f 399/2/4 398/2/4 400/2/4
f 401/2/4 402/2/4 403/2/4
f 403/2/4 402/2/4 404/2/4
f 405/1/4 406/1/4 407/1/4
f 407/1/4 406/1/4 408/1/4
f 405/1/4 407/1/4 409/1/4
f 409/1/4 407/1/4 410/1/4
f 410/1/4 407/1/4 411/1/4
f 407/3/4 408/3/4 412/3/4
f 411/1/4 407/1/4 413/1/4
f 413/1/4 407/1/4 414/1/4
f 407/3/4 412/3/4 415/3/4
f 414/1/4 407/1/4 415/1/4
f 414/3/4 415/3/4 416/3/4
f 415/3/4 412/3/4 417/3/4
f 416/3/4 415/3/4 417/3/4
f 418/2/4 419/2/4 420/2/4
f 420/2/4 419/2/4 421/2/4
f 422/2/4 423/2/4 424/2/4
f 424/2/4 423/2/4 425/2/4
f 426/1/4 427/1/4 428/1/4
f 428/1/4 427/1/4 429/1/4
f 430/1/4 431/1/4 432/1/4
f 432/1/4 431/1/4 433/1/4
f 434/1/4 435/1/4 436/1/4
f 436/1/4 435/1/4 437/1/4
f 438/2/4 439/2/4 440/2/4
f 440/2/4 439/2/4 441/2/4
f 442/2/4 443/2/4 444/2/4
f 444/2/4 443/2/4 445/2/4
f 446/2/4 447/2/4 448/2/4
f 448/2/4 447/2/4 449/2/4
f 458/1/5 451/1/5 450/1/5
f 459/1/5 451/1/5 458/1/5
f 460/1/5 453/1/5 452/1/5
f 461/1/5 453/1/5 460/1/5
f 462/2/5 455/2/5 454/2/5
f 463/2/5 455/2/5 462/2/5
f 464/2/5 457/2/5 456/2/5
f 465/2/5 457/2/5 464/2/5
f 474/2/5 467/2/5 466/2/5
f 475/2/5 467/2/5 474/2/5
f 476/2/5 467/2/5 475/2/5
f 477/2/5 467/2/5 476/2/5
f 481/2/5 471/2/5 470/2/5
f 482/2/5 471/2/5 481/2/5
f 483/2/5 473/2/5 472/2/5
f 484/2/5 473/2/5 483/2/5
f 489/2/5 486/2/5 485/2/5
f 490/2/5 486/2/5 489/2/5
f 491/2/5 488/2/5 487/2/5
f 492/2/5 488/2/5 491/2/5
f 498/2/5 496/2/5 495/2/5
f 498/3/5 497/3/5 496/3/5
f 499/3/5 497/3/5 498/3/5
f 500/2/5 494/2/5 493/2/5
f 501/2/5 494/2/5 500/2/5
f 502/2/5 498/2/5 495/2/5
f 502/2/5 499/2/5 498/2/5
f 503/2/5 499/2/5 502/2/5
f 504/1/5 476/1/5 475/1/5
f 505/1/5 476/1/5 504/1/5
f 506/1/5 478/1/5 477/1/5
f 507/1/5 478/1/5 506/1/5
f 508/1/5 480/1/5 479/1/5
f 509/1/5 480/1/5 508/1/5
f 514/2/5 474/2/5 466/2/5
f 515/2/5 469/2/5 468/2/5
f 516/2/5 514/2/5 466/2/5
f 516/2/5 515/2/5 514/2/5
f 517/2/5 469/2/5 515/2/5
f 517/2/5 515/2/5 516/2/5
f 518/2/5 511/2/5 510/2/5
f 519/2/5 511/2/5 518/2/5
f 520/2/5 513/2/5 512/2/5
f 521/2/5 513/2/5 520/2/5
f 524/3/5 523/3/5 522/3/5
f 525/3/5 523/3/5 524/3/5
f 528/3/5 527/3/5 526/3/5
f 529/3/5 527/3/5 528/3/5
f 534/1/5 531/1/5 530/1/5
f 535/1/5 531/1/5 534/1/5
f 536/1/5 533/1/5 532/1/5
f 537/1/5 533/1/5 536/1/5
f 542/3/5 539/3/5 538/3/5
f 543/3/5 539/3/5 542/3/5
f 544/3/5 541/3/5 540/3/5
f 545/3/5 541/3/5 544/3/5
f 546/1/5 543/1/5 542/1/5
f 547/1/5 543/1/5 546/1/5
f 548/1/5 545/1/5 544/1/5
f 549/1/5 545/1/5 548/1/5
f 552/2/5 551/2/5 550/2/5
f 553/2/5 551/2/5 552/2/5
f 554/2/5 552/2/5 550/2/5
f 556/2/5 554/2/5 550/2/5
f 556/2/5 555/2/5 554/2/5
f 557/2/5 555/2/5 556/2/5
f 558/2/5 556/2/5 550/2/5
f 559/2/5 558/2/5 550/2/5
f 562/2/5 560/2/5 559/2/5
f 562/2/5 561/2/5 560/2/5
f 564/2/5 559/2/5 550/2/5
f 564/2/5 563/2/5 562/2/5
f 564/2/5 562/2/5 559/2/5
f 565/2/5 563/2/5 564/2/5
f 566/2/6 567/2/6 570/2/6
f 570/2/6 567/2/6 571/2/6
f 568/2/6 569/2/6 572/2/6
f 572/2/6 569/2/6 573/2/6
f 576/2/6 577/2/6 579/2/6
f 577/3/6 578/3/6 579/3/6
f 579/3/6 578/3/6 580/3/6
f 574/2/6 575/2/6 581/2/6
f 581/2/6 575/2/6 582/2/6
f 576/2/6 579/2/6 583/2/6
f 579/2/6 580/2/6 583/2/6
f 583/2/6 580/2/6 584/2/6
f 585/2/6 586/2/6 589/2/6
f 589/2/6 586/2/6 590/2/6
f 587/2/6 588/2/6 591/2/6
f 591/2/6 588/2/6 592/2/6
f 593/1/6 594/1/6 597/1/6
f 597/1/6 594/1/6 598/1/6
f 595/1/6 596/1/6 599/1/6
f 599/1/6 596/1/6 600/1/6
f 601/1/6 602/1/6 605/1/6
f 605/1/6 602/1/6 606/1/6
f 603/1/6 604/1/6 607/1/6
f 607/1/6 604/1/6 608/1/6
f 609/1/6 610/1/6 617/1/6
f 617/1/6 610/1/6 618/1/6
f 611/1/6 612/1/6 619/1/6
f 619/1/6 612/1/6 620/1/6
f 613/2/6 614/2/6 621/2/6
f 621/2/6 614/2/6 622/2/6
f 615/2/6 616/2/6 623/2/6
f 623/2/6 616/2/6 624/2/6
f 625/2/6 626/2/6 635/2/6
f 635/2/6 626/2/6 636/2/6
f 627/2/6 628/2/6 637/2/6
f 637/2/6 628/2/6 638/2/6
f 629/1/6 630/1/6 639/1/6
f 639/1/6 630/1/6 640/1/6
f 631/1/6 632/1/6 641/1/6
f 641/1/6 632/1/6 642/1/6
f 633/1/6 634/1/6 643/1/6
f 643/1/6 634/1/6 644/1/6
f 645/1/6 646/1/6 651/1/6
f 651/1/6 646/1/6 652/1/6
f 647/1/6 648/1/6 653/1/6
f 653/1/6 648/1/6 654/1/6
f 649/1/6 650/1/6 655/1/6
f 655/1/6 650/1/6 656/1/6
f 657/1/6 658/1/6 664/1/6
f 664/1/6 658/1/6 665/1/6
f 659/1/6 660/1/6 666/1/6
f 666/1/6 660/1/6 667/1/6
f 662/1/6 663/1/6 668/1/6
f 661/1/6 662/1/6 668/1/6
f 668/1/6 663/1/6 669/1/6
f 670/2/6 671/2/6 672/2/6
f 672/2/6 671/2/6 673/2/6
f 674/3/6 675/3/6 676/3/6
f 676/3/6 675/3/6 677/3/6
f 678/3/6 679/3/6 680/3/6
f 680/3/6 679/3/6 681/3/6
f 682/2/6 683/2/6 684/2/6
f 684/2/6 683/2/6 685/2/6
f 686/1/6 687/1/6 688/1/6
f 688/1/6 687/1/6 689/1/6
f 690/3/6 691/3/6 692/3/6
f 692/3/6 691/3/6 693/3/6
f 693/3/6 691/3/6 694/3/6
f 695/2/6 696/2/6 699/2/6
f 699/2/6 700/2/6 701/2/6
f 701/2/6 702/2/6 703/2/6
f 697/2/6 698/2/6 704/2/6
f 701/2/6 703/2/6 705/2/6
f 703/2/6 704/2/6 705/2/6
f 695/2/6 699/2/6 705/2/6
f 699/2/6 701/2/6 705/2/6
f 704/2/6 698/2/6 706/2/6
f 705/2/6 704/2/6 706/2/6
