# MagicaVoxel @ Ephtracy

# group
o 

# material
mtllib cannon_barrel.mtl
usemtl palette

# normals
vn -1 0 0
vn 1 0 0
vn 0 0 1
vn 0 0 -1
vn 0 -1 0
vn 0 1 0

# texcoords
vt 0.00195313 0.5
vt 0.00585938 0.5

# verts
v -0.4 0.1 1.6
v -0.4 0.1 -1.6
v -0.4 0.6 1.6
v -0.4 0.6 -1.6
v -0.3 0 1.6
v -0.3 0 -1.6
v -0.3 0.1 1.6
v -0.3 0.1 -1.6
v -0.3 0.6 1.6
v -0.3 0.6 -1.6
v -0.3 0.7 1.6
v -0.3 0.7 -1.6
v -0.2 0.7 -1
v -0.2 0.7 -1.4
v -0.2 0.8 -1
v -0.2 0.8 -1.4
v -0.1 0.5 -0.9
v -0.1 0.5 -1.4
v -0.1 0.6 -0.9
v -0.1 0.6 -1.4
v -0.1 0.8 -1.1
v -0.1 0.8 -1.3
v -0.1 0.9 -1.1
v -0.1 0.9 -1.3
v 0.1 0.5 -0.7
v 0.1 0.5 -1.4
v 0.1 0.6 -0.7
v 0.1 0.6 -1.4
v 0.2 0.2 1.6
v 0.2 0.2 -1.6
v 0.2 0.3 -1.2
v 0.2 0.3 -1.3
v 0.2 0.4 0.4
v 0.2 0.4 -0.8
v 0.2 0.4 -1.2
v 0.2 0.4 -1.3
v 0.2 0.5 1.6
v 0.2 0.5 0.4
v 0.2 0.5 -0.8
v 0.2 0.5 -1.6
v 0.3 0.3 -1.2
v 0.3 0.3 -1.3
v 0.3 0.4 0.4
v 0.3 0.4 -0.8
v 0.3 0.4 -1.2
v 0.3 0.4 -1.3
v 0.3 0.5 0.4
v 0.3 0.5 -0.7
v 0.3 0.5 -0.8
v 0.3 0.5 -1.4
v 0.3 0.6 -0.7
v 0.3 0.6 -1.4
v -0.2 0.2 1.6
v -0.2 0.2 -1.6
v -0.2 0.5 1.6
v -0.2 0.5 -0.9
v -0.2 0.5 -1.4
v -0.2 0.5 -1.6
v -0.2 0.6 -0.9
v -0.2 0.6 -1.4
v 0 0.5 -0.7
v 0 0.5 -1.4
v 0 0.6 -0.7
v 0 0.6 -1.4
v 0.1 0.8 -1.1
v 0.1 0.8 -1.3
v 0.1 0.9 -1.1
v 0.1 0.9 -1.3
v 0.2 0.5 -0.7
v 0.2 0.5 -0.8
v 0.2 0.5 -1.4
v 0.2 0.6 -0.7
v 0.2 0.6 -1.4
v 0.2 0.7 -1
v 0.2 0.7 -1.4
v 0.2 0.8 -1
v 0.2 0.8 -1.4
v 0.3 0 1.6
v 0.3 0 -1.6
v 0.3 0.1 1.6
v 0.3 0.1 -1.6
v 0.3 0.6 1.6
v 0.3 0.6 -1.6
v 0.3 0.7 1.6
v 0.3 0.7 -1.6
v 0.4 0.1 1.6
v 0.4 0.1 -1.6
v 0.4 0.6 1.6
v 0.4 0.6 -1.6
v -0.4 0.1 1.6
v -0.4 0.6 1.6
v -0.3 0 1.6
v -0.3 0.1 1.6
v -0.3 0.6 1.6
v -0.3 0.7 1.6
v -0.2 0.2 1.6
v -0.2 0.5 1.6
v 0.2 0.2 1.6
v 0.2 0.5 1.6
v 0.3 0 1.6
v 0.3 0.1 1.6
v 0.3 0.6 1.6
v 0.3 0.7 1.6
v 0.4 0.1 1.6
v 0.4 0.6 1.6
v 0.2 0.4 -0.8
v 0.2 0.5 -0.8
v 0.3 0.4 -0.8
v 0.3 0.5 -0.8
v -0.2 0.7 -1
v -0.2 0.8 -1
v 0.2 0.7 -1
v 0.2 0.8 -1
v -0.1 0.8 -1.1
v -0.1 0.9 -1.1
v 0.1 0.8 -1.1
v 0.1 0.9 -1.1
v 0.2 0.3 -1.3
v 0.2 0.4 -1.3
v 0.3 0.3 -1.3
v 0.3 0.4 -1.3
v -0.2 0.5 -1.4
v -0.2 0.6 -1.4
v -0.1 0.5 -1.4
v -0.1 0.6 -1.4
v 0 0.5 -1.4
v 0 0.6 -1.4
v 0.1 0.5 -1.4
v 0.1 0.6 -1.4
v 0.2 0.5 -1.4
v 0.2 0.6 -1.4
v 0.3 0.5 -1.4
v 0.3 0.6 -1.4
v 0.2 0.4 0.4
v 0.2 0.5 0.4
v 0.3 0.4 0.4
v 0.3 0.5 0.4
v 0 0.5 -0.7
v 0 0.6 -0.7
v 0.1 0.5 -0.7
v 0.1 0.6 -0.7
v 0.2 0.5 -0.7
v 0.2 0.6 -0.7
v 0.3 0.5 -0.7
v 0.3 0.6 -0.7
v -0.2 0.5 -0.9
v -0.2 0.6 -0.9
v -0.1 0.5 -0.9
v -0.1 0.6 -0.9
v 0.2 0.3 -1.2
v 0.2 0.4 -1.2
v 0.3 0.3 -1.2
v 0.3 0.4 -1.2
v -0.1 0.8 -1.3
v -0.1 0.9 -1.3
v 0.1 0.8 -1.3
v 0.1 0.9 -1.3
v -0.2 0.7 -1.4
v -0.2 0.8 -1.4
v 0.2 0.7 -1.4
v 0.2 0.8 -1.4
v -0.4 0.1 -1.6
v -0.4 0.6 -1.6
v -0.3 0 -1.6
v -0.3 0.1 -1.6
v -0.3 0.6 -1.6
v -0.3 0.7 -1.6
v -0.2 0.2 -1.6
v -0.2 0.5 -1.6
v 0.2 0.2 -1.6
v 0.2 0.5 -1.6
v 0.3 0 -1.6
v 0.3 0.1 -1.6
v 0.3 0.6 -1.6
v 0.3 0.7 -1.6
v 0.4 0.1 -1.6
v 0.4 0.6 -1.6
v -0.3 0 1.6
v 0.3 0 1.6
v -0.3 0 -1.6
v 0.3 0 -1.6
v -0.4 0.1 1.6
v -0.3 0.1 1.6
v 0.3 0.1 1.6
v 0.4 0.1 1.6
v -0.4 0.1 -1.6
v -0.3 0.1 -1.6
v 0.3 0.1 -1.6
v 0.4 0.1 -1.6
v 0.2 0.4 -1.2
v 0.3 0.4 -1.2
v 0.2 0.4 -1.3
v 0.3 0.4 -1.3
v -0.2 0.5 1.6
v 0.2 0.5 1.6
v 0.2 0.5 0.4
v 0.3 0.5 0.4
v 0 0.5 -0.7
v 0.1 0.5 -0.7
v 0.2 0.5 -0.7
v 0.3 0.5 -0.7
v 0.2 0.5 -0.8
v -0.2 0.5 -0.9
v -0.1 0.5 -0.9
v -0.2 0.5 -1.4
v -0.1 0.5 -1.4
v 0 0.5 -1.4
v 0.1 0.5 -1.4
v -0.2 0.5 -1.6
v 0.2 0.5 -1.6
v 0 0.6 -0.7
v 0.1 0.6 -0.7
v 0.2 0.6 -0.7
v 0.3 0.6 -0.7
v -0.2 0.6 -0.9
v -0.1 0.6 -0.9
v -0.2 0.6 -1.4
v -0.1 0.6 -1.4
v 0 0.6 -1.4
v 0.1 0.6 -1.4
v 0.2 0.6 -1.4
v 0.3 0.6 -1.4
v -0.2 0.2 1.6
v 0.2 0.2 1.6
v -0.2 0.2 -1.6
v 0.2 0.2 -1.6
v 0.2 0.3 -1.2
v 0.3 0.3 -1.2
v 0.2 0.3 -1.3
v 0.3 0.3 -1.3
v 0.2 0.4 0.4
v 0.3 0.4 0.4
v 0.2 0.4 -0.8
v 0.3 0.4 -0.8
v 0.2 0.5 -0.8
v 0.3 0.5 -0.8
v 0.2 0.5 -1.4
v 0.3 0.5 -1.4
v -0.4 0.6 1.6
v -0.3 0.6 1.6
v 0.3 0.6 1.6
v 0.4 0.6 1.6
v -0.4 0.6 -1.6
v -0.3 0.6 -1.6
v 0.3 0.6 -1.6
v 0.4 0.6 -1.6
v -0.3 0.7 1.6
v 0.3 0.7 1.6
v -0.2 0.7 -1
v 0.2 0.7 -1
v -0.2 0.7 -1.4
v 0.2 0.7 -1.4
v -0.3 0.7 -1.6
v 0.3 0.7 -1.6
v -0.2 0.8 -1
v 0.2 0.8 -1
v -0.1 0.8 -1.1
v 0.1 0.8 -1.1
v -0.1 0.8 -1.3
v 0.1 0.8 -1.3
v -0.2 0.8 -1.4
v 0.2 0.8 -1.4
v -0.1 0.9 -1.1
v 0.1 0.9 -1.1
v -0.1 0.9 -1.3
v 0.1 0.9 -1.3

# faces
f 3/2/1 2/2/1 1/2/1
f 4/2/1 2/2/1 3/2/1
f 7/2/1 6/2/1 5/2/1
f 8/2/1 6/2/1 7/2/1
f 11/2/1 10/2/1 9/2/1
f 12/2/1 10/2/1 11/2/1
f 15/1/1 14/1/1 13/1/1
f 16/1/1 14/1/1 15/1/1
f 19/2/1 18/2/1 17/2/1
f 20/2/1 18/2/1 19/2/1
f 23/1/1 22/1/1 21/1/1
f 24/1/1 22/1/1 23/1/1
f 27/2/1 26/2/1 25/2/1
f 28/2/1 26/2/1 27/2/1
f 31/2/1 30/2/1 29/2/1
f 32/2/1 30/2/1 31/2/1
f 33/2/1 31/2/1 29/2/1
f 34/2/1 31/2/1 33/2/1
f 35/2/1 31/2/1 34/2/1
f 36/2/1 30/2/1 32/2/1
f 37/2/1 33/2/1 29/2/1
f 38/2/1 33/2/1 37/2/1
f 39/2/1 35/2/1 34/2/1
f 39/2/1 36/2/1 35/2/1
f 40/2/1 30/2/1 36/2/1
f 40/2/1 36/2/1 39/2/1
f 45/2/1 42/2/1 41/2/1
f 46/2/1 42/2/1 45/2/1
f 47/2/1 44/2/1 43/2/1
f 48/2/1 44/2/1 47/2/1
f 49/2/1 44/2/1 48/2/1
f 51/2/1 49/2/1 48/2/1
f 51/2/1 50/2/1 49/2/1
f 52/2/1 50/2/1 51/2/1
f 53/2/2 54/2/2 55/2/2
f 55/2/2 54/2/2 56/2/2
f 56/2/2 54/2/2 57/2/2
f 57/2/2 54/2/2 58/2/2
f 56/2/2 57/2/2 59/2/2
f 59/2/2 57/2/2 60/2/2
f 61/2/2 62/2/2 63/2/2
f 63/2/2 62/2/2 64/2/2
f 65/1/2 66/1/2 67/1/2
f 67/1/2 66/1/2 68/1/2
f 69/2/2 70/2/2 72/2/2
f 70/2/2 71/2/2 72/2/2
f 72/2/2 71/2/2 73/2/2
f 74/1/2 75/1/2 76/1/2
f 76/1/2 75/1/2 77/1/2
f 78/2/2 79/2/2 80/2/2
f 80/2/2 79/2/2 81/2/2
f 82/2/2 83/2/2 84/2/2
f 84/2/2 83/2/2 85/2/2
f 86/2/2 87/2/2 88/2/2
f 88/2/2 87/2/2 89/2/2
f 93/2/3 91/2/3 90/2/3
f 94/2/3 91/2/3 93/2/3
f 96/2/3 93/2/3 92/2/3
f 96/2/3 95/2/3 94/2/3
f 96/2/3 94/2/3 93/2/3
f 97/2/3 95/2/3 96/2/3
f 98/2/3 96/2/3 92/2/3
f 99/2/3 95/2/3 97/2/3
f 100/2/3 98/2/3 92/2/3
f 100/2/3 99/2/3 98/2/3
f 101/2/3 99/2/3 100/2/3
f 102/2/3 95/2/3 99/2/3
f 102/2/3 99/2/3 101/2/3
f 103/2/3 95/2/3 102/2/3
f 104/2/3 102/2/3 101/2/3
f 105/2/3 102/2/3 104/2/3
f 108/2/3 107/2/3 106/2/3
f 109/2/3 107/2/3 108/2/3
f 112/1/3 111/1/3 110/1/3
f 113/1/3 111/1/3 112/1/3
f 116/1/3 115/1/3 114/1/3
f 117/1/3 115/1/3 116/1/3
f 120/2/3 119/2/3 118/2/3
f 121/2/3 119/2/3 120/2/3
f 124/2/3 123/2/3 122/2/3
f 125/2/3 123/2/3 124/2/3
f 128/2/3 127/2/3 126/2/3
f 129/2/3 127/2/3 128/2/3
f 132/2/3 131/2/3 130/2/3
f 133/2/3 131/2/3 132/2/3
f 134/2/4 135/2/4 136/2/4
f 136/2/4 135/2/4 137/2/4
f 138/2/4 139/2/4 140/2/4
f 140/2/4 139/2/4 141/2/4
f 142/2/4 143/2/4 144/2/4
f 144/2/4 143/2/4 145/2/4
f 146/2/4 147/2/4 148/2/4
f 148/2/4 147/2/4 149/2/4
f 150/2/4 151/2/4 152/2/4
f 152/2/4 151/2/4 153/2/4
f 154/1/4 155/1/4 156/1/4
f 156/1/4 155/1/4 157/1/4
f 158/1/4 159/1/4 160/1/4
f 160/1/4 159/1/4 161/1/4
f 162/2/4 163/2/4 165/2/4
f 165/2/4 163/2/4 166/2/4
f 164/2/4 165/2/4 168/2/4
f 166/2/4 167/2/4 168/2/4
f 165/2/4 166/2/4 168/2/4
f 168/2/4 167/2/4 169/2/4
f 164/2/4 168/2/4 170/2/4
f 169/2/4 167/2/4 171/2/4
f 164/2/4 170/2/4 172/2/4
f 170/2/4 171/2/4 172/2/4
f 172/2/4 171/2/4 173/2/4
f 171/2/4 167/2/4 174/2/4
f 173/2/4 171/2/4 174/2/4
f 174/2/4 167/2/4 175/2/4
f 173/2/4 174/2/4 176/2/4
f 176/2/4 174/2/4 177/2/4
f 180/2/5 179/2/5 178/2/5
f 181/2/5 179/2/5 180/2/5
f 186/2/5 183/2/5 182/2/5
f 187/2/5 183/2/5 186/2/5
f 188/2/5 185/2/5 184/2/5
f 189/2/5 185/2/5 188/2/5
f 192/2/5 191/2/5 190/2/5
f 193/2/5 191/2/5 192/2/5
f 196/2/5 195/2/5 194/2/5
f 198/2/5 196/2/5 194/2/5
f 198/2/5 197/2/5 196/2/5
f 199/2/5 197/2/5 198/2/5
f 200/2/5 197/2/5 199/2/5
f 201/2/5 197/2/5 200/2/5
f 202/2/5 200/2/5 199/2/5
f 203/2/5 198/2/5 194/2/5
f 204/2/5 198/2/5 203/2/5
f 206/2/5 198/2/5 204/2/5
f 207/2/5 198/2/5 206/2/5
f 208/2/5 202/2/5 199/2/5
f 209/2/5 207/2/5 206/2/5
f 209/2/5 208/2/5 207/2/5
f 209/2/5 206/2/5 205/2/5
f 210/2/5 202/2/5 208/2/5
f 210/2/5 208/2/5 209/2/5
f 217/2/5 216/2/5 215/2/5
f 218/2/5 216/2/5 217/2/5
f 219/2/5 212/2/5 211/2/5
f 220/2/5 212/2/5 219/2/5
f 221/2/5 214/2/5 213/2/5
f 222/2/5 214/2/5 221/2/5
f 223/2/6 224/2/6 225/2/6
f 225/2/6 224/2/6 226/2/6
f 227/2/6 228/2/6 229/2/6
f 229/2/6 228/2/6 230/2/6
f 231/2/6 232/2/6 233/2/6
f 233/2/6 232/2/6 234/2/6
f 235/2/6 236/2/6 237/2/6
f 237/2/6 236/2/6 238/2/6
f 239/2/6 240/2/6 243/2/6
f 243/2/6 240/2/6 244/2/6
f 241/2/6 242/2/6 245/2/6
f 245/2/6 242/2/6 246/2/6
f 247/2/6 248/2/6 249/2/6
f 249/2/6 248/2/6 250/2/6
f 247/2/6 249/2/6 251/2/6
f 250/2/6 248/2/6 252/2/6
f 247/2/6 251/2/6 253/2/6
f 251/2/6 252/2/6 253/2/6
f 252/2/6 248/2/6 254/2/6
f 253/2/6 252/2/6 254/2/6
f 255/1/6 256/1/6 257/1/6
f 257/1/6 256/1/6 258/1/6
f 255/1/6 257/1/6 259/1/6
f 258/1/6 256/1/6 260/1/6
f 255/1/6 259/1/6 261/1/6
f 259/1/6 260/1/6 261/1/6
f 260/1/6 256/1/6 262/1/6
f 261/1/6 260/1/6 262/1/6
f 263/1/6 264/1/6 265/1/6
f 265/1/6 264/1/6 266/1/6
