# MagicaVoxel @ Ephtracy

# group
o 

# material
mtllib bag.mtl
usemtl palette

# normals
vn -1 0 0
vn 1 0 0
vn 0 0 1
vn 0 0 -1
vn 0 -1 0
vn 0 1 0

# texcoords
vt 0.00195313 0.5
vt 0.00976563 0.5
vt 0.0253906 0.5

# verts
v -1.4 0 0.6
v -1.4 0 -0.6
v -1.4 0.1 0.7
v -1.4 0.1 0.6
v -1.4 0.1 -0.6
v -1.4 0.1 -0.7
v -1.4 0.2 0.8
v -1.4 0.2 0.7
v -1.4 0.2 -0.7
v -1.4 0.2 -0.8
v -1.4 0.5 0.8
v -1.4 0.5 0.7
v -1.4 0.5 -0.7
v -1.4 0.5 -0.8
v -1.4 0.6 0.7
v -1.4 0.6 0.6
v -1.4 0.6 -0.6
v -1.4 0.6 -0.7
v -1.4 0.7 0.6
v -1.4 0.7 0.5
v -1.4 0.7 -0.5
v -1.4 0.7 -0.6
v -1.4 0.8 0.5
v -1.4 0.8 -0.5
v 0.8 0.6 0.4
v 0.8 0.6 0.2
v 0.8 0.6 0
v 0.8 0.6 -0.2
v 0.8 0.7 0.4
v 0.8 0.7 0.2
v 0.8 0.7 0
v 0.8 0.7 -0.2
v 0.9 0.6 0.2
v 0.9 0.6 0.1
v 0.9 0.7 0.2
v 0.9 0.7 0.1
v 1 0.6 0.1
v 1 0.6 0
v 1 0.7 0.1
v 1 0.7 0
v 1.3 0.3 0.3
v 1.3 0.3 0.2
v 1.3 0.3 -0.2
v 1.3 0.3 -0.3
v 1.3 0.5 0.3
v 1.3 0.5 0.2
v 1.3 0.5 -0.2
v 1.3 0.5 -0.3
v -0.4 0.7 0.5
v -0.4 0.7 -0.5
v -0.4 0.8 0.5
v -0.4 0.8 -0.5
v 0.5 0.2 0.8
v 0.5 0.2 0.7
v 0.5 0.2 -0.7
v 0.5 0.2 -0.8
v 0.5 0.5 0.8
v 0.5 0.5 0.7
v 0.5 0.5 -0.7
v 0.5 0.5 -0.8
v 0.7 0 0.6
v 0.7 0 -0.6
v 0.7 0.1 0.6
v 0.7 0.1 -0.6
v 0.7 0.6 0.6
v 0.7 0.6 -0.6
v 0.7 0.7 0.6
v 0.7 0.7 -0.6
v 0.8 0.1 0.7
v 0.8 0.1 0.6
v 0.8 0.1 -0.6
v 0.8 0.1 -0.7
v 0.8 0.6 0.7
v 0.8 0.6 0.6
v 0.8 0.6 -0.6
v 0.8 0.6 -0.7
v 0.9 0.1 0.6
v 0.9 0.1 -0.6
v 0.9 0.2 0.6
v 0.9 0.2 -0.6
v 0.9 0.6 0.4
v 0.9 0.6 0.3
v 0.9 0.6 -0.1
v 0.9 0.6 -0.2
v 0.9 0.7 0.4
v 0.9 0.7 0.3
v 0.9 0.7 -0.1
v 0.9 0.7 -0.2
v 1 0.2 0.6
v 1 0.2 0.3
v 1 0.2 -0.3
v 1 0.2 -0.6
v 1 0.5 -0.2
v 1 0.5 -0.3
v 1 0.6 0.6
v 1 0.6 0.3
v 1 0.6 0.2
v 1 0.6 -0.2
v 1 0.6 -0.6
v 1 0.7 0.3
v 1 0.7 0.2
v 1.1 0.6 0.2
v 1.1 0.6 -0.1
v 1.1 0.7 0.2
v 1.1 0.7 -0.1
v 1.2 0.2 0.3
v 1.2 0.2 -0.3
v 1.2 0.3 0.2
v 1.2 0.3 -0.2
v 1.2 0.5 0.2
v 1.2 0.5 -0.2
v 1.2 0.5 -0.3
v 1.2 0.6 0.3
v 1.2 0.6 -0.2
v 1.4 0.3 0.1
v 1.4 0.3 -0.1
v 1.4 0.5 0.1
v 1.4 0.5 -0.1
v 1.5 0.3 0.3
v 1.5 0.3 0.1
v 1.5 0.3 -0.1
v 1.5 0.3 -0.3
v 1.5 0.5 0.3
v 1.5 0.5 0.1
v 1.5 0.5 -0.1
v 1.5 0.5 -0.3
v -1.4 0.2 0.8
v -1.4 0.5 0.8
v 0.5 0.2 0.8
v 0.5 0.5 0.8
v -1.4 0.1 0.7
v -1.4 0.2 0.7
v -1.4 0.5 0.7
v -1.4 0.6 0.7
v 0.5 0.2 0.7
v 0.5 0.5 0.7
v 0.8 0.1 0.7
v 0.8 0.6 0.7
v -1.4 0 0.6
v -1.4 0.1 0.6
v -1.4 0.6 0.6
v -1.4 0.7 0.6
v 0.7 0 0.6
v 0.7 0.1 0.6
v 0.7 0.6 0.6
v 0.7 0.7 0.6
v 0.8 0.1 0.6
v 0.8 0.6 0.6
v 0.9 0.1 0.6
v 0.9 0.2 0.6
v 1 0.2 0.6
v 1 0.6 0.6
v -1.4 0.7 0.5
v -1.4 0.8 0.5
v -0.4 0.7 0.5
v -0.4 0.8 0.5
v 0.8 0.6 0.4
v 0.8 0.7 0.4
v 0.9 0.6 0.4
v 0.9 0.7 0.4
v 0.9 0.6 0.3
v 0.9 0.7 0.3
v 1 0.2 0.3
v 1 0.6 0.3
v 1 0.7 0.3
v 1.2 0.2 0.3
v 1.2 0.6 0.3
v 1.3 0.3 0.3
v 1.3 0.5 0.3
v 1.5 0.3 0.3
v 1.5 0.5 0.3
v 1 0.6 0.2
v 1 0.7 0.2
v 1.1 0.6 0.2
v 1.1 0.7 0.2
v 1.2 0.3 0.2
v 1.2 0.5 0.2
v 1.3 0.3 0.2
v 1.3 0.5 0.2
v 0.8 0.6 0
v 0.8 0.7 0
v 1 0.6 0
v 1 0.7 0
v 1.4 0.3 -0.1
v 1.4 0.5 -0.1
v 1.5 0.3 -0.1
v 1.5 0.5 -0.1
v 0.8 0.6 0.2
v 0.8 0.7 0.2
v 0.9 0.6 0.2
v 0.9 0.7 0.2
v 0.9 0.6 0.1
v 0.9 0.7 0.1
v 1 0.6 0.1
v 1 0.7 0.1
v 1.4 0.3 0.1
v 1.4 0.5 0.1
v 1.5 0.3 0.1
v 1.5 0.5 0.1
v 0.9 0.6 -0.1
v 0.9 0.7 -0.1
v 1 0.6 -0.1
v 1.1 0.6 -0.1
v 1.1 0.7 -0.1
v 0.8 0.6 -0.2
v 0.8 0.7 -0.2
v 0.9 0.6 -0.2
v 0.9 0.7 -0.2
v 1 0.5 -0.2
v 1 0.6 -0.2
v 1.2 0.3 -0.2
v 1.2 0.5 -0.2
v 1.2 0.6 -0.2
v 1.3 0.3 -0.2
v 1.3 0.5 -0.2
v 1 0.2 -0.3
v 1 0.5 -0.3
v 1.2 0.2 -0.3
v 1.2 0.5 -0.3
v 1.3 0.3 -0.3
v 1.3 0.5 -0.3
v 1.5 0.3 -0.3
v 1.5 0.5 -0.3
v -1.4 0.7 -0.5
v -1.4 0.8 -0.5
v -0.4 0.7 -0.5
v -0.4 0.8 -0.5
v -1.4 0 -0.6
v -1.4 0.1 -0.6
v -1.4 0.6 -0.6
v -1.4 0.7 -0.6
v 0.7 0 -0.6
v 0.7 0.1 -0.6
v 0.7 0.6 -0.6
v 0.7 0.7 -0.6
v 0.8 0.1 -0.6
v 0.8 0.6 -0.6
v 0.9 0.1 -0.6
v 0.9 0.2 -0.6
v 1 0.2 -0.6
v 1 0.6 -0.6
v -1.4 0.1 -0.7
v -1.4 0.2 -0.7
v -1.4 0.5 -0.7
v -1.4 0.6 -0.7
v 0.5 0.2 -0.7
v 0.5 0.5 -0.7
v 0.8 0.1 -0.7
v 0.8 0.6 -0.7
v -1.4 0.2 -0.8
v -1.4 0.5 -0.8
v 0.5 0.2 -0.8
v 0.5 0.5 -0.8
v -1.4 0 0.6
v 0.7 0 0.6
v -1.4 0 -0.6
v 0.7 0 -0.6
v -1.4 0.1 0.7
v 0.8 0.1 0.7
v -1.4 0.1 0.6
v 0.7 0.1 0.6
v 0.8 0.1 0.6
v 0.9 0.1 0.6
v -1.4 0.1 -0.6
v 0.7 0.1 -0.6
v 0.8 0.1 -0.6
v 0.9 0.1 -0.6
v -1.4 0.1 -0.7
v 0.8 0.1 -0.7
v -1.4 0.2 0.8
v 0.5 0.2 0.8
v -1.4 0.2 0.7
v 0.5 0.2 0.7
v 0.9 0.2 0.6
v 1 0.2 0.6
v 1 0.2 0.3
v 1.2 0.2 0.3
v 1 0.2 -0.3
v 1.2 0.2 -0.3
v 0.9 0.2 -0.6
v 1 0.2 -0.6
v -1.4 0.2 -0.7
v 0.5 0.2 -0.7
v -1.4 0.2 -0.8
v 0.5 0.2 -0.8
v 1.3 0.3 0.3
v 1.5 0.3 0.3
v 1.2 0.3 0.2
v 1.3 0.3 0.2
v 1.4 0.3 0.1
v 1.5 0.3 0.1
v 1.4 0.3 -0.1
v 1.5 0.3 -0.1
v 1.2 0.3 -0.2
v 1.3 0.3 -0.2
v 1.3 0.3 -0.3
v 1.5 0.3 -0.3
v -1.4 0.5 0.8
v 0.5 0.5 0.8
v -1.4 0.5 0.7
v 0.5 0.5 0.7
v 1.3 0.5 0.3
v 1.5 0.5 0.3
v 1.2 0.5 0.2
v 1.3 0.5 0.2
v 1.4 0.5 0.1
v 1.5 0.5 0.1
v 1.4 0.5 -0.1
v 1.5 0.5 -0.1
v 1 0.5 -0.2
v 1.2 0.5 -0.2
v 1.3 0.5 -0.2
v 1 0.5 -0.3
v 1.2 0.5 -0.3
v 1.3 0.5 -0.3
v 1.5 0.5 -0.3
v -1.4 0.5 -0.7
v 0.5 0.5 -0.7
v -1.4 0.5 -0.8
v 0.5 0.5 -0.8
v -1.4 0.6 0.7
v 0.8 0.6 0.7
v -1.4 0.6 0.6
v 0.7 0.6 0.6
v 0.8 0.6 0.6
v 1 0.6 0.6
v 0.8 0.6 0.4
v 0.9 0.6 0.4
v 0.9 0.6 0.3
v 1 0.6 0.3
v 1.2 0.6 0.3
v 0.8 0.6 0.2
v 0.9 0.6 0.2
v 1 0.6 0.2
v 1.1 0.6 0.2
v 0.9 0.6 0.1
v 1 0.6 0.1
v 0.8 0.6 0
v 1 0.6 0
v 0.9 0.6 -0.1
v 1 0.6 -0.1
v 1.1 0.6 -0.1
v 0.8 0.6 -0.2
v 0.9 0.6 -0.2
v 1 0.6 -0.2
v 1.2 0.6 -0.2
v -1.4 0.6 -0.6
v 0.7 0.6 -0.6
v 0.8 0.6 -0.6
v 1 0.6 -0.6
v -1.4 0.6 -0.7
v 0.8 0.6 -0.7
v -1.4 0.7 0.6
v 0.7 0.7 0.6
v -1.4 0.7 0.5
v -0.4 0.7 0.5
v 0.8 0.7 0.4
v 0.9 0.7 0.4
v 0.9 0.7 0.3
v 1 0.7 0.3
v 0.8 0.7 0.2
v 0.9 0.7 0.2
v 1 0.7 0.2
v 1.1 0.7 0.2
v 0.9 0.7 0.1
v 1 0.7 0.1
v 0.8 0.7 0
v 1 0.7 0
v 0.9 0.7 -0.1
v 1.1 0.7 -0.1
v 0.8 0.7 -0.2
v 0.9 0.7 -0.2
v -1.4 0.7 -0.5
v -0.4 0.7 -0.5
v -1.4 0.7 -0.6
v 0.7 0.7 -0.6
v -1.4 0.8 0.5
v -0.4 0.8 0.5
v -1.4 0.8 -0.5
v -0.4 0.8 -0.5

# faces
f 4/2/1 2/2/1 1/2/1
f 5/2/1 2/2/1 4/2/1
f 8/2/1 4/2/1 3/2/1
f 8/2/1 6/2/1 5/2/1
f 8/2/1 5/2/1 4/2/1
f 9/2/1 6/2/1 8/2/1
f 11/2/1 8/2/1 7/2/1
f 11/2/1 10/2/1 9/2/1
f 11/2/1 9/2/1 8/2/1
f 12/2/1 10/2/1 11/2/1
f 13/2/1 10/2/1 12/2/1
f 14/2/1 10/2/1 13/2/1
f 15/2/1 13/2/1 12/2/1
f 16/2/1 13/2/1 15/2/1
f 17/2/1 13/2/1 16/2/1
f 18/2/1 13/2/1 17/2/1
f 19/2/1 17/2/1 16/2/1
f 20/2/1 17/2/1 19/2/1
f 21/2/1 17/2/1 20/2/1
f 22/2/1 17/2/1 21/2/1
f 23/2/1 21/2/1 20/2/1
f 24/2/1 21/2/1 23/2/1
f 29/3/1 26/3/1 25/3/1
f 30/3/1 26/3/1 29/3/1
f 31/3/1 28/3/1 27/3/1
f 32/3/1 28/3/1 31/3/1
f 35/3/1 34/3/1 33/3/1
f 36/3/1 34/3/1 35/3/1
f 39/3/1 38/3/1 37/3/1
f 40/3/1 38/3/1 39/3/1
f 45/2/1 42/2/1 41/2/1
f 46/2/1 42/2/1 45/2/1
f 47/2/1 44/2/1 43/2/1
f 48/2/1 44/2/1 47/2/1
f 49/2/2 50/2/2 51/2/2
f 51/2/2 50/2/2 52/2/2
f 53/2/2 54/2/2 57/2/2
f 57/2/2 54/2/2 58/2/2
f 55/2/2 56/2/2 59/2/2
f 59/2/2 56/2/2 60/2/2
f 61/2/2 62/2/2 63/2/2
f 63/2/2 62/2/2 64/2/2
f 65/2/2 66/2/2 67/2/2
f 67/2/2 66/2/2 68/2/2
f 69/2/2 70/2/2 73/2/2
f 73/2/2 70/2/2 74/2/2
f 71/2/2 72/2/2 75/2/2
f 75/2/2 72/2/2 76/2/2
f 77/2/2 78/2/2 79/2/2
f 79/2/2 78/2/2 80/2/2
f 81/3/2 82/3/2 85/3/2
f 85/3/2 82/3/2 86/3/2
f 83/3/2 84/3/2 87/3/2
f 87/3/2 84/3/2 88/3/2
f 91/2/2 92/2/2 94/2/2
f 89/2/2 90/2/2 95/2/2
f 95/2/2 90/2/2 96/2/2
f 93/2/2 94/2/2 98/2/2
f 94/2/2 92/2/2 99/2/2
f 98/2/2 94/2/2 99/2/2
f 96/3/2 97/3/2 100/3/2
f 100/3/2 97/3/2 101/3/2
f 102/3/2 103/3/2 104/3/2
f 104/3/2 103/3/2 105/3/2
f 106/3/2 107/3/2 108/3/2
f 108/3/2 107/3/2 109/3/2
f 106/3/2 108/3/2 110/3/2
f 109/3/2 107/3/2 111/3/2
f 111/3/2 107/3/2 112/3/2
f 106/3/2 110/3/2 113/3/2
f 110/3/2 111/3/2 113/3/2
f 113/3/2 111/3/2 114/3/2
f 115/2/2 116/2/2 117/2/2
f 117/2/2 116/2/2 118/2/2
f 119/2/2 120/2/2 123/2/2
f 123/2/2 120/2/2 124/2/2
f 121/2/2 122/2/2 125/2/2
f 125/2/2 122/2/2 126/2/2
f 129/2/3 128/2/3 127/2/3
f 130/2/3 128/2/3 129/2/3
f 135/2/3 132/2/3 131/2/3
f 136/2/3 134/2/3 133/2/3
f 137/2/3 135/2/3 131/2/3
f 137/2/3 136/2/3 135/2/3
f 138/2/3 134/2/3 136/2/3
f 138/2/3 136/2/3 137/2/3
f 143/2/3 140/2/3 139/2/3
f 144/2/3 140/2/3 143/2/3
f 145/2/3 142/2/3 141/2/3
f 146/2/3 142/2/3 145/2/3
f 149/2/3 148/2/3 147/2/3
f 150/2/3 148/2/3 149/2/3
f 151/2/3 148/2/3 150/2/3
f 152/2/3 148/2/3 151/2/3
f 155/2/3 154/2/3 153/2/3
f 156/2/3 154/2/3 155/2/3
f 159/3/3 158/3/3 157/3/3
f 160/3/3 158/3/3 159/3/3
f 164/3/3 162/3/3 161/3/3
f 165/3/3 162/3/3 164/3/3
f 166/3/3 164/3/3 163/3/3
f 167/3/3 164/3/3 166/3/3
f 170/2/3 169/2/3 168/2/3
f 171/2/3 169/2/3 170/2/3
f 174/3/3 173/3/3 172/3/3
f 175/3/3 173/3/3 174/3/3
f 178/2/3 177/2/3 176/2/3
f 179/2/3 177/2/3 178/2/3
f 182/3/3 181/3/3 180/3/3
f 183/3/3 181/3/3 182/3/3
f 186/2/3 185/2/3 184/2/3
f 187/2/3 185/2/3 186/2/3
f 188/3/4 189/3/4 190/3/4
f 190/3/4 189/3/4 191/3/4
f 192/3/4 193/3/4 194/3/4
f 194/3/4 193/3/4 195/3/4
f 196/2/4 197/2/4 198/2/4
f 198/2/4 197/2/4 199/2/4
f 200/3/4 201/3/4 202/3/4
f 202/3/4 201/3/4 203/3/4
f 203/3/4 201/3/4 204/3/4
f 205/3/4 206/3/4 207/3/4
f 207/3/4 206/3/4 208/3/4
f 209/3/4 210/3/4 212/3/4
f 212/3/4 210/3/4 213/3/4
f 211/2/4 212/2/4 214/2/4
f 214/2/4 212/2/4 215/2/4
f 216/3/4 217/3/4 218/3/4
f 218/3/4 217/3/4 219/3/4
f 220/2/4 221/2/4 222/2/4
f 222/2/4 221/2/4 223/2/4
f 224/2/4 225/2/4 226/2/4
f 226/2/4 225/2/4 227/2/4
f 228/2/4 229/2/4 232/2/4
f 232/2/4 229/2/4 233/2/4
f 230/2/4 231/2/4 234/2/4
f 234/2/4 231/2/4 235/2/4
f 236/2/4 237/2/4 238/2/4
f 238/2/4 237/2/4 239/2/4
f 239/2/4 237/2/4 240/2/4
f 240/2/4 237/2/4 241/2/4
f 242/2/4 243/2/4 246/2/4
f 244/2/4 245/2/4 247/2/4
f 242/2/4 246/2/4 248/2/4
f 246/2/4 247/2/4 248/2/4
f 247/2/4 245/2/4 249/2/4
f 248/2/4 247/2/4 249/2/4
f 250/2/4 251/2/4 252/2/4
f 252/2/4 251/2/4 253/2/4
f 256/2/5 255/2/5 254/2/5
f 257/2/5 255/2/5 256/2/5
f 260/2/5 259/2/5 258/2/5
f 261/2/5 259/2/5 260/2/5
f 262/2/5 259/2/5 261/2/5
f 265/2/5 263/2/5 262/2/5
f 265/2/5 262/2/5 261/2/5
f 266/2/5 263/2/5 265/2/5
f 267/2/5 263/2/5 266/2/5
f 268/2/5 265/2/5 264/2/5
f 268/2/5 266/2/5 265/2/5
f 269/2/5 266/2/5 268/2/5
f 272/2/5 271/2/5 270/2/5
f 273/2/5 271/2/5 272/2/5
f 276/2/5 275/2/5 274/2/5
f 278/2/5 276/2/5 274/2/5
f 278/3/5 277/3/5 276/3/5
f 279/3/5 277/3/5 278/3/5
f 280/2/5 278/2/5 274/2/5
f 281/2/5 278/2/5 280/2/5
f 284/2/5 283/2/5 282/2/5
f 285/2/5 283/2/5 284/2/5
f 289/2/5 287/2/5 286/2/5
f 290/2/5 287/2/5 289/2/5
f 290/2/5 289/2/5 288/2/5
f 291/2/5 287/2/5 290/2/5
f 292/2/5 290/2/5 288/2/5
f 294/2/5 292/2/5 288/2/5
f 294/2/5 293/2/5 292/2/5
f 295/2/5 293/2/5 294/2/5
f 296/2/5 293/2/5 295/2/5
f 297/2/5 293/2/5 296/2/5
f 298/2/6 299/2/6 300/2/6
f 300/2/6 299/2/6 301/2/6
f 302/2/6 303/2/6 305/2/6
f 305/2/6 303/2/6 306/2/6
f 304/2/6 305/2/6 306/2/6
f 306/2/6 303/2/6 307/2/6
f 304/2/6 306/2/6 308/2/6
f 304/2/6 308/2/6 311/2/6
f 308/2/6 309/2/6 311/2/6
f 311/2/6 309/2/6 312/2/6
f 310/3/6 311/3/6 313/3/6
f 313/3/6 311/3/6 314/3/6
f 312/2/6 309/2/6 315/2/6
f 315/2/6 309/2/6 316/2/6
f 317/2/6 318/2/6 319/2/6
f 319/2/6 318/2/6 320/2/6
f 321/2/6 322/2/6 323/2/6
f 323/2/6 322/2/6 324/2/6
f 324/2/6 322/2/6 325/2/6
f 325/2/6 326/2/6 327/2/6
f 324/2/6 325/2/6 327/2/6
f 327/2/6 326/2/6 328/2/6
f 328/2/6 326/2/6 329/2/6
f 329/2/6 326/2/6 330/2/6
f 324/2/6 327/2/6 332/2/6
f 330/3/6 331/3/6 334/3/6
f 334/3/6 331/3/6 335/3/6
f 332/2/6 333/2/6 336/2/6
f 324/2/6 332/2/6 338/2/6
f 336/2/6 337/2/6 338/2/6
f 332/2/6 336/2/6 338/2/6
f 338/2/6 337/2/6 339/2/6
f 335/3/6 331/3/6 342/3/6
f 324/2/6 338/2/6 343/2/6
f 340/2/6 341/2/6 344/2/6
f 341/3/6 342/3/6 345/3/6
f 344/2/6 341/2/6 345/2/6
f 342/3/6 331/3/6 346/3/6
f 345/3/6 342/3/6 346/3/6
f 324/2/6 343/2/6 348/2/6
f 343/2/6 344/2/6 348/2/6
f 344/2/6 345/2/6 348/2/6
f 348/2/6 345/2/6 349/2/6
f 349/2/6 345/2/6 350/2/6
f 347/2/6 348/2/6 351/2/6
f 348/2/6 349/2/6 351/2/6
f 351/2/6 349/2/6 352/2/6
f 353/2/6 354/2/6 355/2/6
f 355/2/6 354/2/6 356/2/6
f 357/3/6 358/3/6 359/3/6
f 357/3/6 359/3/6 361/3/6
f 359/3/6 360/3/6 361/3/6
f 361/3/6 360/3/6 362/3/6
f 362/3/6 360/3/6 363/3/6
f 363/3/6 364/3/6 365/3/6
f 362/3/6 363/3/6 365/3/6
f 365/3/6 364/3/6 366/3/6
f 366/3/6 364/3/6 368/3/6
f 367/3/6 368/3/6 369/3/6
f 368/3/6 364/3/6 370/3/6
f 369/3/6 368/3/6 370/3/6
f 367/3/6 369/3/6 371/3/6
f 371/3/6 369/3/6 372/3/6
f 356/2/6 354/2/6 374/2/6
f 373/2/6 374/2/6 375/2/6
f 374/2/6 354/2/6 376/2/6
f 375/2/6 374/2/6 376/2/6
f 377/2/6 378/2/6 379/2/6
f 379/2/6 378/2/6 380/2/6
