# MagicaVoxel @ Ephtracy

# group
o 

# material
mtllib bench.mtl
usemtl palette

# normals
vn -1 0 0
vn 1 0 0
vn 0 0 1
vn 0 0 -1
vn 0 -1 0
vn 0 1 0

# texcoords
vt 0.00195313 0.5
vt 0.00585938 0.5

# verts
v -1.2 0.5 0.4
v -1.2 0.5 -0.4
v -1.2 0.6 0.4
v -1.2 0.6 -0.4
v -0.9 0 0.4
v -0.9 0 -0.5
v -0.9 0.1 0.4
v -0.9 0.1 -0.5
v -0.8 0.1 0.3
v -0.8 0.1 -0.3
v -0.8 0.5 0.3
v -0.8 0.5 -0.3
v 0.7 0 0.4
v 0.7 0 -0.5
v 0.7 0.1 0.4
v 0.7 0.1 -0.5
v 0.8 0.1 0.3
v 0.8 0.1 -0.3
v 0.8 0.5 0.3
v 0.8 0.5 -0.3
v -0.7 0.1 0.3
v -0.7 0.1 -0.3
v -0.7 0.5 0.3
v -0.7 0.5 -0.3
v -0.6 0 0.4
v -0.6 0 -0.5
v -0.6 0.1 0.4
v -0.6 0.1 -0.5
v 0.9 0.1 0.3
v 0.9 0.1 -0.3
v 0.9 0.5 0.3
v 0.9 0.5 -0.3
v 1 0 0.4
v 1 0 -0.5
v 1 0.1 0.4
v 1 0.1 -0.5
v 1.3 0.5 0.4
v 1.3 0.5 -0.4
v 1.3 0.6 0.4
v 1.3 0.6 -0.4
v -1.2 0.5 0.4
v -1.2 0.6 0.4
v -0.9 0 0.4
v -0.9 0.1 0.4
v -0.6 0 0.4
v -0.6 0.1 0.4
v 0.7 0 0.4
v 0.7 0.1 0.4
v 1 0 0.4
v 1 0.1 0.4
v 1.3 0.5 0.4
v 1.3 0.6 0.4
v -0.8 0.1 0.3
v -0.8 0.5 0.3
v -0.7 0.1 0.3
v -0.7 0.5 0.3
v 0.8 0.1 0.3
v 0.8 0.5 0.3
v 0.9 0.1 0.3
v 0.9 0.5 0.3
v -0.8 0.1 -0.3
v -0.8 0.5 -0.3
v -0.7 0.1 -0.3
v -0.7 0.5 -0.3
v 0.8 0.1 -0.3
v 0.8 0.5 -0.3
v 0.9 0.1 -0.3
v 0.9 0.5 -0.3
v -1.2 0.5 -0.4
v -1.2 0.6 -0.4
v 1.3 0.5 -0.4
v 1.3 0.6 -0.4
v -0.9 0 -0.5
v -0.9 0.1 -0.5
v -0.6 0 -0.5
v -0.6 0.1 -0.5
v 0.7 0 -0.5
v 0.7 0.1 -0.5
v 1 0 -0.5
v 1 0.1 -0.5
v -0.9 0 0.4
v -0.6 0 0.4
v 0.7 0 0.4
v 1 0 0.4
v -0.9 0 -0.5
v -0.6 0 -0.5
v 0.7 0 -0.5
v 1 0 -0.5
v -1.2 0.5 0.4
v 1.3 0.5 0.4
v -0.8 0.5 0.3
v -0.7 0.5 0.3
v 0.8 0.5 0.3
v 0.9 0.5 0.3
v -0.8 0.5 -0.3
v -0.7 0.5 -0.3
v 0.8 0.5 -0.3
v 0.9 0.5 -0.3
v -1.2 0.5 -0.4
v 1.3 0.5 -0.4
v -0.9 0.1 0.4
v -0.6 0.1 0.4
v 0.7 0.1 0.4
v 1 0.1 0.4
v -0.8 0.1 0.3
v -0.7 0.1 0.3
v 0.8 0.1 0.3
v 0.9 0.1 0.3
v -0.8 0.1 -0.3
v -0.7 0.1 -0.3
v 0.8 0.1 -0.3
v 0.9 0.1 -0.3
v -0.9 0.1 -0.5
v -0.6 0.1 -0.5
v 0.7 0.1 -0.5
v 1 0.1 -0.5
v -1.2 0.6 0.4
v 1.3 0.6 0.4
v -0.8 0.6 0.3
v 0.9 0.6 0.3
v -0.8 0.6 -0.3
v 0.9 0.6 -0.3
v -1.2 0.6 -0.4
v 1.3 0.6 -0.4

# faces
f 3/1/1 2/1/1 1/1/1
f 4/1/1 2/1/1 3/1/1
f 7/2/1 6/2/1 5/2/1
f 8/2/1 6/2/1 7/2/1
f 11/2/1 10/2/1 9/2/1
f 12/2/1 10/2/1 11/2/1
f 15/2/1 14/2/1 13/2/1
f 16/2/1 14/2/1 15/2/1
f 19/2/1 18/2/1 17/2/1
f 20/2/1 18/2/1 19/2/1
f 21/2/2 22/2/2 23/2/2
f 23/2/2 22/2/2 24/2/2
f 25/2/2 26/2/2 27/2/2
f 27/2/2 26/2/2 28/2/2
f 29/2/2 30/2/2 31/2/2
f 31/2/2 30/2/2 32/2/2
f 33/2/2 34/2/2 35/2/2
f 35/2/2 34/2/2 36/2/2
f 37/1/2 38/1/2 39/1/2
f 39/1/2 38/1/2 40/1/2
f 45/2/3 44/2/3 43/2/3
f 46/2/3 44/2/3 45/2/3
f 49/2/3 48/2/3 47/2/3
f 50/2/3 48/2/3 49/2/3
f 51/1/3 42/1/3 41/1/3
f 52/1/3 42/1/3 51/1/3
f 55/2/3 54/2/3 53/2/3
f 56/2/3 54/2/3 55/2/3
f 59/2/3 58/2/3 57/2/3
f 60/2/3 58/2/3 59/2/3
f 61/2/4 62/2/4 63/2/4
f 63/2/4 62/2/4 64/2/4
f 65/2/4 66/2/4 67/2/4
f 67/2/4 66/2/4 68/2/4
f 69/1/4 70/1/4 71/1/4
f 71/1/4 70/1/4 72/1/4
f 73/2/4 74/2/4 75/2/4
f 75/2/4 74/2/4 76/2/4
f 77/2/4 78/2/4 79/2/4
f 79/2/4 78/2/4 80/2/4
f 85/2/5 82/2/5 81/2/5
f 86/2/5 82/2/5 85/2/5
f 87/2/5 84/2/5 83/2/5
f 88/2/5 84/2/5 87/2/5
f 91/1/5 90/1/5 89/1/5
f 92/1/5 90/1/5 91/1/5
f 93/1/5 90/1/5 92/1/5
f 94/1/5 90/1/5 93/1/5
f 95/1/5 91/1/5 89/1/5
f 96/2/5 93/2/5 92/2/5
f 97/2/5 93/2/5 96/2/5
f 98/1/5 90/1/5 94/1/5
f 99/1/5 97/1/5 96/1/5
f 99/1/5 98/1/5 97/1/5
f 99/1/5 95/1/5 89/1/5
f 99/1/5 96/1/5 95/1/5
f 100/1/5 90/1/5 98/1/5
f 100/1/5 98/1/5 99/1/5
f 101/2/6 102/2/6 105/2/6
f 105/2/6 102/2/6 106/2/6
f 103/2/6 104/2/6 107/2/6
f 107/2/6 104/2/6 108/2/6
f 101/2/6 105/2/6 109/2/6
f 106/2/6 102/2/6 110/2/6
f 103/2/6 107/2/6 111/2/6
f 108/2/6 104/2/6 112/2/6
f 101/2/6 109/2/6 113/2/6
f 109/2/6 110/2/6 113/2/6
f 110/2/6 102/2/6 114/2/6
f 113/2/6 110/2/6 114/2/6
f 111/2/6 112/2/6 115/2/6
f 103/2/6 111/2/6 115/2/6
f 112/2/6 104/2/6 116/2/6
f 115/2/6 112/2/6 116/2/6
f 117/1/6 118/1/6 119/1/6
f 119/1/6 118/1/6 120/1/6
f 117/1/6 119/1/6 121/1/6
f 119/2/6 120/2/6 121/2/6
f 120/1/6 118/1/6 122/1/6
f 121/2/6 120/2/6 122/2/6
f 117/1/6 121/1/6 123/1/6
f 121/1/6 122/1/6 123/1/6
f 122/1/6 118/1/6 124/1/6
f 123/1/6 122/1/6 124/1/6
