# MagicaVoxel @ Ephtracy

# group
o 

# material
mtllib powerder_maker_2.mtl
usemtl palette

# normals
vn -1 0 0
vn 1 0 0
vn 0 0 1
vn 0 0 -1
vn 0 -1 0
vn 0 1 0

# texcoords
vt 0.00195313 0.5
vt 0.00585938 0.5
vt 0.0214844 0.5

# verts
v -0.4 0 0.2
v -0.4 0 0.1
v -0.4 0 -0.2
v -0.4 0 -0.3
v -0.4 0.1 0.1
v -0.4 0.1 -0.2
v -0.4 0.5 0.2
v -0.4 0.5 0
v -0.4 0.5 -0.3
v -0.4 0.6 0.2
v -0.4 0.6 0
v -0.3 0 0.1
v -0.3 0 -0.2
v -0.3 0.1 0.1
v -0.3 0.1 -0.2
v -0.2 0.4 -0.1
v -0.2 0.4 -0.2
v -0.2 0.5 -0.1
v -0.2 0.5 -0.2
v 0 0 0.2
v 0 0 0.1
v 0 0 -0.2
v 0 0 -0.3
v 0 0.1 0.2
v 0 0.1 0.1
v 0 0.1 -0.2
v 0 0.1 -0.3
v 0 0.4 0.1
v 0 0.4 0
v 0 0.5 0.1
v 0 0.5 0
v 0.4 0 0.1
v 0.4 0 -0.2
v 0.4 0.1 0.1
v 0.4 0.1 -0.2
v -0.3 0 0.2
v -0.3 0 0.1
v -0.3 0 -0.2
v -0.3 0 -0.3
v -0.3 0.1 0.2
v -0.3 0.1 0.1
v -0.3 0.1 -0.2
v -0.3 0.1 -0.3
v -0.3 0.4 0.1
v -0.3 0.4 -0.2
v -0.3 0.5 0.1
v -0.3 0.5 0
v -0.3 0.5 -0.2
v -0.2 0.5 0.2
v -0.2 0.5 0.1
v -0.2 0.5 0
v -0.2 0.6 0.2
v -0.2 0.6 0
v -0.1 0 0.1
v -0.1 0 -0.2
v -0.1 0.1 0.1
v -0.1 0.1 -0.2
v 0 0.2 0
v 0 0.2 -0.1
v 0 0.4 0
v 0 0.4 -0.1
v 0.1 0 0.2
v 0.1 0 0.1
v 0.1 0 -0.2
v 0.1 0 -0.3
v 0.1 0.1 0.1
v 0.1 0.1 -0.2
v 0.1 0.4 0.1
v 0.1 0.4 0
v 0.1 0.4 -0.1
v 0.1 0.4 -0.2
v 0.1 0.5 0.2
v 0.1 0.5 0
v 0.1 0.5 -0.1
v 0.1 0.5 -0.3
v 0.3 0.3 0.1
v 0.3 0.3 0
v 0.3 0.3 -0.1
v 0.3 0.3 -0.2
v 0.3 0.4 0.1
v 0.3 0.4 0
v 0.3 0.4 -0.1
v 0.3 0.4 -0.2
v 0.5 0 0.1
v 0.5 0 -0.2
v 0.5 0.2 0
v 0.5 0.2 -0.1
v 0.5 0.3 0.1
v 0.5 0.3 0
v 0.5 0.3 -0.1
v 0.5 0.3 -0.2
v -0.4 0 0.2
v -0.4 0.5 0.2
v -0.4 0.6 0.2
v -0.3 0 0.2
v -0.3 0.1 0.2
v -0.2 0.5 0.2
v -0.2 0.6 0.2
v 0 0 0.2
v 0 0.1 0.2
v 0.1 0 0.2
v 0.1 0.5 0.2
v -0.3 0 0.1
v -0.3 0.1 0.1
v -0.1 0 0.1
v -0.1 0.1 0.1
v 0.1 0.1 0.1
v 0.1 0.4 0.1
v 0.3 0.3 0.1
v 0.3 0.4 0.1
v 0.4 0 0.1
v 0.4 0.1 0.1
v 0.5 0 0.1
v 0.5 0.3 0.1
v -0.2 0.4 -0.1
v -0.2 0.5 -0.1
v 0 0.2 -0.1
v 0 0.4 -0.1
v 0 0.5 -0.1
v 0.1 0.4 -0.1
v 0.1 0.5 -0.1
v 0.3 0.3 -0.1
v 0.3 0.4 -0.1
v 0.5 0.2 -0.1
v 0.5 0.3 -0.1
v -0.4 0 -0.2
v -0.4 0.1 -0.2
v -0.3 0 -0.2
v -0.3 0.1 -0.2
v -0.3 0.4 -0.2
v -0.3 0.5 -0.2
v -0.2 0.4 -0.2
v -0.2 0.5 -0.2
v 0 0 -0.2
v 0 0.1 -0.2
v 0.1 0 -0.2
v 0.1 0.1 -0.2
v -0.4 0 0.1
v -0.4 0.1 0.1
v -0.3 0 0.1
v -0.3 0.1 0.1
v -0.3 0.4 0.1
v -0.3 0.5 0.1
v -0.2 0.5 0.1
v 0 0 0.1
v 0 0.1 0.1
v 0 0.4 0.1
v 0 0.5 0.1
v 0.1 0 0.1
v 0.1 0.1 0.1
v -0.4 0.5 0
v -0.4 0.6 0
v -0.3 0.5 0
v -0.2 0.5 0
v -0.2 0.6 0
v 0 0.2 0
v 0 0.4 0
v 0 0.5 0
v 0.1 0.4 0
v 0.1 0.5 0
v 0.3 0.3 0
v 0.3 0.4 0
v 0.5 0.2 0
v 0.5 0.3 0
v -0.3 0 -0.2
v -0.3 0.1 -0.2
v -0.1 0 -0.2
v -0.1 0.1 -0.2
v 0.1 0.1 -0.2
v 0.1 0.4 -0.2
v 0.3 0.3 -0.2
v 0.3 0.4 -0.2
v 0.4 0 -0.2
v 0.4 0.1 -0.2
v 0.5 0 -0.2
v 0.5 0.3 -0.2
v -0.4 0 -0.3
v -0.4 0.5 -0.3
v -0.3 0 -0.3
v -0.3 0.1 -0.3
v 0 0 -0.3
v 0 0.1 -0.3
v 0.1 0 -0.3
v 0.1 0.5 -0.3
v -0.4 0 0.2
v -0.3 0 0.2
v 0 0 0.2
v 0.1 0 0.2
v -0.4 0 0.1
v -0.3 0 0.1
v -0.1 0 0.1
v 0 0 0.1
v 0.1 0 0.1
v 0.4 0 0.1
v 0.5 0 0.1
v -0.4 0 -0.2
v -0.3 0 -0.2
v -0.1 0 -0.2
v 0 0 -0.2
v 0.1 0 -0.2
v 0.4 0 -0.2
v 0.5 0 -0.2
v -0.4 0 -0.3
v -0.3 0 -0.3
v 0 0 -0.3
v 0.1 0 -0.3
v -0.3 0.1 0.2
v 0 0.1 0.2
v -0.4 0.1 0.1
v -0.3 0.1 0.1
v -0.1 0.1 0.1
v 0 0.1 0.1
v 0.1 0.1 0.1
v 0.4 0.1 0.1
v -0.4 0.1 -0.2
v -0.3 0.1 -0.2
v -0.1 0.1 -0.2
v 0 0.1 -0.2
v 0.1 0.1 -0.2
v 0.4 0.1 -0.2
v -0.3 0.1 -0.3
v 0 0.1 -0.3
v -0.3 0.5 0.1
v -0.2 0.5 0.1
v -0.3 0.5 0
v -0.2 0.5 0
v 0 0.2 0
v 0.5 0.2 0
v 0 0.2 -0.1
v 0.5 0.2 -0.1
v 0.3 0.3 0.1
v 0.5 0.3 0.1
v 0.3 0.3 0
v 0.5 0.3 0
v 0.3 0.3 -0.1
v 0.5 0.3 -0.1
v 0.3 0.3 -0.2
v 0.5 0.3 -0.2
v -0.3 0.4 0.1
v 0 0.4 0.1
v 0.1 0.4 0.1
v 0.3 0.4 0.1
v 0 0.4 0
v 0.1 0.4 0
v 0.3 0.4 0
v -0.2 0.4 -0.1
v 0 0.4 -0.1
v 0.1 0.4 -0.1
v 0.3 0.4 -0.1
v -0.3 0.4 -0.2
v -0.2 0.4 -0.2
v 0.1 0.4 -0.2
v 0.3 0.4 -0.2
v -0.2 0.5 0.2
v 0.1 0.5 0.2
v -0.2 0.5 0.1
v 0 0.5 0.1
v -0.4 0.5 0
v -0.3 0.5 0
v 0 0.5 0
v 0.1 0.5 0
v -0.2 0.5 -0.1
v 0 0.5 -0.1
v 0.1 0.5 -0.1
v -0.3 0.5 -0.2
v -0.2 0.5 -0.2
v 0 0.5 -0.2
v -0.4 0.5 -0.3
v 0.1 0.5 -0.3
v -0.4 0.6 0.2
v -0.2 0.6 0.2
v -0.4 0.6 0
v -0.2 0.6 0

# faces
f 5/1/1 2/1/1 1/1/1
f 6/1/1 4/1/1 3/1/1
f 7/1/1 5/1/1 1/1/1
f 7/1/1 6/1/1 5/1/1
f 8/1/1 6/1/1 7/1/1
f 9/1/1 4/1/1 6/1/1
f 9/1/1 6/1/1 8/1/1
f 10/2/1 8/2/1 7/2/1
f 11/2/1 8/2/1 10/2/1
f 14/1/1 13/1/1 12/1/1
f 15/1/1 13/1/1 14/1/1
f 18/2/1 17/2/1 16/2/1
f 19/2/1 17/2/1 18/2/1
f 24/1/1 21/1/1 20/1/1
f 25/1/1 21/1/1 24/1/1
f 26/1/1 23/1/1 22/1/1
f 27/1/1 23/1/1 26/1/1
f 30/1/1 29/1/1 28/1/1
f 31/1/1 29/1/1 30/1/1
f 34/1/1 33/1/1 32/1/1
f 35/1/1 33/1/1 34/1/1
f 36/1/2 37/1/2 40/1/2
f 40/1/2 37/1/2 41/1/2
f 38/1/2 39/1/2 42/1/2
f 42/1/2 39/1/2 43/1/2
f 44/1/2 45/1/2 46/1/2
f 46/1/2 45/1/2 47/1/2
f 47/1/2 45/1/2 48/1/2
f 49/2/2 50/2/2 52/2/2
f 50/2/2 51/2/2 52/2/2
f 52/2/2 51/2/2 53/2/2
f 54/1/2 55/1/2 56/1/2
f 56/1/2 55/1/2 57/1/2
f 58/3/2 59/3/2 60/3/2
f 60/3/2 59/3/2 61/3/2
f 62/1/2 63/1/2 66/1/2
f 64/1/2 65/1/2 67/1/2
f 62/1/2 66/1/2 68/1/2
f 67/1/2 65/1/2 71/1/2
f 68/1/2 69/1/2 72/1/2
f 62/1/2 68/1/2 72/1/2
f 72/1/2 69/1/2 73/1/2
f 70/1/2 71/1/2 74/1/2
f 71/1/2 65/1/2 75/1/2
f 74/1/2 71/1/2 75/1/2
f 76/1/2 77/1/2 80/1/2
f 80/1/2 77/1/2 81/1/2
f 78/1/2 79/1/2 82/1/2
f 82/1/2 79/1/2 83/1/2
f 84/1/2 85/1/2 86/1/2
f 86/1/2 85/1/2 87/1/2
f 84/1/2 86/1/2 88/1/2
f 88/1/2 86/1/2 89/1/2
f 87/1/2 85/1/2 90/1/2
f 90/1/2 85/1/2 91/1/2
f 95/1/3 93/1/3 92/1/3
f 96/1/3 93/1/3 95/1/3
f 97/2/3 94/2/3 93/2/3
f 97/1/3 93/1/3 96/1/3
f 98/2/3 94/2/3 97/2/3
f 100/1/3 97/1/3 96/1/3
f 101/1/3 100/1/3 99/1/3
f 102/1/3 97/1/3 100/1/3
f 102/1/3 100/1/3 101/1/3
f 105/1/3 104/1/3 103/1/3
f 106/1/3 104/1/3 105/1/3
f 109/1/3 108/1/3 107/1/3
f 110/1/3 108/1/3 109/1/3
f 112/1/3 109/1/3 107/1/3
f 113/1/3 112/1/3 111/1/3
f 114/1/3 109/1/3 112/1/3
f 114/1/3 112/1/3 113/1/3
f 118/2/3 116/2/3 115/2/3
f 119/2/3 116/2/3 118/2/3
f 120/1/3 118/1/3 117/1/3
f 120/1/3 119/1/3 118/1/3
f 121/1/3 119/1/3 120/1/3
f 122/1/3 120/1/3 117/1/3
f 123/1/3 120/1/3 122/1/3
f 124/1/3 122/1/3 117/1/3
f 125/1/3 122/1/3 124/1/3
f 128/1/3 127/1/3 126/1/3
f 129/1/3 127/1/3 128/1/3
f 132/1/3 131/1/3 130/1/3
f 133/1/3 131/1/3 132/1/3
f 136/1/3 135/1/3 134/1/3
f 137/1/3 135/1/3 136/1/3
f 138/1/4 139/1/4 140/1/4
f 140/1/4 139/1/4 141/1/4
f 142/1/4 143/1/4 144/1/4
f 142/1/4 144/1/4 147/1/4
f 147/1/4 144/1/4 148/1/4
f 145/1/4 146/1/4 149/1/4
f 149/1/4 146/1/4 150/1/4
f 151/2/4 152/2/4 153/2/4
f 153/2/4 152/2/4 154/2/4
f 154/2/4 152/2/4 155/2/4
f 156/1/4 157/1/4 159/1/4
f 157/1/4 158/1/4 159/1/4
f 159/1/4 158/1/4 160/1/4
f 156/1/4 159/1/4 161/1/4
f 161/1/4 159/1/4 162/1/4
f 156/1/4 161/1/4 163/1/4
f 163/1/4 161/1/4 164/1/4
f 165/1/4 166/1/4 167/1/4
f 167/1/4 166/1/4 168/1/4
f 169/1/4 170/1/4 171/1/4
f 171/1/4 170/1/4 172/1/4
f 169/1/4 171/1/4 174/1/4
f 173/1/4 174/1/4 175/1/4
f 174/1/4 171/1/4 176/1/4
f 175/1/4 174/1/4 176/1/4
f 177/1/4 178/1/4 179/1/4
f 179/1/4 178/1/4 180/1/4
f 180/1/4 178/1/4 182/1/4
f 181/1/4 182/1/4 183/1/4
f 182/1/4 178/1/4 184/1/4
f 183/1/4 182/1/4 184/1/4
f 189/1/5 186/1/5 185/1/5
f 190/1/5 186/1/5 189/1/5
f 192/1/5 188/1/5 187/1/5
f 193/1/5 188/1/5 192/1/5
f 197/1/5 191/1/5 190/1/5
f 198/1/5 191/1/5 197/1/5
f 201/1/5 195/1/5 194/1/5
f 202/1/5 195/1/5 201/1/5
f 203/1/5 197/1/5 196/1/5
f 204/1/5 197/1/5 203/1/5
f 205/1/5 200/1/5 199/1/5
f 206/1/5 200/1/5 205/1/5
f 210/1/5 208/1/5 207/1/5
f 211/1/5 208/1/5 210/1/5
f 212/1/5 208/1/5 211/1/5
f 215/1/5 210/1/5 209/1/5
f 216/1/5 210/1/5 215/1/5
f 217/1/5 214/1/5 213/1/5
f 217/1/5 213/1/5 212/1/5
f 217/1/5 212/1/5 211/1/5
f 218/1/5 214/1/5 217/1/5
f 219/1/5 214/1/5 218/1/5
f 220/1/5 214/1/5 219/1/5
f 221/1/5 217/1/5 216/1/5
f 221/1/5 218/1/5 217/1/5
f 222/1/5 218/1/5 221/1/5
f 225/2/5 224/2/5 223/2/5
f 226/2/5 224/2/5 225/2/5
f 227/1/6 228/1/6 229/1/6
f 229/1/6 228/1/6 230/1/6
f 231/1/6 232/1/6 233/1/6
f 233/1/6 232/1/6 234/1/6
f 235/1/6 236/1/6 237/1/6
f 237/1/6 236/1/6 238/1/6
f 239/3/6 240/3/6 243/3/6
f 241/1/6 242/1/6 244/1/6
f 244/1/6 242/1/6 245/1/6
f 239/3/6 243/3/6 246/3/6
f 246/3/6 243/3/6 247/3/6
f 239/3/6 246/3/6 250/3/6
f 250/3/6 246/3/6 251/3/6
f 248/1/6 249/1/6 252/1/6
f 252/1/6 249/1/6 253/1/6
f 254/1/6 255/1/6 256/1/6
f 256/1/6 255/1/6 257/1/6
f 257/1/6 255/1/6 260/1/6
f 260/1/6 255/1/6 261/1/6
f 258/1/6 259/1/6 265/1/6
f 262/2/6 263/2/6 266/2/6
f 263/1/6 264/1/6 267/1/6
f 266/2/6 263/2/6 267/2/6
f 265/1/6 266/1/6 268/1/6
f 258/1/6 265/1/6 268/1/6
f 266/1/6 267/1/6 268/1/6
f 267/1/6 264/1/6 269/1/6
f 268/1/6 267/1/6 269/1/6
f 270/2/6 271/2/6 272/2/6
f 272/2/6 271/2/6 273/2/6
