# MagicaVoxel @ Ephtracy

# group
o 

# material
mtllib empty_coin.mtl
usemtl palette

# normals
vn -1 0 0
vn 1 0 0
vn 0 0 1
vn 0 0 -1
vn 0 -1 0
vn 0 1 0

# texcoords
vt 0.00195313 0.5
vt 0.00585938 0.5

# verts
v -1.6 0 0.4
v -1.6 0 -0.4
v -1.6 0.8 0.4
v -1.6 0.8 -0.4
v -1.5 0 0.7
v -1.5 0 0.4
v -1.5 0 -0.4
v -1.5 0 -0.7
v -1.5 0.8 0.7
v -1.5 0.8 0.4
v -1.5 0.8 -0.4
v -1.5 0.8 -0.7
v -1.4 0 0.9
v -1.4 0 0.7
v -1.4 0 -0.7
v -1.4 0 -0.9
v -1.4 0.8 0.9
v -1.4 0.8 0.7
v -1.4 0.8 -0.7
v -1.4 0.8 -0.9
v -1.3 0 1
v -1.3 0 0.9
v -1.3 0 -0.9
v -1.3 0 -1
v -1.3 0.8 1
v -1.3 0.8 0.9
v -1.3 0.8 -0.9
v -1.3 0.8 -1
v -1.2 0 1.1
v -1.2 0 1
v -1.2 0 -1
v -1.2 0 -1.1
v -1.2 0.8 1.1
v -1.2 0.8 1
v -1.2 0.8 -1
v -1.2 0.8 -1.1
v -1.1 0 1.2
v -1.1 0 1.1
v -1.1 0 -1.1
v -1.1 0 -1.2
v -1.1 0.8 1.2
v -1.1 0.8 1.1
v -1.1 0.8 -1.1
v -1.1 0.8 -1.2
v -1 0 1.3
v -1 0 1.2
v -1 0 -1.2
v -1 0 -1.3
v -1 0.8 1.3
v -1 0.8 1.2
v -1 0.8 -1.2
v -1 0.8 -1.3
v -0.9 0 1.4
v -0.9 0 1.3
v -0.9 0 -1.3
v -0.9 0 -1.4
v -0.9 0.8 1.4
v -0.9 0.8 1.3
v -0.9 0.8 -1.3
v -0.9 0.8 -1.4
v -0.7 0 1.5
v -0.7 0 1.4
v -0.7 0 -1.4
v -0.7 0 -1.5
v -0.7 0.8 1.5
v -0.7 0.8 1.4
v -0.7 0.8 -1.4
v -0.7 0.8 -1.5
v -0.4 0 1.6
v -0.4 0 1.5
v -0.4 0 -1.5
v -0.4 0 -1.6
v -0.4 0.8 1.6
v -0.4 0.8 1.5
v -0.4 0.8 -1.5
v -0.4 0.8 -1.6
v 0.4 0 1.6
v 0.4 0 1.5
v 0.4 0 -1.5
v 0.4 0 -1.6
v 0.4 0.8 1.6
v 0.4 0.8 1.5
v 0.4 0.8 -1.5
v 0.4 0.8 -1.6
v 0.7 0 1.5
v 0.7 0 1.4
v 0.7 0 -1.4
v 0.7 0 -1.5
v 0.7 0.8 1.5
v 0.7 0.8 1.4
v 0.7 0.8 -1.4
v 0.7 0.8 -1.5
v 0.9 0 1.4
v 0.9 0 1.3
v 0.9 0 -1.3
v 0.9 0 -1.4
v 0.9 0.8 1.4
v 0.9 0.8 1.3
v 0.9 0.8 -1.3
v 0.9 0.8 -1.4
v 1 0 1.3
v 1 0 1.2
v 1 0 -1.2
v 1 0 -1.3
v 1 0.8 1.3
v 1 0.8 1.2
v 1 0.8 -1.2
v 1 0.8 -1.3
v 1.1 0 1.2
v 1.1 0 1.1
v 1.1 0 -1.1
v 1.1 0 -1.2
v 1.1 0.8 1.2
v 1.1 0.8 1.1
v 1.1 0.8 -1.1
v 1.1 0.8 -1.2
v 1.2 0 1.1
v 1.2 0 1
v 1.2 0 -1
v 1.2 0 -1.1
v 1.2 0.8 1.1
v 1.2 0.8 1
v 1.2 0.8 -1
v 1.2 0.8 -1.1
v 1.3 0 1
v 1.3 0 0.9
v 1.3 0 -0.9
v 1.3 0 -1
v 1.3 0.8 1
v 1.3 0.8 0.9
v 1.3 0.8 -0.9
v 1.3 0.8 -1
v 1.4 0 0.9
v 1.4 0 0.7
v 1.4 0 -0.7
v 1.4 0 -0.9
v 1.4 0.8 0.9
v 1.4 0.8 0.7
v 1.4 0.8 -0.7
v 1.4 0.8 -0.9
v 1.5 0 0.7
v 1.5 0 0.4
v 1.5 0 -0.4
v 1.5 0 -0.7
v 1.5 0.8 0.7
v 1.5 0.8 0.4
v 1.5 0.8 -0.4
v 1.5 0.8 -0.7
v 1.6 0 0.4
v 1.6 0 -0.4
v 1.6 0.8 0.4
v 1.6 0.8 -0.4
v -0.4 0 1.6
v -0.4 0.8 1.6
v 0.4 0 1.6
v 0.4 0.8 1.6
v -0.7 0 1.5
v -0.7 0.8 1.5
v -0.4 0 1.5
v -0.4 0.8 1.5
v 0.4 0 1.5
v 0.4 0.8 1.5
v 0.7 0 1.5
v 0.7 0.8 1.5
v -0.9 0 1.4
v -0.9 0.8 1.4
v -0.7 0 1.4
v -0.7 0.8 1.4
v 0.7 0 1.4
v 0.7 0.8 1.4
v 0.9 0 1.4
v 0.9 0.8 1.4
v -1 0 1.3
v -1 0.8 1.3
v -0.9 0 1.3
v -0.9 0.8 1.3
v 0.9 0 1.3
v 0.9 0.8 1.3
v 1 0 1.3
v 1 0.8 1.3
v -1.1 0 1.2
v -1.1 0.8 1.2
v -1 0 1.2
v -1 0.8 1.2
v 1 0 1.2
v 1 0.8 1.2
v 1.1 0 1.2
v 1.1 0.8 1.2
v -1.2 0 1.1
v -1.2 0.8 1.1
v -1.1 0 1.1
v -1.1 0.8 1.1
v 1.1 0 1.1
v 1.1 0.8 1.1
v 1.2 0 1.1
v 1.2 0.8 1.1
v -1.3 0 1
v -1.3 0.8 1
v -1.2 0 1
v -1.2 0.8 1
v 1.2 0 1
v 1.2 0.8 1
v 1.3 0 1
v 1.3 0.8 1
v -1.4 0 0.9
v -1.4 0.8 0.9
v -1.3 0 0.9
v -1.3 0.8 0.9
v 1.3 0 0.9
v 1.3 0.8 0.9
v 1.4 0 0.9
v 1.4 0.8 0.9
v -1.5 0 0.7
v -1.5 0.8 0.7
v -1.4 0 0.7
v -1.4 0.8 0.7
v 1.4 0 0.7
v 1.4 0.8 0.7
v 1.5 0 0.7
v 1.5 0.8 0.7
v -1.6 0 0.4
v -1.6 0.8 0.4
v -1.5 0 0.4
v -1.5 0.8 0.4
v 1.5 0 0.4
v 1.5 0.8 0.4
v 1.6 0 0.4
v 1.6 0.8 0.4
v -1.6 0 -0.4
v -1.6 0.8 -0.4
v -1.5 0 -0.4
v -1.5 0.8 -0.4
v 1.5 0 -0.4
v 1.5 0.8 -0.4
v 1.6 0 -0.4
v 1.6 0.8 -0.4
v -1.5 0 -0.7
v -1.5 0.8 -0.7
v -1.4 0 -0.7
v -1.4 0.8 -0.7
v 1.4 0 -0.7
v 1.4 0.8 -0.7
v 1.5 0 -0.7
v 1.5 0.8 -0.7
v -1.4 0 -0.9
v -1.4 0.8 -0.9
v -1.3 0 -0.9
v -1.3 0.8 -0.9
v 1.3 0 -0.9
v 1.3 0.8 -0.9
v 1.4 0 -0.9
v 1.4 0.8 -0.9
v -1.3 0 -1
v -1.3 0.8 -1
v -1.2 0 -1
v -1.2 0.8 -1
v 1.2 0 -1
v 1.2 0.8 -1
v 1.3 0 -1
v 1.3 0.8 -1
v -1.2 0 -1.1
v -1.2 0.8 -1.1
v -1.1 0 -1.1
v -1.1 0.8 -1.1
v 1.1 0 -1.1
v 1.1 0.8 -1.1
v 1.2 0 -1.1
v 1.2 0.8 -1.1
v -1.1 0 -1.2
v -1.1 0.8 -1.2
v -1 0 -1.2
v -1 0.8 -1.2
v 1 0 -1.2
v 1 0.8 -1.2
v 1.1 0 -1.2
v 1.1 0.8 -1.2
v -1 0 -1.3
v -1 0.8 -1.3
v -0.9 0 -1.3
v -0.9 0.8 -1.3
v 0.9 0 -1.3
v 0.9 0.8 -1.3
v 1 0 -1.3
v 1 0.8 -1.3
v -0.9 0 -1.4
v -0.9 0.8 -1.4
v -0.7 0 -1.4
v -0.7 0.8 -1.4
v 0.7 0 -1.4
v 0.7 0.8 -1.4
v 0.9 0 -1.4
v 0.9 0.8 -1.4
v -0.7 0 -1.5
v -0.7 0.8 -1.5
v -0.4 0 -1.5
v -0.4 0.8 -1.5
v 0.4 0 -1.5
v 0.4 0.8 -1.5
v 0.7 0 -1.5
v 0.7 0.8 -1.5
v -0.4 0 -1.6
v -0.4 0.8 -1.6
v 0.4 0 -1.6
v 0.4 0.8 -1.6
v -0.4 0 1.6
v 0.4 0 1.6
v -0.7 0 1.5
v -0.4 0 1.5
v -0.3 0 1.5
v 0.3 0 1.5
v 0.4 0 1.5
v 0.7 0 1.5
v -0.9 0 1.4
v -0.7 0 1.4
v -0.6 0 1.4
v -0.3 0 1.4
v 0.3 0 1.4
v 0.6 0 1.4
v 0.7 0 1.4
v 0.9 0 1.4
v -1 0 1.3
v -0.9 0 1.3
v -0.8 0 1.3
v -0.6 0 1.3
v 0.6 0 1.3
v 0.8 0 1.3
v 0.9 0 1.3
v 1 0 1.3
v -1.1 0 1.2
v -1 0 1.2
v -0.9 0 1.2
v -0.8 0 1.2
v 0.8 0 1.2
v 0.9 0 1.2
v 1 0 1.2
v 1.1 0 1.2
v -1.2 0 1.1
v -1.1 0 1.1
v -1 0 1.1
v -0.9 0 1.1
v 0.9 0 1.1
v 1 0 1.1
v 1.1 0 1.1
v 1.2 0 1.1
v -1.3 0 1
v -1.2 0 1
v -1.1 0 1
v -1 0 1
v 1 0 1
v 1.1 0 1
v 1.2 0 1
v 1.3 0 1
v -1.4 0 0.9
v -1.3 0 0.9
v -1.1 0 0.9
v 1.1 0 0.9
v 1.2 0 0.9
v 1.3 0 0.9
v 1.4 0 0.9
v 1.2 0 0.8
v 1.3 0 0.8
v -1.5 0 0.7
v -1.4 0 0.7
v 1.4 0 0.7
v 1.5 0 0.7
v -1.4 0 0.6
v -1.3 0 0.6
v 1.3 0 0.6
v 1.4 0 0.6
v -1.6 0 0.4
v -1.5 0 0.4
v 1.5 0 0.4
v 1.6 0 0.4
v -1.5 0 0.3
v -1.4 0 0.3
v 1.4 0 0.3
v 1.5 0 0.3
v -1.5 0 -0.3
v -1.4 0 -0.3
v 1.4 0 -0.3
v 1.5 0 -0.3
v -1.6 0 -0.4
v -1.5 0 -0.4
v 1.5 0 -0.4
v 1.6 0 -0.4
v -1.4 0 -0.6
v -1.3 0 -0.6
v 1.3 0 -0.6
v 1.4 0 -0.6
v -1.5 0 -0.7
v -1.4 0 -0.7
v 1.4 0 -0.7
v 1.5 0 -0.7
v -1.3 0 -0.8
v -1.2 0 -0.8
v 1.2 0 -0.8
v 1.3 0 -0.8
v -1.4 0 -0.9
v -1.3 0 -0.9
v -1.2 0 -0.9
v -1.1 0 -0.9
v 1.1 0 -0.9
v 1.2 0 -0.9
v 1.3 0 -0.9
v 1.4 0 -0.9
v -1.3 0 -1
v -1.2 0 -1
v -1.1 0 -1
v -1 0 -1
v 1 0 -1
v 1.1 0 -1
v 1.2 0 -1
v 1.3 0 -1
v -1.2 0 -1.1
v -1.1 0 -1.1
v -1 0 -1.1
v -0.9 0 -1.1
v 0.9 0 -1.1
v 1 0 -1.1
v 1.1 0 -1.1
v 1.2 0 -1.1
v -1.1 0 -1.2
v -1 0 -1.2
v -0.9 0 -1.2
v -0.8 0 -1.2
v 0.7 0 -1.2
v 0.9 0 -1.2
v 1 0 -1.2
v 1.1 0 -1.2
v -1 0 -1.3
v -0.9 0 -1.3
v -0.8 0 -1.3
v -0.6 0 -1.3
v 0.6 0 -1.3
v 0.7 0 -1.3
v 0.9 0 -1.3
v 1 0 -1.3
v -0.9 0 -1.4
v -0.7 0 -1.4
v -0.6 0 -1.4
v -0.3 0 -1.4
v 0.3 0 -1.4
v 0.6 0 -1.4
v 0.7 0 -1.4
v 0.9 0 -1.4
v -0.7 0 -1.5
v -0.4 0 -1.5
v -0.3 0 -1.5
v 0.3 0 -1.5
v 0.4 0 -1.5
v 0.7 0 -1.5
v -0.4 0 -1.6
v 0.4 0 -1.6
v -0.4 0.8 1.6
v 0.4 0.8 1.6
v -0.7 0.8 1.5
v -0.4 0.8 1.5
v -0.3 0.8 1.5
v 0.3 0.8 1.5
v 0.4 0.8 1.5
v 0.7 0.8 1.5
v -0.9 0.8 1.4
v -0.7 0.8 1.4
v -0.6 0.8 1.4
v -0.3 0.8 1.4
v 0.3 0.8 1.4
v 0.6 0.8 1.4
v 0.7 0.8 1.4
v 0.9 0.8 1.4
v -1 0.8 1.3
v -0.9 0.8 1.3
v -0.8 0.8 1.3
v -0.6 0.8 1.3
v 0.6 0.8 1.3
v 0.8 0.8 1.3
v 0.9 0.8 1.3
v 1 0.8 1.3
v -1.1 0.8 1.2
v -1 0.8 1.2
v -0.9 0.8 1.2
v -0.8 0.8 1.2
v 0.8 0.8 1.2
v 0.9 0.8 1.2
v 1 0.8 1.2
v 1.1 0.8 1.2
v -1.2 0.8 1.1
v -1.1 0.8 1.1
v -1 0.8 1.1
v -0.9 0.8 1.1
v 0.9 0.8 1.1
v 1 0.8 1.1
v 1.1 0.8 1.1
v 1.2 0.8 1.1
v -1.3 0.8 1
v -1.2 0.8 1
v -1.1 0.8 1
v -1 0.8 1
v 1 0.8 1
v 1.1 0.8 1
v 1.2 0.8 1
v 1.3 0.8 1
v -1.4 0.8 0.9
v -1.3 0.8 0.9
v -1.1 0.8 0.9
v 1.1 0.8 0.9
v 1.2 0.8 0.9
v 1.3 0.8 0.9
v 1.4 0.8 0.9
v 1.2 0.8 0.8
v 1.3 0.8 0.8
v -1.5 0.8 0.7
v -1.4 0.8 0.7
v 1.4 0.8 0.7
v 1.5 0.8 0.7
v -1.4 0.8 0.6
v -1.3 0.8 0.6
v 1.3 0.8 0.6
v 1.4 0.8 0.6
v -1.6 0.8 0.4
v -1.5 0.8 0.4
v 1.5 0.8 0.4
v 1.6 0.8 0.4
v -1.5 0.8 0.3
v -1.4 0.8 0.3
v 1.4 0.8 0.3
v 1.5 0.8 0.3
v -1.5 0.8 -0.3
v -1.4 0.8 -0.3
v 1.4 0.8 -0.3
v 1.5 0.8 -0.3
v -1.6 0.8 -0.4
v -1.5 0.8 -0.4
v 1.5 0.8 -0.4
v 1.6 0.8 -0.4
v -1.4 0.8 -0.6
v -1.3 0.8 -0.6
v 1.3 0.8 -0.6
v 1.4 0.8 -0.6
v -1.5 0.8 -0.7
v -1.4 0.8 -0.7
v 1.4 0.8 -0.7
v 1.5 0.8 -0.7
v -1.3 0.8 -0.8
v -1.2 0.8 -0.8
v 1.2 0.8 -0.8
v 1.3 0.8 -0.8
v -1.4 0.8 -0.9
v -1.3 0.8 -0.9
v -1.2 0.8 -0.9
v -1.1 0.8 -0.9
v 1.1 0.8 -0.9
v 1.2 0.8 -0.9
v 1.3 0.8 -0.9
v 1.4 0.8 -0.9
v -1.3 0.8 -1
v -1.2 0.8 -1
v -1.1 0.8 -1
v -1 0.8 -1
v 1 0.8 -1
v 1.1 0.8 -1
v 1.2 0.8 -1
v 1.3 0.8 -1
v -1.2 0.8 -1.1
v -1.1 0.8 -1.1
v -1 0.8 -1.1
v -0.9 0.8 -1.1
v 0.9 0.8 -1.1
v 1 0.8 -1.1
v 1.1 0.8 -1.1
v 1.2 0.8 -1.1
v -1.1 0.8 -1.2
v -1 0.8 -1.2
v -0.9 0.8 -1.2
v -0.8 0.8 -1.2
v 0.7 0.8 -1.2
v 0.9 0.8 -1.2
v 1 0.8 -1.2
v 1.1 0.8 -1.2
v -1 0.8 -1.3
v -0.9 0.8 -1.3
v -0.8 0.8 -1.3
v -0.6 0.8 -1.3
v 0.6 0.8 -1.3
v 0.7 0.8 -1.3
v 0.9 0.8 -1.3
v 1 0.8 -1.3
v -0.9 0.8 -1.4
v -0.7 0.8 -1.4
v -0.6 0.8 -1.4
v -0.3 0.8 -1.4
v 0.3 0.8 -1.4
v 0.6 0.8 -1.4
v 0.7 0.8 -1.4
v 0.9 0.8 -1.4
v -0.7 0.8 -1.5
v -0.4 0.8 -1.5
v -0.3 0.8 -1.5
v 0.3 0.8 -1.5
v 0.4 0.8 -1.5
v 0.7 0.8 -1.5
v -0.4 0.8 -1.6
v 0.4 0.8 -1.6

# faces
f 3/1/1 2/1/1 1/1/1
f 4/1/1 2/1/1 3/1/1
f 9/1/1 6/1/1 5/1/1
f 10/1/1 6/1/1 9/1/1
f 11/1/1 8/1/1 7/1/1
f 12/1/1 8/1/1 11/1/1
f 17/1/1 14/1/1 13/1/1
f 18/1/1 14/1/1 17/1/1
f 19/1/1 16/1/1 15/1/1
f 20/1/1 16/1/1 19/1/1
f 25/1/1 22/1/1 21/1/1
f 26/1/1 22/1/1 25/1/1
f 27/1/1 24/1/1 23/1/1
f 28/1/1 24/1/1 27/1/1
f 33/1/1 30/1/1 29/1/1
f 34/1/1 30/1/1 33/1/1
f 35/1/1 32/1/1 31/1/1
f 36/1/1 32/1/1 35/1/1
f 41/1/1 38/1/1 37/1/1
f 42/1/1 38/1/1 41/1/1
f 43/1/1 40/1/1 39/1/1
f 44/1/1 40/1/1 43/1/1
f 49/1/1 46/1/1 45/1/1
f 50/1/1 46/1/1 49/1/1
f 51/1/1 48/1/1 47/1/1
f 52/1/1 48/1/1 51/1/1
f 57/1/1 54/1/1 53/1/1
f 58/1/1 54/1/1 57/1/1
f 59/1/1 56/1/1 55/1/1
f 60/1/1 56/1/1 59/1/1
f 65/1/1 62/1/1 61/1/1
f 66/1/1 62/1/1 65/1/1
f 67/1/1 64/1/1 63/1/1
f 68/1/1 64/1/1 67/1/1
f 73/1/1 70/1/1 69/1/1
f 74/1/1 70/1/1 73/1/1
f 75/1/1 72/1/1 71/1/1
f 76/1/1 72/1/1 75/1/1
f 77/1/2 78/1/2 81/1/2
f 81/1/2 78/1/2 82/1/2
f 79/1/2 80/1/2 83/1/2
f 83/1/2 80/1/2 84/1/2
f 85/1/2 86/1/2 89/1/2
f 89/1/2 86/1/2 90/1/2
f 87/1/2 88/1/2 91/1/2
f 91/1/2 88/1/2 92/1/2
f 93/1/2 94/1/2 97/1/2
f 97/1/2 94/1/2 98/1/2
f 95/1/2 96/1/2 99/1/2
f 99/1/2 96/1/2 100/1/2
f 101/1/2 102/1/2 105/1/2
f 105/1/2 102/1/2 106/1/2
f 103/1/2 104/1/2 107/1/2
f 107/1/2 104/1/2 108/1/2
f 109/1/2 110/1/2 113/1/2
f 113/1/2 110/1/2 114/1/2
f 111/1/2 112/1/2 115/1/2
f 115/1/2 112/1/2 116/1/2
f 117/1/2 118/1/2 121/1/2
f 121/1/2 118/1/2 122/1/2
f 119/1/2 120/1/2 123/1/2
f 123/1/2 120/1/2 124/1/2
f 125/1/2 126/1/2 129/1/2
f 129/1/2 126/1/2 130/1/2
f 127/1/2 128/1/2 131/1/2
f 131/1/2 128/1/2 132/1/2
f 133/1/2 134/1/2 137/1/2
f 137/1/2 134/1/2 138/1/2
f 135/1/2 136/1/2 139/1/2
f 139/1/2 136/1/2 140/1/2
f 141/1/2 142/1/2 145/1/2
f 145/1/2 142/1/2 146/1/2
f 143/1/2 144/1/2 147/1/2
f 147/1/2 144/1/2 148/1/2
f 149/1/2 150/1/2 151/1/2
f 151/1/2 150/1/2 152/1/2
f 155/1/3 154/1/3 153/1/3
f 156/1/3 154/1/3 155/1/3
f 159/1/3 158/1/3 157/1/3
f 160/1/3 158/1/3 159/1/3
f 163/1/3 162/1/3 161/1/3
f 164/1/3 162/1/3 163/1/3
f 167/1/3 166/1/3 165/1/3
f 168/1/3 166/1/3 167/1/3
f 171/1/3 170/1/3 169/1/3
f 172/1/3 170/1/3 171/1/3
f 175/1/3 174/1/3 173/1/3
f 176/1/3 174/1/3 175/1/3
f 179/1/3 178/1/3 177/1/3
f 180/1/3 178/1/3 179/1/3
f 183/1/3 182/1/3 181/1/3
f 184/1/3 182/1/3 183/1/3
f 187/1/3 186/1/3 185/1/3
f 188/1/3 186/1/3 187/1/3
f 191/1/3 190/1/3 189/1/3
f 192/1/3 190/1/3 191/1/3
f 195/1/3 194/1/3 193/1/3
f 196/1/3 194/1/3 195/1/3
f 199/1/3 198/1/3 197/1/3
f 200/1/3 198/1/3 199/1/3
f 203/1/3 202/1/3 201/1/3
f 204/1/3 202/1/3 203/1/3
f 207/1/3 206/1/3 205/1/3
f 208/1/3 206/1/3 207/1/3
f 211/1/3 210/1/3 209/1/3
f 212/1/3 210/1/3 211/1/3
f 215/1/3 214/1/3 213/1/3
f 216/1/3 214/1/3 215/1/3
f 219/1/3 218/1/3 217/1/3
f 220/1/3 218/1/3 219/1/3
f 223/1/3 222/1/3 221/1/3
f 224/1/3 222/1/3 223/1/3
f 227/1/3 226/1/3 225/1/3
f 228/1/3 226/1/3 227/1/3
f 229/1/4 230/1/4 231/1/4
f 231/1/4 230/1/4 232/1/4
f 233/1/4 234/1/4 235/1/4
f 235/1/4 234/1/4 236/1/4
f 237/1/4 238/1/4 239/1/4
f 239/1/4 238/1/4 240/1/4
f 241/1/4 242/1/4 243/1/4
f 243/1/4 242/1/4 244/1/4
f 245/1/4 246/1/4 247/1/4
f 247/1/4 246/1/4 248/1/4
f 249/1/4 250/1/4 251/1/4
f 251/1/4 250/1/4 252/1/4
f 253/1/4 254/1/4 255/1/4
f 255/1/4 254/1/4 256/1/4
f 257/1/4 258/1/4 259/1/4
f 259/1/4 258/1/4 260/1/4
f 261/1/4 262/1/4 263/1/4
f 263/1/4 262/1/4 264/1/4
f 265/1/4 266/1/4 267/1/4
f 267/1/4 266/1/4 268/1/4
f 269/1/4 270/1/4 271/1/4
f 271/1/4 270/1/4 272/1/4
f 273/1/4 274/1/4 275/1/4
f 275/1/4 274/1/4 276/1/4
f 277/1/4 278/1/4 279/1/4
f 279/1/4 278/1/4 280/1/4
f 281/1/4 282/1/4 283/1/4
f 283/1/4 282/1/4 284/1/4
f 285/1/4 286/1/4 287/1/4
f 287/1/4 286/1/4 288/1/4
f 289/1/4 290/1/4 291/1/4
f 291/1/4 290/1/4 292/1/4
f 293/1/4 294/1/4 295/1/4
f 295/1/4 294/1/4 296/1/4
f 297/1/4 298/1/4 299/1/4
f 299/1/4 298/1/4 300/1/4
f 301/1/4 302/1/4 303/1/4
f 303/1/4 302/1/4 304/1/4
f 308/1/5 306/1/5 305/1/5
f 309/1/5 306/1/5 308/1/5
f 310/1/5 306/1/5 309/1/5
f 311/1/5 306/1/5 310/1/5
f 314/1/5 308/1/5 307/1/5
f 314/1/5 309/1/5 308/1/5
f 315/1/5 309/1/5 314/1/5
f 316/2/5 310/2/5 309/2/5
f 316/1/5 309/1/5 315/1/5
f 317/1/5 312/1/5 311/1/5
f 317/2/5 310/2/5 316/2/5
f 317/1/5 311/1/5 310/1/5
f 318/1/5 312/1/5 317/1/5
f 319/1/5 312/1/5 318/1/5
f 322/1/5 314/1/5 313/1/5
f 322/1/5 315/1/5 314/1/5
f 323/1/5 315/1/5 322/1/5
f 324/2/5 316/2/5 315/2/5
f 324/1/5 315/1/5 323/1/5
f 324/2/5 317/2/5 316/2/5
f 324/2/5 318/2/5 317/2/5
f 325/1/5 320/1/5 319/1/5
f 325/2/5 318/2/5 324/2/5
f 325/1/5 319/1/5 318/1/5
f 326/1/5 320/1/5 325/1/5
f 327/1/5 320/1/5 326/1/5
f 330/1/5 323/1/5 322/1/5
f 330/1/5 322/1/5 321/1/5
f 331/1/5 323/1/5 330/1/5
f 332/2/5 324/2/5 323/2/5
f 332/1/5 323/1/5 331/1/5
f 332/2/5 325/2/5 324/2/5
f 332/2/5 326/2/5 325/2/5
f 333/1/5 328/1/5 327/1/5
f 333/2/5 326/2/5 332/2/5
f 333/1/5 327/1/5 326/1/5
f 334/1/5 328/1/5 333/1/5
f 335/1/5 328/1/5 334/1/5
f 338/1/5 331/1/5 330/1/5
f 338/1/5 330/1/5 329/1/5
f 339/1/5 331/1/5 338/1/5
f 340/2/5 332/2/5 331/2/5
f 340/1/5 331/1/5 339/1/5
f 340/2/5 333/2/5 332/2/5
f 340/2/5 334/2/5 333/2/5
f 341/1/5 336/1/5 335/1/5
f 341/2/5 334/2/5 340/2/5
f 341/1/5 335/1/5 334/1/5
f 342/1/5 336/1/5 341/1/5
f 343/1/5 336/1/5 342/1/5
f 346/1/5 339/1/5 338/1/5
f 346/1/5 338/1/5 337/1/5
f 347/1/5 339/1/5 346/1/5
f 348/2/5 340/2/5 339/2/5
f 348/1/5 339/1/5 347/1/5
f 348/2/5 341/2/5 340/2/5
f 348/2/5 342/2/5 341/2/5
f 349/1/5 344/1/5 343/1/5
f 349/2/5 342/2/5 348/2/5
f 349/1/5 343/1/5 342/1/5
f 350/1/5 344/1/5 349/1/5
f 351/1/5 344/1/5 350/1/5
f 354/1/5 347/1/5 346/1/5
f 354/1/5 346/1/5 345/1/5
f 355/2/5 348/2/5 347/2/5
f 355/2/5 349/2/5 348/2/5
f 355/1/5 347/1/5 354/1/5
f 355/2/5 350/2/5 349/2/5
f 356/1/5 352/1/5 351/1/5
f 356/2/5 350/2/5 355/2/5
f 356/1/5 351/1/5 350/1/5
f 357/1/5 352/1/5 356/1/5
f 358/1/5 352/1/5 357/1/5
f 360/2/5 355/2/5 354/2/5
f 360/1/5 359/1/5 358/1/5
f 360/1/5 358/1/5 357/1/5
f 360/2/5 357/2/5 356/2/5
f 360/2/5 356/2/5 355/2/5
f 361/1/5 359/1/5 360/1/5
f 363/1/5 354/1/5 353/1/5
f 364/1/5 359/1/5 361/1/5
f 366/1/5 363/1/5 362/1/5
f 366/1/5 354/1/5 363/1/5
f 367/2/5 360/2/5 354/2/5
f 367/1/5 354/1/5 366/1/5
f 367/2/5 361/2/5 360/2/5
f 368/1/5 365/1/5 364/1/5
f 368/2/5 361/2/5 367/2/5
f 368/1/5 364/1/5 361/1/5
f 369/1/5 365/1/5 368/1/5
f 371/1/5 366/1/5 362/1/5
f 372/1/5 365/1/5 369/1/5
f 374/1/5 371/1/5 370/1/5
f 374/1/5 366/1/5 371/1/5
f 375/2/5 367/2/5 366/2/5
f 375/1/5 366/1/5 374/1/5
f 375/2/5 368/2/5 367/2/5
f 375/2/5 369/2/5 368/2/5
f 376/1/5 373/1/5 372/1/5
f 376/2/5 369/2/5 375/2/5
f 376/1/5 372/1/5 369/1/5
f 377/1/5 373/1/5 376/1/5
f 378/1/5 374/1/5 370/1/5
f 378/2/5 375/2/5 374/2/5
f 378/2/5 377/2/5 376/2/5
f 378/2/5 376/2/5 375/2/5
f 379/2/5 377/2/5 378/2/5
f 380/2/5 377/2/5 379/2/5
f 381/1/5 373/1/5 377/1/5
f 381/2/5 377/2/5 380/2/5
f 382/1/5 378/1/5 370/1/5
f 382/1/5 379/1/5 378/1/5
f 383/1/5 379/1/5 382/1/5
f 384/1/5 373/1/5 381/1/5
f 384/1/5 381/1/5 380/1/5
f 385/1/5 373/1/5 384/1/5
f 386/2/5 380/2/5 379/2/5
f 386/1/5 379/1/5 383/1/5
f 387/2/5 380/2/5 386/2/5
f 388/2/5 380/2/5 387/2/5
f 389/1/5 384/1/5 380/1/5
f 389/2/5 380/2/5 388/2/5
f 390/1/5 386/1/5 383/1/5
f 390/1/5 387/1/5 386/1/5
f 391/1/5 387/1/5 390/1/5
f 392/1/5 384/1/5 389/1/5
f 392/1/5 389/1/5 388/1/5
f 393/1/5 384/1/5 392/1/5
f 394/2/5 388/2/5 387/2/5
f 394/1/5 387/1/5 391/1/5
f 395/2/5 388/2/5 394/2/5
f 396/2/5 388/2/5 395/2/5
f 397/1/5 392/1/5 388/1/5
f 397/2/5 388/2/5 396/2/5
f 398/1/5 394/1/5 391/1/5
f 398/1/5 395/1/5 394/1/5
f 399/1/5 395/1/5 398/1/5
f 400/2/5 396/2/5 395/2/5
f 400/1/5 395/1/5 399/1/5
f 401/2/5 396/2/5 400/2/5
f 402/2/5 396/2/5 401/2/5
f 403/1/5 397/1/5 396/1/5
f 403/2/5 396/2/5 402/2/5
f 404/1/5 392/1/5 397/1/5
f 404/1/5 397/1/5 403/1/5
f 405/1/5 392/1/5 404/1/5
f 406/1/5 400/1/5 399/1/5
f 406/1/5 401/1/5 400/1/5
f 407/1/5 401/1/5 406/1/5
f 408/2/5 402/2/5 401/2/5
f 408/1/5 401/1/5 407/1/5
f 409/2/5 402/2/5 408/2/5
f 410/2/5 402/2/5 409/2/5
f 411/1/5 403/1/5 402/1/5
f 411/2/5 402/2/5 410/2/5
f 411/1/5 404/1/5 403/1/5
f 412/1/5 404/1/5 411/1/5
f 413/1/5 404/1/5 412/1/5
f 414/1/5 409/1/5 408/1/5
f 414/1/5 408/1/5 407/1/5
f 415/1/5 409/1/5 414/1/5
f 416/2/5 410/2/5 409/2/5
f 416/1/5 409/1/5 415/1/5
f 417/2/5 410/2/5 416/2/5
f 418/2/5 410/2/5 417/2/5
f 419/1/5 412/1/5 411/1/5
f 419/2/5 410/2/5 418/2/5
f 419/1/5 411/1/5 410/1/5
f 420/1/5 412/1/5 419/1/5
f 421/1/5 412/1/5 420/1/5
f 422/1/5 417/1/5 416/1/5
f 422/1/5 416/1/5 415/1/5
f 423/1/5 417/1/5 422/1/5
f 424/2/5 418/2/5 417/2/5
f 424/1/5 417/1/5 423/1/5
f 425/2/5 418/2/5 424/2/5
f 426/2/5 418/2/5 425/2/5
f 427/1/5 420/1/5 419/1/5
f 427/2/5 418/2/5 426/2/5
f 427/1/5 419/1/5 418/1/5
f 428/1/5 420/1/5 427/1/5
f 429/1/5 420/1/5 428/1/5
f 430/1/5 425/1/5 424/1/5
f 430/1/5 424/1/5 423/1/5
f 431/1/5 425/1/5 430/1/5
f 432/2/5 426/2/5 425/2/5
f 432/1/5 425/1/5 431/1/5
f 433/2/5 426/2/5 432/2/5
f 434/2/5 426/2/5 433/2/5
f 435/1/5 428/1/5 427/1/5
f 435/2/5 426/2/5 434/2/5
f 435/1/5 427/1/5 426/1/5
f 436/1/5 428/1/5 435/1/5
f 437/1/5 428/1/5 436/1/5
f 438/1/5 433/1/5 432/1/5
f 438/1/5 432/1/5 431/1/5
f 439/1/5 433/1/5 438/1/5
f 440/2/5 434/2/5 433/2/5
f 440/1/5 433/1/5 439/1/5
f 441/2/5 434/2/5 440/2/5
f 442/2/5 434/2/5 441/2/5
f 443/1/5 436/1/5 435/1/5
f 443/2/5 434/2/5 442/2/5
f 443/1/5 435/1/5 434/1/5
f 444/1/5 436/1/5 443/1/5
f 445/1/5 436/1/5 444/1/5
f 446/1/5 441/1/5 440/1/5
f 446/1/5 440/1/5 439/1/5
f 447/1/5 441/1/5 446/1/5
f 448/2/5 442/2/5 441/2/5
f 448/1/5 441/1/5 447/1/5
f 449/1/5 444/1/5 443/1/5
f 449/2/5 442/2/5 448/2/5
f 449/1/5 443/1/5 442/1/5
f 450/1/5 444/1/5 449/1/5
f 451/1/5 444/1/5 450/1/5
f 452/1/5 448/1/5 447/1/5
f 452/1/5 450/1/5 449/1/5
f 452/1/5 449/1/5 448/1/5
f 453/1/5 450/1/5 452/1/5
f 454/1/6 455/1/6 457/1/6
f 457/1/6 455/1/6 458/1/6
f 458/1/6 455/1/6 459/1/6
f 459/1/6 455/1/6 460/1/6
f 456/1/6 457/1/6 463/1/6
f 457/1/6 458/1/6 463/1/6
f 463/1/6 458/1/6 464/1/6
f 458/2/6 459/2/6 465/2/6
f 464/1/6 458/1/6 465/1/6
f 460/1/6 461/1/6 466/1/6
f 465/2/6 459/2/6 466/2/6
f 459/1/6 460/1/6 466/1/6
f 466/1/6 461/1/6 467/1/6
f 467/1/6 461/1/6 468/1/6
f 462/1/6 463/1/6 471/1/6
f 463/1/6 464/1/6 471/1/6
f 471/1/6 464/1/6 472/1/6
f 464/2/6 465/2/6 473/2/6
f 472/1/6 464/1/6 473/1/6
f 465/2/6 466/2/6 473/2/6
f 466/2/6 467/2/6 473/2/6
f 468/1/6 469/1/6 474/1/6
f 473/2/6 467/2/6 474/2/6
f 467/1/6 468/1/6 474/1/6
f 474/1/6 469/1/6 475/1/6
f 475/1/6 469/1/6 476/1/6
f 471/1/6 472/1/6 479/1/6
f 470/1/6 471/1/6 479/1/6
f 479/1/6 472/1/6 480/1/6
f 472/2/6 473/2/6 481/2/6
f 480/1/6 472/1/6 481/1/6
f 473/2/6 474/2/6 481/2/6
f 474/2/6 475/2/6 481/2/6
f 476/1/6 477/1/6 482/1/6
f 481/2/6 475/2/6 482/2/6
f 475/1/6 476/1/6 482/1/6
f 482/1/6 477/1/6 483/1/6
f 483/1/6 477/1/6 484/1/6
f 479/1/6 480/1/6 487/1/6
f 478/1/6 479/1/6 487/1/6
f 487/1/6 480/1/6 488/1/6
f 480/2/6 481/2/6 489/2/6
f 488/1/6 480/1/6 489/1/6
f 481/2/6 482/2/6 489/2/6
f 482/2/6 483/2/6 489/2/6
f 484/1/6 485/1/6 490/1/6
f 489/2/6 483/2/6 490/2/6
f 483/1/6 484/1/6 490/1/6
f 490/1/6 485/1/6 491/1/6
f 491/1/6 485/1/6 492/1/6
f 487/1/6 488/1/6 495/1/6
f 486/1/6 487/1/6 495/1/6
f 495/1/6 488/1/6 496/1/6
f 488/2/6 489/2/6 497/2/6
f 496/1/6 488/1/6 497/1/6
f 489/2/6 490/2/6 497/2/6
f 490/2/6 491/2/6 497/2/6
f 492/1/6 493/1/6 498/1/6
f 497/2/6 491/2/6 498/2/6
f 491/1/6 492/1/6 498/1/6
f 498/1/6 493/1/6 499/1/6
f 499/1/6 493/1/6 500/1/6
f 495/1/6 496/1/6 503/1/6
f 494/1/6 495/1/6 503/1/6
f 496/2/6 497/2/6 504/2/6
f 497/2/6 498/2/6 504/2/6
f 503/1/6 496/1/6 504/1/6
f 498/2/6 499/2/6 504/2/6
f 500/1/6 501/1/6 505/1/6
f 504/2/6 499/2/6 505/2/6
f 499/1/6 500/1/6 505/1/6
f 505/1/6 501/1/6 506/1/6
f 506/1/6 501/1/6 507/1/6
f 503/2/6 504/2/6 509/2/6
f 507/1/6 508/1/6 509/1/6
f 506/1/6 507/1/6 509/1/6
f 505/2/6 506/2/6 509/2/6
f 504/2/6 505/2/6 509/2/6
f 509/1/6 508/1/6 510/1/6
f 502/1/6 503/1/6 512/1/6
f 510/1/6 508/1/6 513/1/6
f 511/1/6 512/1/6 515/1/6
f 512/1/6 503/1/6 515/1/6
f 503/2/6 509/2/6 516/2/6
f 515/1/6 503/1/6 516/1/6
f 509/2/6 510/2/6 516/2/6
f 513/1/6 514/1/6 517/1/6
f 516/2/6 510/2/6 517/2/6
f 510/1/6 513/1/6 517/1/6
f 517/1/6 514/1/6 518/1/6
f 511/1/6 515/1/6 520/1/6
f 518/1/6 514/1/6 521/1/6
f 519/1/6 520/1/6 523/1/6
f 520/1/6 515/1/6 523/1/6
f 515/2/6 516/2/6 524/2/6
f 523/1/6 515/1/6 524/1/6
f 516/2/6 517/2/6 524/2/6
f 517/2/6 518/2/6 524/2/6
f 521/1/6 522/1/6 525/1/6
f 524/2/6 518/2/6 525/2/6
f 518/1/6 521/1/6 525/1/6
f 525/1/6 522/1/6 526/1/6
f 519/1/6 523/1/6 527/1/6
f 523/2/6 524/2/6 527/2/6
f 525/2/6 526/2/6 527/2/6
f 524/2/6 525/2/6 527/2/6
f 527/2/6 526/2/6 528/2/6
f 528/2/6 526/2/6 529/2/6
f 526/1/6 522/1/6 530/1/6
f 529/2/6 526/2/6 530/2/6
f 519/1/6 527/1/6 531/1/6
f 527/1/6 528/1/6 531/1/6
f 531/1/6 528/1/6 532/1/6
f 530/1/6 522/1/6 533/1/6
f 529/1/6 530/1/6 533/1/6
f 533/1/6 522/1/6 534/1/6
f 528/2/6 529/2/6 535/2/6
f 532/1/6 528/1/6 535/1/6
f 535/2/6 529/2/6 536/2/6
f 536/2/6 529/2/6 537/2/6
f 529/1/6 533/1/6 538/1/6
f 537/2/6 529/2/6 538/2/6
f 532/1/6 535/1/6 539/1/6
f 535/1/6 536/1/6 539/1/6
f 539/1/6 536/1/6 540/1/6
f 538/1/6 533/1/6 541/1/6
f 537/1/6 538/1/6 541/1/6
f 541/1/6 533/1/6 542/1/6
f 536/2/6 537/2/6 543/2/6
f 540/1/6 536/1/6 543/1/6
f 543/2/6 537/2/6 544/2/6
f 544/2/6 537/2/6 545/2/6
f 537/1/6 541/1/6 546/1/6
f 545/2/6 537/2/6 546/2/6
f 540/1/6 543/1/6 547/1/6
f 543/1/6 544/1/6 547/1/6
f 547/1/6 544/1/6 548/1/6
f 544/2/6 545/2/6 549/2/6
f 548/1/6 544/1/6 549/1/6
f 549/2/6 545/2/6 550/2/6
f 550/2/6 545/2/6 551/2/6
f 545/1/6 546/1/6 552/1/6
f 551/2/6 545/2/6 552/2/6
f 546/1/6 541/1/6 553/1/6
f 552/1/6 546/1/6 553/1/6
f 553/1/6 541/1/6 554/1/6
f 548/1/6 549/1/6 555/1/6
f 549/1/6 550/1/6 555/1/6
f 555/1/6 550/1/6 556/1/6
f 550/2/6 551/2/6 557/2/6
f 556/1/6 550/1/6 557/1/6
f 557/2/6 551/2/6 558/2/6
f 558/2/6 551/2/6 559/2/6
f 551/1/6 552/1/6 560/1/6
f 559/2/6 551/2/6 560/2/6
f 552/1/6 553/1/6 560/1/6
f 560/1/6 553/1/6 561/1/6
f 561/1/6 553/1/6 562/1/6
f 557/1/6 558/1/6 563/1/6
f 556/1/6 557/1/6 563/1/6
f 563/1/6 558/1/6 564/1/6
f 558/2/6 559/2/6 565/2/6
f 564/1/6 558/1/6 565/1/6
f 565/2/6 559/2/6 566/2/6
f 566/2/6 559/2/6 567/2/6
f 560/1/6 561/1/6 568/1/6
f 567/2/6 559/2/6 568/2/6
f 559/1/6 560/1/6 568/1/6
f 568/1/6 561/1/6 569/1/6
f 569/1/6 561/1/6 570/1/6
f 565/1/6 566/1/6 571/1/6
f 564/1/6 565/1/6 571/1/6
f 571/1/6 566/1/6 572/1/6
f 566/2/6 567/2/6 573/2/6
f 572/1/6 566/1/6 573/1/6
f 573/2/6 567/2/6 574/2/6
f 574/2/6 567/2/6 575/2/6
f 568/1/6 569/1/6 576/1/6
f 575/2/6 567/2/6 576/2/6
f 567/1/6 568/1/6 576/1/6
f 576/1/6 569/1/6 577/1/6
f 577/1/6 569/1/6 578/1/6
f 573/1/6 574/1/6 579/1/6
f 572/1/6 573/1/6 579/1/6
f 579/1/6 574/1/6 580/1/6
f 574/2/6 575/2/6 581/2/6
f 580/1/6 574/1/6 581/1/6
f 581/2/6 575/2/6 582/2/6
f 582/2/6 575/2/6 583/2/6
f 576/1/6 577/1/6 584/1/6
f 583/2/6 575/2/6 584/2/6
f 575/1/6 576/1/6 584/1/6
f 584/1/6 577/1/6 585/1/6
f 585/1/6 577/1/6 586/1/6
f 581/1/6 582/1/6 587/1/6
f 580/1/6 581/1/6 587/1/6
f 587/1/6 582/1/6 588/1/6
f 582/2/6 583/2/6 589/2/6
f 588/1/6 582/1/6 589/1/6
f 589/2/6 583/2/6 590/2/6
f 590/2/6 583/2/6 591/2/6
f 584/1/6 585/1/6 592/1/6
f 591/2/6 583/2/6 592/2/6
f 583/1/6 584/1/6 592/1/6
f 592/1/6 585/1/6 593/1/6
f 593/1/6 585/1/6 594/1/6
f 589/1/6 590/1/6 595/1/6
f 588/1/6 589/1/6 595/1/6
f 595/1/6 590/1/6 596/1/6
f 590/2/6 591/2/6 597/2/6
f 596/1/6 590/1/6 597/1/6
f 592/1/6 593/1/6 598/1/6
f 597/2/6 591/2/6 598/2/6
f 591/1/6 592/1/6 598/1/6
f 598/1/6 593/1/6 599/1/6
f 599/1/6 593/1/6 600/1/6
f 596/1/6 597/1/6 601/1/6
f 598/1/6 599/1/6 601/1/6
f 597/1/6 598/1/6 601/1/6
f 601/1/6 599/1/6 602/1/6
