# MagicaVoxel @ Ephtracy

# group
o 

# material
mtllib well_roof.mtl
usemtl palette

# normals
vn -1 0 0
vn 1 0 0
vn 0 0 1
vn 0 0 -1
vn 0 -1 0
vn 0 1 0

# texcoords
vt 0.00195313 0.5
vt 0.00585938 0.5

# verts
v -1.4 1.5 1.5
v -1.4 1.5 -1.6
v -1.4 1.6 1.5
v -1.4 1.6 -1.6
v -1.1 1.6 1.5
v -1.1 1.6 -1.6
v -1.1 1.7 1.5
v -1.1 1.7 -1.6
v -0.8 1.7 1.5
v -0.8 1.7 -1.6
v -0.8 1.8 1.5
v -0.8 1.8 -1.6
v -0.5 1.5 1.2
v -0.5 1.5 1.1
v -0.5 1.5 -1.2
v -0.5 1.5 -1.3
v -0.5 1.7 1.2
v -0.5 1.7 1.1
v -0.5 1.7 -1.2
v -0.5 1.7 -1.3
v -0.5 1.8 1.5
v -0.5 1.8 -1.6
v -0.5 1.9 1.5
v -0.5 1.9 -1.6
v -0.4 1.4 1.2
v -0.4 1.4 1.1
v -0.4 1.4 -1.2
v -0.4 1.4 -1.3
v -0.4 1.5 1.2
v -0.4 1.5 1.1
v -0.4 1.5 -1.2
v -0.4 1.5 -1.3
v -0.3 1.3 1.2
v -0.3 1.3 1.1
v -0.3 1.3 -1.2
v -0.3 1.3 -1.3
v -0.3 1.4 1.2
v -0.3 1.4 1.1
v -0.3 1.4 -1.2
v -0.3 1.4 -1.3
v -0.3 1.9 1.5
v -0.3 1.9 -1.6
v -0.3 2.1 1.5
v -0.3 2.1 -1.6
v -0.2 0 1.3
v -0.2 0 0.9
v -0.2 0 -1
v -0.2 0 -1.4
v -0.2 1.2 1.3
v -0.2 1.2 1.2
v -0.2 1.2 1.1
v -0.2 1.2 0.9
v -0.2 1.2 -1
v -0.2 1.2 -1.2
v -0.2 1.2 -1.3
v -0.2 1.2 -1.4
v -0.2 1.3 1.2
v -0.2 1.3 1.1
v -0.2 1.3 -1.2
v -0.2 1.3 -1.3
v -0.2 2.1 1.5
v -0.2 2.1 -1.6
v -0.2 2.2 1.5
v -0.2 2.2 -1.6
v -0.1 1.2 1.1
v -0.1 1.2 1
v -0.1 1.2 -1.1
v -0.1 1.2 -1.2
v -0.1 1.4 1.2
v -0.1 1.4 1.1
v -0.1 1.4 -1.2
v -0.1 1.4 -1.3
v -0.1 1.9 1.1
v -0.1 1.9 1
v -0.1 2 1.2
v -0.1 2 1.1
v -0.1 2 -1.1
v -0.1 2 -1.3
v -0.1 2.2 1.5
v -0.1 2.2 -1.6
v -0.1 2.3 1.5
v -0.1 2.3 -1.6
v 0.2 1.7 1.5
v 0.2 1.7 1.2
v 0.2 1.7 1
v 0.2 1.7 -1.1
v 0.2 1.7 -1.3
v 0.2 1.7 -1.6
v 0.2 1.9 1.1
v 0.2 1.9 1
v 0.2 2 1.5
v 0.2 2 1.2
v 0.2 2 1.1
v 0.2 2 -1.1
v 0.2 2 -1.3
v 0.2 2 -1.6
v 0.3 1.4 1.2
v 0.3 1.4 1.1
v 0.3 1.4 -1.2
v 0.3 1.4 -1.3
v 0.3 1.5 1.2
v 0.3 1.5 1.1
v 0.3 1.5 -1.2
v 0.3 1.5 -1.3
v 0.4 1.5 1.2
v 0.4 1.5 1.1
v 0.4 1.5 -1.2
v 0.4 1.5 -1.3
v 0.4 1.6 1.2
v 0.4 1.6 1.1
v 0.4 1.6 -1.2
v 0.4 1.6 -1.3
v 0.5 1.6 1.2
v 0.5 1.6 1.1
v 0.5 1.6 -1.2
v 0.5 1.6 -1.3
v 0.5 1.7 1.2
v 0.5 1.7 1.1
v 0.5 1.7 -1.2
v 0.5 1.7 -1.3
v 0.7 1.6 1.5
v 0.7 1.6 -1.6
v 0.7 1.7 1.5
v 0.7 1.7 -1.6
v 1 1.5 1.5
v 1 1.5 -1.6
v 1 1.6 1.5
v 1 1.6 -1.6
v -1 1.5 1.5
v -1 1.5 -1.6
v -1 1.6 1.5
v -1 1.6 -1.6
v -0.7 1.6 1.5
v -0.7 1.6 -1.6
v -0.7 1.7 1.5
v -0.7 1.7 -1.6
v -0.4 1.6 1.2
v -0.4 1.6 1.1
v -0.4 1.6 -1.2
v -0.4 1.6 -1.3
v -0.4 1.7 1.2
v -0.4 1.7 1.1
v -0.4 1.7 -1.2
v -0.4 1.7 -1.3
v -0.3 1.5 1.2
v -0.3 1.5 1.1
v -0.3 1.5 -1.2
v -0.3 1.5 -1.3
v -0.3 1.6 1.2
v -0.3 1.6 1.1
v -0.3 1.6 -1.2
v -0.3 1.6 -1.3
v -0.2 1.4 1.2
v -0.2 1.4 1.1
v -0.2 1.4 -1.2
v -0.2 1.4 -1.3
v -0.2 1.5 1.2
v -0.2 1.5 1.1
v -0.2 1.5 -1.2
v -0.2 1.5 -1.3
v -0.2 1.7 1.5
v -0.2 1.7 -1.6
v -0.2 2 1.5
v -0.2 2 -1.6
v 0.1 2.2 1.5
v 0.1 2.2 -1.6
v 0.1 2.3 1.5
v 0.1 2.3 -1.6
v 0.2 1.2 1.1
v 0.2 1.2 1
v 0.2 1.2 -1.1
v 0.2 1.2 -1.2
v 0.2 1.4 1.2
v 0.2 1.4 1.1
v 0.2 1.4 -1.2
v 0.2 1.4 -1.3
v 0.2 1.7 1.2
v 0.2 1.7 1
v 0.2 1.7 -1.1
v 0.2 1.7 -1.3
v 0.2 2.1 1.5
v 0.2 2.1 -1.6
v 0.2 2.2 1.5
v 0.2 2.2 -1.6
v 0.3 0 1.3
v 0.3 0 0.9
v 0.3 0 -1
v 0.3 0 -1.4
v 0.3 1.2 1.3
v 0.3 1.2 1.2
v 0.3 1.2 1.1
v 0.3 1.2 0.9
v 0.3 1.2 -1
v 0.3 1.2 -1.2
v 0.3 1.2 -1.3
v 0.3 1.2 -1.4
v 0.3 1.3 1.2
v 0.3 1.3 1.1
v 0.3 1.3 -1.2
v 0.3 1.3 -1.3
v 0.3 1.9 1.5
v 0.3 1.9 -1.6
v 0.3 2.1 1.5
v 0.3 2.1 -1.6
v 0.4 1.3 1.2
v 0.4 1.3 1.1
v 0.4 1.3 -1.2
v 0.4 1.3 -1.3
v 0.4 1.4 1.2
v 0.4 1.4 1.1
v 0.4 1.4 -1.2
v 0.4 1.4 -1.3
v 0.5 1.4 1.2
v 0.5 1.4 1.1
v 0.5 1.4 -1.2
v 0.5 1.4 -1.3
v 0.5 1.5 1.2
v 0.5 1.5 1.1
v 0.5 1.5 -1.2
v 0.5 1.5 -1.3
v 0.5 1.8 1.5
v 0.5 1.8 -1.6
v 0.5 1.9 1.5
v 0.5 1.9 -1.6
v 0.6 1.5 1.2
v 0.6 1.5 1.1
v 0.6 1.5 -1.2
v 0.6 1.5 -1.3
v 0.6 1.7 1.2
v 0.6 1.7 1.1
v 0.6 1.7 -1.2
v 0.6 1.7 -1.3
v 0.8 1.7 1.5
v 0.8 1.7 -1.6
v 0.8 1.8 1.5
v 0.8 1.8 -1.6
v 1.1 1.6 1.5
v 1.1 1.6 -1.6
v 1.1 1.7 1.5
v 1.1 1.7 -1.6
v 1.4 1.5 1.5
v 1.4 1.5 -1.6
v 1.4 1.6 1.5
v 1.4 1.6 -1.6
v -1.4 1.5 1.5
v -1.4 1.6 1.5
v -1.1 1.6 1.5
v -1.1 1.7 1.5
v -1 1.5 1.5
v -1 1.6 1.5
v -0.8 1.7 1.5
v -0.8 1.8 1.5
v -0.7 1.6 1.5
v -0.7 1.7 1.5
v -0.5 1.8 1.5
v -0.5 1.9 1.5
v -0.3 1.9 1.5
v -0.3 2.1 1.5
v -0.2 1.7 1.5
v -0.2 2 1.5
v -0.2 2.1 1.5
v -0.2 2.2 1.5
v -0.1 2.2 1.5
v -0.1 2.3 1.5
v 0.1 2.2 1.5
v 0.1 2.3 1.5
v 0.2 1.7 1.5
v 0.2 2 1.5
v 0.2 2.1 1.5
v 0.2 2.2 1.5
v 0.3 1.9 1.5
v 0.3 2.1 1.5
v 0.5 1.8 1.5
v 0.5 1.9 1.5
v 0.7 1.6 1.5
v 0.7 1.7 1.5
v 0.8 1.7 1.5
v 0.8 1.8 1.5
v 1 1.5 1.5
v 1 1.6 1.5
v 1.1 1.6 1.5
v 1.1 1.7 1.5
v 1.4 1.5 1.5
v 1.4 1.6 1.5
v -0.2 0 1.3
v -0.2 1.2 1.3
v 0.3 0 1.3
v 0.3 1.2 1.3
v -0.5 1.5 1.2
v -0.5 1.7 1.2
v -0.4 1.4 1.2
v -0.4 1.5 1.2
v -0.4 1.6 1.2
v -0.4 1.7 1.2
v -0.3 1.3 1.2
v -0.3 1.4 1.2
v -0.3 1.5 1.2
v -0.3 1.6 1.2
v -0.2 1.2 1.2
v -0.2 1.3 1.2
v -0.2 1.4 1.2
v -0.2 1.5 1.2
v -0.1 1.4 1.2
v -0.1 2 1.2
v 0.2 1.4 1.2
v 0.2 1.7 1.2
v 0.2 2 1.2
v 0.3 1.2 1.2
v 0.3 1.3 1.2
v 0.3 1.4 1.2
v 0.3 1.5 1.2
v 0.4 1.3 1.2
v 0.4 1.4 1.2
v 0.4 1.5 1.2
v 0.4 1.6 1.2
v 0.5 1.4 1.2
v 0.5 1.5 1.2
v 0.5 1.6 1.2
v 0.5 1.7 1.2
v 0.6 1.5 1.2
v 0.6 1.7 1.2
v -0.2 0 -1
v -0.2 1.2 -1
v 0.3 0 -1
v 0.3 1.2 -1
v -0.1 1.2 -1.1
v -0.1 2 -1.1
v 0.2 1.2 -1.1
v 0.2 1.7 -1.1
v 0.2 2 -1.1
v -0.5 1.5 -1.2
v -0.5 1.7 -1.2
v -0.4 1.4 -1.2
v -0.4 1.5 -1.2
v -0.4 1.6 -1.2
v -0.4 1.7 -1.2
v -0.3 1.3 -1.2
v -0.3 1.4 -1.2
v -0.3 1.5 -1.2
v -0.3 1.6 -1.2
v -0.2 1.2 -1.2
v -0.2 1.3 -1.2
v -0.2 1.4 -1.2
v -0.2 1.5 -1.2
v -0.1 1.2 -1.2
v -0.1 1.4 -1.2
v 0.2 1.2 -1.2
v 0.2 1.4 -1.2
v 0.3 1.2 -1.2
v 0.3 1.3 -1.2
v 0.3 1.4 -1.2
v 0.3 1.5 -1.2
v 0.4 1.3 -1.2
v 0.4 1.4 -1.2
v 0.4 1.5 -1.2
v 0.4 1.6 -1.2
v 0.5 1.4 -1.2
v 0.5 1.5 -1.2
v 0.5 1.6 -1.2
v 0.5 1.7 -1.2
v 0.6 1.5 -1.2
v 0.6 1.7 -1.2
v -0.5 1.5 1.1
v -0.5 1.7 1.1
v -0.4 1.4 1.1
v -0.4 1.5 1.1
v -0.4 1.6 1.1
v -0.4 1.7 1.1
v -0.3 1.3 1.1
v -0.3 1.4 1.1
v -0.3 1.5 1.1
v -0.3 1.6 1.1
v -0.2 1.2 1.1
v -0.2 1.3 1.1
v -0.2 1.4 1.1
v -0.2 1.5 1.1
v -0.1 1.2 1.1
v -0.1 1.4 1.1
v -0.1 1.9 1.1
v -0.1 2 1.1
v 0.2 1.2 1.1
v 0.2 1.4 1.1
v 0.2 1.9 1.1
v 0.2 2 1.1
v 0.3 1.2 1.1
v 0.3 1.3 1.1
v 0.3 1.4 1.1
v 0.3 1.5 1.1
v 0.4 1.3 1.1
v 0.4 1.4 1.1
v 0.4 1.5 1.1
v 0.4 1.6 1.1
v 0.5 1.4 1.1
v 0.5 1.5 1.1
v 0.5 1.6 1.1
v 0.5 1.7 1.1
v 0.6 1.5 1.1
v 0.6 1.7 1.1
v -0.1 1.2 1
v -0.1 1.9 1
v 0.2 1.2 1
v 0.2 1.7 1
v 0.2 1.9 1
v -0.2 0 0.9
v -0.2 1.2 0.9
v 0.3 0 0.9
v 0.3 1.2 0.9
v -0.5 1.5 -1.3
v -0.5 1.7 -1.3
v -0.4 1.4 -1.3
v -0.4 1.5 -1.3
v -0.4 1.6 -1.3
v -0.4 1.7 -1.3
v -0.3 1.3 -1.3
v -0.3 1.4 -1.3
v -0.3 1.5 -1.3
v -0.3 1.6 -1.3
v -0.2 1.2 -1.3
v -0.2 1.3 -1.3
v -0.2 1.4 -1.3
v -0.2 1.5 -1.3
v -0.1 1.4 -1.3
v -0.1 2 -1.3
v 0.2 1.4 -1.3
v 0.2 1.7 -1.3
v 0.2 2 -1.3
v 0.3 1.2 -1.3
v 0.3 1.3 -1.3
v 0.3 1.4 -1.3
v 0.3 1.5 -1.3
v 0.4 1.3 -1.3
v 0.4 1.4 -1.3
v 0.4 1.5 -1.3
v 0.4 1.6 -1.3
v 0.5 1.4 -1.3
v 0.5 1.5 -1.3
v 0.5 1.6 -1.3
v 0.5 1.7 -1.3
v 0.6 1.5 -1.3
v 0.6 1.7 -1.3
v -0.2 0 -1.4
v -0.2 1.2 -1.4
v 0.3 0 -1.4
v 0.3 1.2 -1.4
v -1.4 1.5 -1.6
v -1.4 1.6 -1.6
v -1.1 1.6 -1.6
v -1.1 1.7 -1.6
v -1 1.5 -1.6
v -1 1.6 -1.6
v -0.8 1.7 -1.6
v -0.8 1.8 -1.6
v -0.7 1.6 -1.6
v -0.7 1.7 -1.6
v -0.5 1.8 -1.6
v -0.5 1.9 -1.6
v -0.3 1.9 -1.6
v -0.3 2.1 -1.6
v -0.2 1.7 -1.6
v -0.2 2 -1.6
v -0.2 2.1 -1.6
v -0.2 2.2 -1.6
v -0.1 2.2 -1.6
v -0.1 2.3 -1.6
v 0.1 2.2 -1.6
v 0.1 2.3 -1.6
v 0.2 1.7 -1.6
v 0.2 2 -1.6
v 0.2 2.1 -1.6
v 0.2 2.2 -1.6
v 0.3 1.9 -1.6
v 0.3 2.1 -1.6
v 0.5 1.8 -1.6
v 0.5 1.9 -1.6
v 0.7 1.6 -1.6
v 0.7 1.7 -1.6
v 0.8 1.7 -1.6
v 0.8 1.8 -1.6
v 1 1.5 -1.6
v 1 1.6 -1.6
v 1.1 1.6 -1.6
v 1.1 1.7 -1.6
v 1.4 1.5 -1.6
v 1.4 1.6 -1.6
v -0.2 0 1.3
v 0.3 0 1.3
v -0.2 0 0.9
v 0.3 0 0.9
v -0.2 0 -1
v 0.3 0 -1
v -0.2 0 -1.4
v 0.3 0 -1.4
v -0.3 1.3 1.2
v -0.2 1.3 1.2
v 0.3 1.3 1.2
v 0.4 1.3 1.2
v -0.3 1.3 1.1
v -0.2 1.3 1.1
v 0.3 1.3 1.1
v 0.4 1.3 1.1
v -0.3 1.3 -1.2
v -0.2 1.3 -1.2
v 0.3 1.3 -1.2
v 0.4 1.3 -1.2
v -0.3 1.3 -1.3
v -0.2 1.3 -1.3
v 0.3 1.3 -1.3
v 0.4 1.3 -1.3
v -0.4 1.4 1.2
v -0.3 1.4 1.2
v 0.4 1.4 1.2
v 0.5 1.4 1.2
v -0.4 1.4 1.1
v -0.3 1.4 1.1
v 0.4 1.4 1.1
v 0.5 1.4 1.1
v -0.4 1.4 -1.2
v -0.3 1.4 -1.2
v 0.4 1.4 -1.2
v 0.5 1.4 -1.2
v -0.4 1.4 -1.3
v -0.3 1.4 -1.3
v 0.4 1.4 -1.3
v 0.5 1.4 -1.3
v -1.4 1.5 1.5
v -1 1.5 1.5
v 1 1.5 1.5
v 1.4 1.5 1.5
v -0.5 1.5 1.2
v -0.4 1.5 1.2
v 0.5 1.5 1.2
v 0.6 1.5 1.2
v -0.5 1.5 1.1
v -0.4 1.5 1.1
v 0.5 1.5 1.1
v 0.6 1.5 1.1
v -0.5 1.5 -1.2
v -0.4 1.5 -1.2
v 0.5 1.5 -1.2
v 0.6 1.5 -1.2
v -0.5 1.5 -1.3
v -0.4 1.5 -1.3
v 0.5 1.5 -1.3
v 0.6 1.5 -1.3
v -1.4 1.5 -1.6
v -1 1.5 -1.6
v 1 1.5 -1.6
v 1.4 1.5 -1.6
v -1 1.6 1.5
v -0.7 1.6 1.5
v 0.7 1.6 1.5
v 1 1.6 1.5
v -1 1.6 -1.6
v -0.7 1.6 -1.6
v 0.7 1.6 -1.6
v 1 1.6 -1.6
v -0.7 1.7 1.5
v -0.2 1.7 1.5
v 0.2 1.7 1.5
v 0.7 1.7 1.5
v -0.5 1.7 1.2
v -0.4 1.7 1.2
v 0.2 1.7 1.2
v 0.5 1.7 1.2
v 0.6 1.7 1.2
v -0.5 1.7 1.1
v -0.4 1.7 1.1
v 0.5 1.7 1.1
v 0.6 1.7 1.1
v 0.2 1.7 1
v 0.2 1.7 -1.1
v -0.5 1.7 -1.2
v -0.4 1.7 -1.2
v 0.5 1.7 -1.2
v 0.6 1.7 -1.2
v -0.5 1.7 -1.3
v -0.4 1.7 -1.3
v 0.2 1.7 -1.3
v 0.5 1.7 -1.3
v 0.6 1.7 -1.3
v -0.7 1.7 -1.6
v -0.2 1.7 -1.6
v 0.2 1.7 -1.6
v 0.7 1.7 -1.6
v -0.2 2 1.5
v 0.2 2 1.5
v -0.1 2 1.2
v 0.2 2 1.2
v -0.1 2 1.1
v 0.2 2 1.1
v -0.1 2 -1.1
v 0.2 2 -1.1
v -0.1 2 -1.3
v 0.2 2 -1.3
v -0.2 2 -1.6
v 0.2 2 -1.6
v -0.2 1.2 1.3
v 0.3 1.2 1.3
v -0.2 1.2 1.2
v 0.3 1.2 1.2
v -0.2 1.2 1.1
v -0.1 1.2 1.1
v 0.2 1.2 1.1
v 0.3 1.2 1.1
v -0.1 1.2 1
v 0.2 1.2 1
v -0.2 1.2 0.9
v 0.3 1.2 0.9
v -0.2 1.2 -1
v 0.3 1.2 -1
v -0.1 1.2 -1.1
v 0.2 1.2 -1.1
v -0.2 1.2 -1.2
v -0.1 1.2 -1.2
v 0.2 1.2 -1.2
v 0.3 1.2 -1.2
v -0.2 1.2 -1.3
v 0.3 1.2 -1.3
v -0.2 1.2 -1.4
v 0.3 1.2 -1.4
v -0.2 1.4 1.2
v -0.1 1.4 1.2
v 0.2 1.4 1.2
v 0.3 1.4 1.2
v -0.2 1.4 1.1
v -0.1 1.4 1.1
v 0.2 1.4 1.1
v 0.3 1.4 1.1
v -0.2 1.4 -1.2
v -0.1 1.4 -1.2
v 0.2 1.4 -1.2
v 0.3 1.4 -1.2
v -0.2 1.4 -1.3
v -0.1 1.4 -1.3
v 0.2 1.4 -1.3
v 0.3 1.4 -1.3
v -0.3 1.5 1.2
v -0.2 1.5 1.2
v 0.3 1.5 1.2
v 0.4 1.5 1.2
v -0.3 1.5 1.1
v -0.2 1.5 1.1
v 0.3 1.5 1.1
v 0.4 1.5 1.1
v -0.3 1.5 -1.2
v -0.2 1.5 -1.2
v 0.3 1.5 -1.2
v 0.4 1.5 -1.2
v -0.3 1.5 -1.3
v -0.2 1.5 -1.3
v 0.3 1.5 -1.3
v 0.4 1.5 -1.3
v -1.4 1.6 1.5
v -1.1 1.6 1.5
v 1.1 1.6 1.5
v 1.4 1.6 1.5
v -0.4 1.6 1.2
v -0.3 1.6 1.2
v 0.4 1.6 1.2
v 0.5 1.6 1.2
v -0.4 1.6 1.1
v -0.3 1.6 1.1
v 0.4 1.6 1.1
v 0.5 1.6 1.1
v -0.4 1.6 -1.2
v -0.3 1.6 -1.2
v 0.4 1.6 -1.2
v 0.5 1.6 -1.2
v -0.4 1.6 -1.3
v -0.3 1.6 -1.3
v 0.4 1.6 -1.3
v 0.5 1.6 -1.3
v -1.4 1.6 -1.6
v -1.1 1.6 -1.6
v 1.1 1.6 -1.6
v 1.4 1.6 -1.6
v -1.1 1.7 1.5
v -0.8 1.7 1.5
v 0.8 1.7 1.5
v 1.1 1.7 1.5
v -1.1 1.7 -1.6
v -0.8 1.7 -1.6
v 0.8 1.7 -1.6
v 1.1 1.7 -1.6
v -0.8 1.8 1.5
v -0.5 1.8 1.5
v 0.5 1.8 1.5
v 0.8 1.8 1.5
v -0.8 1.8 -1.6
v -0.5 1.8 -1.6
v 0.5 1.8 -1.6
v 0.8 1.8 -1.6
v -0.5 1.9 1.5
v -0.3 1.9 1.5
v 0.3 1.9 1.5
v 0.5 1.9 1.5
v -0.1 1.9 1.1
v 0.2 1.9 1.1
v -0.1 1.9 1
v 0.2 1.9 1
v -0.5 1.9 -1.6
v -0.3 1.9 -1.6
v 0.3 1.9 -1.6
v 0.5 1.9 -1.6
v -0.3 2.1 1.5
v -0.2 2.1 1.5
v 0.2 2.1 1.5
v 0.3 2.1 1.5
v -0.3 2.1 -1.6
v -0.2 2.1 -1.6
v 0.2 2.1 -1.6
v 0.3 2.1 -1.6
v -0.2 2.2 1.5
v -0.1 2.2 1.5
v 0.1 2.2 1.5
v 0.2 2.2 1.5
v -0.2 2.2 -1.6
v -0.1 2.2 -1.6
v 0.1 2.2 -1.6
v 0.2 2.2 -1.6
v -0.1 2.3 1.5
v 0.1 2.3 1.5
v -0.1 2.3 -1.6
v 0.1 2.3 -1.6

# faces
f 3/2/1 2/2/1 1/2/1
f 4/2/1 2/2/1 3/2/1
f 7/2/1 6/2/1 5/2/1
f 8/2/1 6/2/1 7/2/1
f 11/2/1 10/2/1 9/2/1
f 12/2/1 10/2/1 11/2/1
f 17/1/1 14/1/1 13/1/1
f 18/1/1 14/1/1 17/1/1
f 19/1/1 16/1/1 15/1/1
f 20/1/1 16/1/1 19/1/1
f 23/2/1 22/2/1 21/2/1
f 24/2/1 22/2/1 23/2/1
f 29/1/1 26/1/1 25/1/1
f 30/1/1 26/1/1 29/1/1
f 31/1/1 28/1/1 27/1/1
f 32/1/1 28/1/1 31/1/1
f 37/1/1 34/1/1 33/1/1
f 38/1/1 34/1/1 37/1/1
f 39/1/1 36/1/1 35/1/1
f 40/1/1 36/1/1 39/1/1
f 43/2/1 42/2/1 41/2/1
f 44/2/1 42/2/1 43/2/1
f 49/1/1 46/1/1 45/1/1
f 50/1/1 46/1/1 49/1/1
f 51/1/1 46/1/1 50/1/1
f 52/1/1 46/1/1 51/1/1
f 53/1/1 48/1/1 47/1/1
f 54/1/1 48/1/1 53/1/1
f 55/1/1 48/1/1 54/1/1
f 56/1/1 48/1/1 55/1/1
f 57/1/1 51/1/1 50/1/1
f 58/1/1 51/1/1 57/1/1
f 59/1/1 55/1/1 54/1/1
f 60/1/1 55/1/1 59/1/1
f 63/2/1 62/2/1 61/2/1
f 64/2/1 62/2/1 63/2/1
f 70/1/1 66/1/1 65/1/1
f 71/1/1 68/1/1 67/1/1
f 73/1/1 70/1/1 69/1/1
f 73/1/1 66/1/1 70/1/1
f 74/1/1 66/1/1 73/1/1
f 75/1/1 73/1/1 69/1/1
f 76/1/1 73/1/1 75/1/1
f 77/1/1 72/1/1 71/1/1
f 77/1/1 71/1/1 67/1/1
f 78/1/1 72/1/1 77/1/1
f 81/2/1 80/2/1 79/2/1
f 82/2/1 80/2/1 81/2/1
f 90/2/1 86/2/1 85/2/1
f 91/2/1 84/2/1 83/2/1
f 92/2/1 84/2/1 91/2/1
f 93/2/1 90/2/1 89/2/1
f 94/2/1 86/2/1 90/2/1
f 94/2/1 90/2/1 93/2/1
f 95/2/1 88/2/1 87/2/1
f 96/2/1 88/2/1 95/2/1
f 101/1/1 98/1/1 97/1/1
f 102/1/1 98/1/1 101/1/1
f 103/1/1 100/1/1 99/1/1
f 104/1/1 100/1/1 103/1/1
f 109/1/1 106/1/1 105/1/1
f 110/1/1 106/1/1 109/1/1
f 111/1/1 108/1/1 107/1/1
f 112/1/1 108/1/1 111/1/1
f 117/1/1 114/1/1 113/1/1
f 118/1/1 114/1/1 117/1/1
f 119/1/1 116/1/1 115/1/1
f 120/1/1 116/1/1 119/1/1
f 123/2/1 122/2/1 121/2/1
f 124/2/1 122/2/1 123/2/1
f 127/2/1 126/2/1 125/2/1
f 128/2/1 126/2/1 127/2/1
f 129/2/2 130/2/2 131/2/2
f 131/2/2 130/2/2 132/2/2
f 133/2/2 134/2/2 135/2/2
f 135/2/2 134/2/2 136/2/2
f 137/1/2 138/1/2 141/1/2
f 141/1/2 138/1/2 142/1/2
f 139/1/2 140/1/2 143/1/2
f 143/1/2 140/1/2 144/1/2
f 145/1/2 146/1/2 149/1/2
f 149/1/2 146/1/2 150/1/2
f 147/1/2 148/1/2 151/1/2
f 151/1/2 148/1/2 152/1/2
f 153/1/2 154/1/2 157/1/2
f 157/1/2 154/1/2 158/1/2
f 155/1/2 156/1/2 159/1/2
f 159/1/2 156/1/2 160/1/2
f 161/2/2 162/2/2 163/2/2
f 163/2/2 162/2/2 164/2/2
f 165/2/2 166/2/2 167/2/2
f 167/2/2 166/2/2 168/2/2
f 169/1/2 170/1/2 174/1/2
f 171/1/2 172/1/2 175/1/2
f 173/1/2 174/1/2 177/1/2
f 174/1/2 170/1/2 178/1/2
f 177/1/2 174/1/2 178/1/2
f 175/1/2 176/1/2 179/1/2
f 171/1/2 175/1/2 179/1/2
f 179/1/2 176/1/2 180/1/2
f 181/2/2 182/2/2 183/2/2
f 183/2/2 182/2/2 184/2/2
f 185/1/2 186/1/2 189/1/2
f 189/1/2 186/1/2 190/1/2
f 190/1/2 186/1/2 191/1/2
f 191/1/2 186/1/2 192/1/2
f 187/1/2 188/1/2 193/1/2
f 193/1/2 188/1/2 194/1/2
f 194/1/2 188/1/2 195/1/2
f 195/1/2 188/1/2 196/1/2
f 190/1/2 191/1/2 197/1/2
f 197/1/2 191/1/2 198/1/2
f 194/1/2 195/1/2 199/1/2
f 199/1/2 195/1/2 200/1/2
f 201/2/2 202/2/2 203/2/2
f 203/2/2 202/2/2 204/2/2
f 205/1/2 206/1/2 209/1/2
f 209/1/2 206/1/2 210/1/2
f 207/1/2 208/1/2 211/1/2
f 211/1/2 208/1/2 212/1/2
f 213/1/2 214/1/2 217/1/2
f 217/1/2 214/1/2 218/1/2
f 215/1/2 216/1/2 219/1/2
f 219/1/2 216/1/2 220/1/2
f 221/2/2 222/2/2 223/2/2
f 223/2/2 222/2/2 224/2/2
f 225/1/2 226/1/2 229/1/2
f 229/1/2 226/1/2 230/1/2
f 227/1/2 228/1/2 231/1/2
f 231/1/2 228/1/2 232/1/2
f 233/2/2 234/2/2 235/2/2
f 235/2/2 234/2/2 236/2/2
f 237/2/2 238/2/2 239/2/2
f 239/2/2 238/2/2 240/2/2
f 241/2/2 242/2/2 243/2/2
f 243/2/2 242/2/2 244/2/2
f 247/2/3 246/2/3 245/2/3
f 249/2/3 247/2/3 245/2/3
f 249/2/3 248/2/3 247/2/3
f 250/2/3 248/2/3 249/2/3
f 251/2/3 248/2/3 250/2/3
f 253/2/3 251/2/3 250/2/3
f 253/2/3 252/2/3 251/2/3
f 254/2/3 252/2/3 253/2/3
f 255/2/3 252/2/3 254/2/3
f 257/2/3 256/2/3 255/2/3
f 259/2/3 255/2/3 254/2/3
f 259/2/3 258/2/3 257/2/3
f 259/2/3 257/2/3 255/2/3
f 260/2/3 258/2/3 259/2/3
f 261/2/3 258/2/3 260/2/3
f 263/2/3 262/2/3 261/2/3
f 263/2/3 261/2/3 260/2/3
f 265/2/3 263/2/3 260/2/3
f 265/2/3 264/2/3 263/2/3
f 266/2/3 264/2/3 265/2/3
f 268/2/3 265/2/3 260/2/3
f 269/2/3 265/2/3 268/2/3
f 270/2/3 265/2/3 269/2/3
f 271/2/3 268/2/3 267/2/3
f 271/2/3 269/2/3 268/2/3
f 272/2/3 269/2/3 271/2/3
f 273/2/3 271/2/3 267/2/3
f 274/2/3 271/2/3 273/2/3
f 276/2/3 273/2/3 267/2/3
f 277/2/3 273/2/3 276/2/3
f 277/2/3 276/2/3 275/2/3
f 278/2/3 273/2/3 277/2/3
f 280/2/3 277/2/3 275/2/3
f 281/2/3 277/2/3 280/2/3
f 281/2/3 280/2/3 279/2/3
f 282/2/3 277/2/3 281/2/3
f 283/2/3 281/2/3 279/2/3
f 284/2/3 281/2/3 283/2/3
f 287/1/3 286/1/3 285/1/3
f 288/1/3 286/1/3 287/1/3
f 292/1/3 290/1/3 289/1/3
f 293/1/3 290/1/3 292/1/3
f 294/1/3 290/1/3 293/1/3
f 296/1/3 292/1/3 291/1/3
f 296/1/3 293/1/3 292/1/3
f 297/1/3 293/1/3 296/1/3
f 298/1/3 293/1/3 297/1/3
f 300/1/3 296/1/3 295/1/3
f 300/1/3 297/1/3 296/1/3
f 301/1/3 297/1/3 300/1/3
f 302/1/3 297/1/3 301/1/3
f 303/1/3 300/1/3 299/1/3
f 303/1/3 301/1/3 300/1/3
f 305/1/3 303/1/3 299/1/3
f 305/1/3 304/1/3 303/1/3
f 306/1/3 304/1/3 305/1/3
f 307/1/3 304/1/3 306/1/3
f 308/1/3 305/1/3 299/1/3
f 309/1/3 305/1/3 308/1/3
f 310/1/3 305/1/3 309/1/3
f 312/1/3 311/1/3 310/1/3
f 312/1/3 310/1/3 309/1/3
f 313/1/3 311/1/3 312/1/3
f 314/1/3 311/1/3 313/1/3
f 316/1/3 315/1/3 314/1/3
f 316/1/3 314/1/3 313/1/3
f 317/1/3 315/1/3 316/1/3
f 318/1/3 315/1/3 317/1/3
f 320/1/3 319/1/3 318/1/3
f 320/1/3 318/1/3 317/1/3
f 321/1/3 319/1/3 320/1/3
f 324/1/3 323/1/3 322/1/3
f 325/1/3 323/1/3 324/1/3
f 328/1/3 327/1/3 326/1/3
f 329/1/3 327/1/3 328/1/3
f 330/1/3 327/1/3 329/1/3
f 334/1/3 332/1/3 331/1/3
f 335/1/3 332/1/3 334/1/3
f 336/1/3 332/1/3 335/1/3
f 338/1/3 334/1/3 333/1/3
f 338/1/3 335/1/3 334/1/3
f 339/1/3 335/1/3 338/1/3
f 340/1/3 335/1/3 339/1/3
f 342/1/3 338/1/3 337/1/3
f 342/1/3 339/1/3 338/1/3
f 343/1/3 339/1/3 342/1/3
f 344/1/3 339/1/3 343/1/3
f 345/1/3 342/1/3 341/1/3
f 345/1/3 343/1/3 342/1/3
f 346/1/3 343/1/3 345/1/3
f 349/1/3 348/1/3 347/1/3
f 350/1/3 348/1/3 349/1/3
f 351/1/3 348/1/3 350/1/3
f 353/1/3 351/1/3 350/1/3
f 353/1/3 352/1/3 351/1/3
f 354/1/3 352/1/3 353/1/3
f 355/1/3 352/1/3 354/1/3
f 357/1/3 355/1/3 354/1/3
f 357/1/3 356/1/3 355/1/3
f 358/1/3 356/1/3 357/1/3
f 359/1/3 356/1/3 358/1/3
f 361/1/3 359/1/3 358/1/3
f 361/1/3 360/1/3 359/1/3
f 362/1/3 360/1/3 361/1/3
f 363/1/4 364/1/4 366/1/4
f 366/1/4 364/1/4 367/1/4
f 367/1/4 364/1/4 368/1/4
f 365/1/4 366/1/4 370/1/4
f 366/1/4 367/1/4 370/1/4
f 370/1/4 367/1/4 371/1/4
f 371/1/4 367/1/4 372/1/4
f 369/1/4 370/1/4 374/1/4
f 370/1/4 371/1/4 374/1/4
f 374/1/4 371/1/4 375/1/4
f 375/1/4 371/1/4 376/1/4
f 373/1/4 374/1/4 377/1/4
f 374/1/4 375/1/4 377/1/4
f 377/1/4 375/1/4 378/1/4
f 379/1/4 380/1/4 383/1/4
f 383/1/4 380/1/4 384/1/4
f 381/1/4 382/1/4 385/1/4
f 385/1/4 382/1/4 386/1/4
f 386/1/4 382/1/4 387/1/4
f 387/1/4 388/1/4 389/1/4
f 386/1/4 387/1/4 389/1/4
f 389/1/4 388/1/4 390/1/4
f 390/1/4 388/1/4 391/1/4
f 391/1/4 392/1/4 393/1/4
f 390/1/4 391/1/4 393/1/4
f 393/1/4 392/1/4 394/1/4
f 394/1/4 392/1/4 395/1/4
f 395/1/4 396/1/4 397/1/4
f 394/1/4 395/1/4 397/1/4
f 397/1/4 396/1/4 398/1/4
f 399/1/4 400/1/4 401/1/4
f 401/1/4 400/1/4 402/1/4
f 402/1/4 400/1/4 403/1/4
f 404/1/4 405/1/4 406/1/4
f 406/1/4 405/1/4 407/1/4
f 408/1/4 409/1/4 411/1/4
f 411/1/4 409/1/4 412/1/4
f 412/1/4 409/1/4 413/1/4
f 410/1/4 411/1/4 415/1/4
f 411/1/4 412/1/4 415/1/4
f 415/1/4 412/1/4 416/1/4
f 416/1/4 412/1/4 417/1/4
f 414/1/4 415/1/4 419/1/4
f 415/1/4 416/1/4 419/1/4
f 419/1/4 416/1/4 420/1/4
f 420/1/4 416/1/4 421/1/4
f 418/1/4 419/1/4 422/1/4
f 419/1/4 420/1/4 422/1/4
f 418/1/4 422/1/4 424/1/4
f 422/1/4 423/1/4 424/1/4
f 424/1/4 423/1/4 425/1/4
f 425/1/4 423/1/4 426/1/4
f 418/1/4 424/1/4 427/1/4
f 427/1/4 424/1/4 428/1/4
f 428/1/4 424/1/4 429/1/4
f 429/1/4 430/1/4 431/1/4
f 428/1/4 429/1/4 431/1/4
f 431/1/4 430/1/4 432/1/4
f 432/1/4 430/1/4 433/1/4
f 433/1/4 434/1/4 435/1/4
f 432/1/4 433/1/4 435/1/4
f 435/1/4 434/1/4 436/1/4
f 436/1/4 434/1/4 437/1/4
f 437/1/4 438/1/4 439/1/4
f 436/1/4 437/1/4 439/1/4
f 439/1/4 438/1/4 440/1/4
f 441/1/4 442/1/4 443/1/4
f 443/1/4 442/1/4 444/1/4
f 445/2/4 446/2/4 447/2/4
f 445/2/4 447/2/4 449/2/4
f 447/2/4 448/2/4 449/2/4
f 449/2/4 448/2/4 450/2/4
f 450/2/4 448/2/4 451/2/4
f 450/2/4 451/2/4 453/2/4
f 451/2/4 452/2/4 453/2/4
f 453/2/4 452/2/4 454/2/4
f 454/2/4 452/2/4 455/2/4
f 455/2/4 456/2/4 457/2/4
f 454/2/4 455/2/4 459/2/4
f 457/2/4 458/2/4 459/2/4
f 455/2/4 457/2/4 459/2/4
f 459/2/4 458/2/4 460/2/4
f 460/2/4 458/2/4 461/2/4
f 461/2/4 462/2/4 463/2/4
f 460/2/4 461/2/4 463/2/4
f 460/2/4 463/2/4 465/2/4
f 463/2/4 464/2/4 465/2/4
f 465/2/4 464/2/4 466/2/4
f 460/2/4 465/2/4 468/2/4
f 468/2/4 465/2/4 469/2/4
f 469/2/4 465/2/4 470/2/4
f 467/2/4 468/2/4 471/2/4
f 468/2/4 469/2/4 471/2/4
f 471/2/4 469/2/4 472/2/4
f 467/2/4 471/2/4 473/2/4
f 473/2/4 471/2/4 474/2/4
f 467/2/4 473/2/4 476/2/4
f 476/2/4 473/2/4 477/2/4
f 475/2/4 476/2/4 477/2/4
f 477/2/4 473/2/4 478/2/4
f 475/2/4 477/2/4 480/2/4
f 480/2/4 477/2/4 481/2/4
f 479/2/4 480/2/4 481/2/4
f 481/2/4 477/2/4 482/2/4
f 479/2/4 481/2/4 483/2/4
f 483/2/4 481/2/4 484/2/4
f 487/1/5 486/1/5 485/1/5
f 488/1/5 486/1/5 487/1/5
f 491/1/5 490/1/5 489/1/5
f 492/1/5 490/1/5 491/1/5
f 497/1/5 494/1/5 493/1/5
f 498/1/5 494/1/5 497/1/5
f 499/1/5 496/1/5 495/1/5
f 500/1/5 496/1/5 499/1/5
f 505/1/5 502/1/5 501/1/5
f 506/1/5 502/1/5 505/1/5
f 507/1/5 504/1/5 503/1/5
f 508/1/5 504/1/5 507/1/5
f 513/1/5 510/1/5 509/1/5
f 514/1/5 510/1/5 513/1/5
f 515/1/5 512/1/5 511/1/5
f 516/1/5 512/1/5 515/1/5
f 521/1/5 518/1/5 517/1/5
f 522/1/5 518/1/5 521/1/5
f 523/1/5 520/1/5 519/1/5
f 524/1/5 520/1/5 523/1/5
f 533/1/5 530/1/5 529/1/5
f 534/1/5 530/1/5 533/1/5
f 535/1/5 532/1/5 531/1/5
f 536/1/5 532/1/5 535/1/5
f 541/1/5 538/1/5 537/1/5
f 542/1/5 538/1/5 541/1/5
f 543/1/5 540/1/5 539/1/5
f 544/1/5 540/1/5 543/1/5
f 545/2/5 526/2/5 525/2/5
f 546/2/5 526/2/5 545/2/5
f 547/2/5 528/2/5 527/2/5
f 548/2/5 528/2/5 547/2/5
f 553/2/5 550/2/5 549/2/5
f 554/2/5 550/2/5 553/2/5
f 555/2/5 552/2/5 551/2/5
f 556/2/5 552/2/5 555/2/5
f 561/2/5 558/2/5 557/2/5
f 562/2/5 558/2/5 561/2/5
f 563/2/5 560/2/5 559/2/5
f 564/2/5 560/2/5 563/2/5
f 565/2/5 560/2/5 564/2/5
f 566/2/5 561/2/5 557/2/5
f 567/2/5 558/2/5 562/2/5
f 568/2/5 564/2/5 563/2/5
f 569/2/5 560/2/5 565/2/5
f 570/2/5 568/2/5 563/2/5
f 570/2/5 569/2/5 568/2/5
f 571/2/5 569/2/5 570/2/5
f 572/2/5 566/2/5 557/2/5
f 572/2/5 567/2/5 566/2/5
f 573/2/5 558/2/5 567/2/5
f 573/2/5 567/2/5 572/2/5
f 574/2/5 569/2/5 571/2/5
f 575/2/5 560/2/5 569/2/5
f 575/2/5 569/2/5 574/2/5
f 576/2/5 572/2/5 557/2/5
f 577/2/5 558/2/5 573/2/5
f 578/2/5 574/2/5 571/2/5
f 579/2/5 574/2/5 578/2/5
f 580/2/5 560/2/5 575/2/5
f 581/2/5 576/2/5 557/2/5
f 581/2/5 577/2/5 576/2/5
f 582/2/5 558/2/5 577/2/5
f 582/2/5 577/2/5 581/2/5
f 583/2/5 580/2/5 579/2/5
f 583/2/5 579/2/5 578/2/5
f 584/2/5 560/2/5 580/2/5
f 584/2/5 580/2/5 583/2/5
f 587/2/5 586/2/5 585/2/5
f 588/2/5 586/2/5 587/2/5
f 589/2/5 587/2/5 585/2/5
f 591/2/5 589/2/5 585/2/5
f 591/2/5 590/2/5 589/2/5
f 592/2/5 590/2/5 591/2/5
f 593/2/5 591/2/5 585/2/5
f 595/2/5 593/2/5 585/2/5
f 595/2/5 594/2/5 593/2/5
f 596/2/5 594/2/5 595/2/5
f 597/1/6 598/1/6 599/1/6
f 599/1/6 598/1/6 600/1/6
f 601/1/6 602/1/6 605/1/6
f 603/1/6 604/1/6 606/1/6
f 601/1/6 605/1/6 607/1/6
f 605/1/6 606/1/6 607/1/6
f 606/1/6 604/1/6 608/1/6
f 607/1/6 606/1/6 608/1/6
f 609/1/6 610/1/6 611/1/6
f 611/1/6 610/1/6 612/1/6
f 609/1/6 611/1/6 613/1/6
f 613/1/6 611/1/6 614/1/6
f 612/1/6 610/1/6 615/1/6
f 615/1/6 610/1/6 616/1/6
f 617/1/6 618/1/6 619/1/6
f 619/1/6 618/1/6 620/1/6
f 621/1/6 622/1/6 625/1/6
f 625/1/6 622/1/6 626/1/6
f 623/1/6 624/1/6 627/1/6
f 627/1/6 624/1/6 628/1/6
f 629/1/6 630/1/6 633/1/6
f 633/1/6 630/1/6 634/1/6
f 631/1/6 632/1/6 635/1/6
f 635/1/6 632/1/6 636/1/6
f 637/1/6 638/1/6 641/1/6
f 641/1/6 638/1/6 642/1/6
f 639/1/6 640/1/6 643/1/6
f 643/1/6 640/1/6 644/1/6
f 645/1/6 646/1/6 649/1/6
f 649/1/6 646/1/6 650/1/6
f 647/1/6 648/1/6 651/1/6
f 651/1/6 648/1/6 652/1/6
f 657/1/6 658/1/6 661/1/6
f 661/1/6 658/1/6 662/1/6
f 659/1/6 660/1/6 663/1/6
f 663/1/6 660/1/6 664/1/6
f 665/1/6 666/1/6 669/1/6
f 669/1/6 666/1/6 670/1/6
f 667/1/6 668/1/6 671/1/6
f 671/1/6 668/1/6 672/1/6
f 653/2/6 654/2/6 673/2/6
f 673/2/6 654/2/6 674/2/6
f 655/2/6 656/2/6 675/2/6
f 675/2/6 656/2/6 676/2/6
f 677/2/6 678/2/6 681/2/6
f 681/2/6 678/2/6 682/2/6
f 679/2/6 680/2/6 683/2/6
f 683/2/6 680/2/6 684/2/6
f 685/2/6 686/2/6 689/2/6
f 689/2/6 686/2/6 690/2/6
f 687/2/6 688/2/6 691/2/6
f 691/2/6 688/2/6 692/2/6
f 697/1/6 698/1/6 699/1/6
f 699/1/6 698/1/6 700/1/6
f 693/2/6 694/2/6 701/2/6
f 701/2/6 694/2/6 702/2/6
f 695/2/6 696/2/6 703/2/6
f 703/2/6 696/2/6 704/2/6
f 705/2/6 706/2/6 709/2/6
f 709/2/6 706/2/6 710/2/6
f 707/2/6 708/2/6 711/2/6
f 711/2/6 708/2/6 712/2/6
f 713/2/6 714/2/6 717/2/6
f 717/2/6 714/2/6 718/2/6
f 715/2/6 716/2/6 719/2/6
f 719/2/6 716/2/6 720/2/6
f 721/2/6 722/2/6 723/2/6
f 723/2/6 722/2/6 724/2/6
