# MagicaVoxel @ Ephtracy

# group
o 

# material
mtllib fishing_rod.mtl
usemtl palette

# normals
vn -1 0 0
vn 1 0 0
vn 0 0 1
vn 0 0 -1
vn 0 -1 0
vn 0 1 0

# texcoords
vt 0.00195313 0.5
vt 0.00585938 0.5
vt 0.00976563 0.5
vt 0.0136719 0.5
vt 0.0175781 0.5

# verts
v -1.6 0 0.6
v -1.6 0 0.5
v -1.6 0.1 0.6
v -1.6 0.1 0.5
v -1.5 0 0.5
v -1.5 0 0.3
v -1.5 0.1 0.5
v -1.5 0.1 0.3
v -1.4 0 0.3
v -1.4 0 0.2
v -1.4 0.1 0.3
v -1.4 0.1 0.2
v -1.3 0 0.2
v -1.3 0 0.1
v -1.3 0.1 0.2
v -1.3 0.1 0.1
v -1.2 0 0.4
v -1.2 0 0.3
v -1.2 0 0.1
v -1.2 0 5.96046e-08
v -1.2 0.1 0.4
v -1.2 0.1 0.3
v -1.2 0.1 0.1
v -1.2 0.1 5.96046e-08
v -1.1 0 0.3
v -1.1 0 0.2
v -1.1 0 5.96046e-08
v -1.1 0 -0.1
v -1.1 0.1 0.3
v -1.1 0.1 0.2
v -1.1 0.1 5.96046e-08
v -1.1 0.1 -0.1
v -1 0 0.2
v -1 0 0.1
v -1 0 -0.1
v -1 0 -0.2
v -1 0.1 0.2
v -1 0.1 0.1
v -1 0.1 -0.1
v -1 0.1 -0.2
v -0.9 0 -0.2
v -0.9 0 -0.3
v -0.9 0.1 -0.2
v -0.9 0.1 -0.3
v -0.8 0 0.3
v -0.8 0 0.2
v -0.8 0 -0.3
v -0.8 0 -0.4
v -0.8 0 -0.5
v -0.8 0.1 0.3
v -0.8 0.1 0.2
v -0.8 0.1 -0.3
v -0.8 0.1 -0.4
v -0.8 0.1 -0.5
v -0.7 0 0.4
v -0.7 0 0.3
v -0.7 0.1 0.4
v -0.7 0.1 0.3
v -0.6 0 0.5
v -0.6 0 0.4
v -0.6 0.1 0.5
v -0.6 0.1 0.4
v -0.5 0 0.4
v -0.5 0 0.3
v -0.5 0 -0.6
v -0.5 0 -0.7
v -0.5 0.1 0.4
v -0.5 0.1 0.3
v -0.5 0.1 -0.6
v -0.5 0.1 -0.7
v -0.4 0 0.3
v -0.4 0 0.2
v -0.4 0 -0.5
v -0.4 0 -0.6
v -0.4 0.1 0.3
v -0.4 0.1 0.2
v -0.4 0.1 -0.5
v -0.4 0.1 -0.6
v -0.3 0 0.2
v -0.3 0 0.1
v -0.3 0.1 0.2
v -0.3 0.1 0.1
v -0.2 0 0.1
v -0.2 0 5.96046e-08
v -0.2 0.1 0.1
v -0.2 0.1 5.96046e-08
v -0.1 0 5.96046e-08
v -0.1 0 -0.1
v -0.1 0.1 5.96046e-08
v -0.1 0.1 -0.1
v 0 0 -0.1
v 0 0 -0.2
v 0 0.1 -0.1
v 0 0.1 -0.2
v 0.2 0 5.96046e-08
v 0.2 0 -0.1
v 0.2 0.1 5.96046e-08
v 0.2 0.1 -0.1
v 0.3 0 0.1
v 0.3 0 5.96046e-08
v 0.3 0.1 0.1
v 0.3 0.1 5.96046e-08
v 0.4 0 0.2
v 0.4 0 0.1
v 0.4 0.1 0.2
v 0.4 0.1 0.1
v 0.5 0 0.3
v 0.5 0 0.2
v 0.5 0.1 0.3
v 0.5 0.1 0.2
v 0.6 0 0.4
v 0.6 0 0.3
v 0.6 0.1 0.4
v 0.6 0.1 0.3
v 0.7 0 0.5
v 0.7 0 0.4
v 0.7 0.1 0.5
v 0.7 0.1 0.4
v -1.4 0 0.4
v -1.4 0 0.3
v -1.4 0.1 0.4
v -1.4 0.1 0.3
v -1.3 0 0.3
v -1.3 0 0.2
v -1.3 0.1 0.3
v -1.3 0.1 0.2
v -1.2 0 0.2
v -1.2 0 0.1
v -1.2 0.1 0.2
v -1.2 0.1 0.1
v -1.1 0 0.5
v -1.1 0 0.3
v -1.1 0 0.1
v -1.1 0 5.96046e-08
v -1.1 0.1 0.5
v -1.1 0.1 0.3
v -1.1 0.1 0.1
v -1.1 0.1 5.96046e-08
v -1 0 0.3
v -1 0 0.2
v -1 0 5.96046e-08
v -1 0 -0.1
v -1 0.1 0.3
v -1 0.1 0.2
v -1 0.1 5.96046e-08
v -1 0.1 -0.1
v -0.9 0 -0.1
v -0.9 0 -0.2
v -0.9 0.1 -0.1
v -0.9 0.1 -0.2
v -0.8 0 0.2
v -0.8 0 0.1
v -0.8 0 -0.2
v -0.8 0 -0.3
v -0.8 0.1 0.2
v -0.8 0.1 0.1
v -0.8 0.1 -0.2
v -0.8 0.1 -0.3
v -0.7 0 0.3
v -0.7 0 0.2
v -0.7 0.1 0.3
v -0.7 0.1 0.2
v -0.6 0 0.4
v -0.6 0 0.3
v -0.6 0 -0.3
v -0.6 0 -0.4
v -0.6 0.1 0.4
v -0.6 0.1 0.3
v -0.6 0.1 -0.3
v -0.6 0.1 -0.4
v -0.5 0 0.5
v -0.5 0 0.4
v -0.5 0.1 0.5
v -0.5 0.1 0.4
v -0.4 0 0.4
v -0.4 0 0.3
v -0.4 0.1 0.4
v -0.4 0.1 0.3
v -0.3 0 0.3
v -0.3 0 0.2
v -0.3 0 -0.4
v -0.3 0 -0.7
v -0.3 0.1 0.3
v -0.3 0.1 0.2
v -0.3 0.1 -0.4
v -0.3 0.1 -0.7
v -0.2 0 0.2
v -0.2 0 0.1
v -0.2 0.1 0.2
v -0.2 0.1 0.1
v -0.1 0 0.1
v -0.1 0 5.96046e-08
v -0.1 0.1 0.1
v -0.1 0.1 5.96046e-08
v 0 0 5.96046e-08
v 0 0 -0.1
v 0 0.1 5.96046e-08
v 0 0.1 -0.1
v 0.2 0 -0.1
v 0.2 0 -0.2
v 0.2 0.1 -0.1
v 0.2 0.1 -0.2
v 0.3 0 5.96046e-08
v 0.3 0 -0.1
v 0.3 0.1 5.96046e-08
v 0.3 0.1 -0.1
v 0.4 0 0.1
v 0.4 0 5.96046e-08
v 0.4 0.1 0.1
v 0.4 0.1 5.96046e-08
v 0.5 0 0.2
v 0.5 0 0.1
v 0.5 0.1 0.2
v 0.5 0.1 0.1
v 0.6 0 0.3
v 0.6 0 0.2
v 0.6 0.1 0.3
v 0.6 0.1 0.2
v 0.7 0 0.4
v 0.7 0 0.3
v 0.7 0.1 0.4
v 0.7 0.1 0.3
v 1.6 0 0.6
v 1.6 0 0.4
v 1.6 0.1 0.6
v 1.6 0.1 0.4
v -1.6 0 0.6
v -1.6 0.1 0.6
v -1 0 0.6
v -1 0.1 0.6
v -0.7 0 0.6
v -0.7 0.1 0.6
v -0.4 0 0.6
v -0.4 0.1 0.6
v 0.7 0 0.6
v 0.7 0.1 0.6
v 1.6 0 0.6
v 1.6 0.1 0.6
v -0.7 0 0.4
v -0.7 0.1 0.4
v -0.6 0 0.4
v -0.6 0.1 0.4
v -0.5 0 0.4
v -0.5 0.1 0.4
v -0.4 0 0.4
v -0.4 0.1 0.4
v 0.6 0 0.4
v 0.6 0.1 0.4
v 0.7 0 0.4
v 0.7 0.1 0.4
v -1.4 0 0.3
v -1.4 0.1 0.3
v -1.3 0 0.3
v -1.3 0.1 0.3
v -1.1 0 0.3
v -1.1 0.1 0.3
v -1 0 0.3
v -1 0.1 0.3
v -0.8 0 0.3
v -0.8 0.1 0.3
v -0.7 0 0.3
v -0.7 0.1 0.3
v -0.4 0 0.3
v -0.4 0.1 0.3
v -0.3 0 0.3
v -0.3 0.1 0.3
v 0.5 0 0.3
v 0.5 0.1 0.3
v 0.6 0 0.3
v 0.6 0.1 0.3
v -1.3 0 0.2
v -1.3 0.1 0.2
v -1.2 0 0.2
v -1.2 0.1 0.2
v -1 0 0.2
v -1 0.1 0.2
v -0.8 0 0.2
v -0.8 0.1 0.2
v -0.3 0 0.2
v -0.3 0.1 0.2
v -0.2 0 0.2
v -0.2 0.1 0.2
v 0.4 0 0.2
v 0.4 0.1 0.2
v 0.5 0 0.2
v 0.5 0.1 0.2
v -1.2 0 0.1
v -1.2 0.1 0.1
v -1.1 0 0.1
v -1.1 0.1 0.1
v -0.2 0 0.1
v -0.2 0.1 0.1
v -0.1 0 0.1
v -0.1 0.1 0.1
v 0.3 0 0.1
v 0.3 0.1 0.1
v 0.4 0 0.1
v 0.4 0.1 0.1
v -1.1 0 5.96046e-08
v -1.1 0.1 5.96046e-08
v -1 0 5.96046e-08
v -1 0.1 5.96046e-08
v -0.1 0 5.96046e-08
v -0.1 0.1 5.96046e-08
v 0 0 5.96046e-08
v 0 0.1 5.96046e-08
v 0.2 0 5.96046e-08
v 0.2 0.1 5.96046e-08
v 0.3 0 5.96046e-08
v 0.3 0.1 5.96046e-08
v -1 0 -0.1
v -1 0.1 -0.1
v -0.9 0 -0.1
v -0.9 0.1 -0.1
v 0 0 -0.1
v 0 0.1 -0.1
v 0.2 0 -0.1
v 0.2 0.1 -0.1
v -0.9 0 -0.2
v -0.9 0.1 -0.2
v -0.8 0 -0.2
v -0.8 0.1 -0.2
v -0.8 0 -0.3
v -0.8 0.1 -0.3
v -0.7 0 -0.3
v -0.7 0.1 -0.3
v -0.6 0 -0.3
v -0.6 0.1 -0.3
v -0.6 0 -0.4
v -0.6 0.1 -0.4
v -0.3 0 -0.4
v -0.3 0.1 -0.4
v -0.5 0 -0.6
v -0.5 0.1 -0.6
v -0.4 0 -0.6
v -0.4 0.1 -0.6
v -1.6 0 0.5
v -1.6 0.1 0.5
v -1.5 0 0.5
v -1.5 0.1 0.5
v -1.1 0 0.5
v -1.1 0.1 0.5
v -1 0 0.5
v -1 0.1 0.5
v -0.7 0 0.5
v -0.7 0.1 0.5
v -0.6 0 0.5
v -0.6 0.1 0.5
v -0.5 0 0.5
v -0.5 0.1 0.5
v -0.4 0 0.5
v -0.4 0.1 0.5
v 0.7 0 0.5
v 0.7 0.1 0.5
v -1.4 0 0.4
v -1.4 0.1 0.4
v -1.2 0 0.4
v -1.2 0.1 0.4
v -0.6 0 0.4
v -0.6 0.1 0.4
v -0.5 0 0.4
v -0.5 0.1 0.4
v 0.7 0 0.4
v 0.7 0.1 0.4
v 0.8 0 0.4
v 0.8 0.1 0.4
v 1.6 0 0.4
v 1.6 0.1 0.4
v -1.5 0 0.3
v -1.5 0.1 0.3
v -1.4 0 0.3
v -1.4 0.1 0.3
v -1.2 0 0.3
v -1.2 0.1 0.3
v -1.1 0 0.3
v -1.1 0.1 0.3
v -0.7 0 0.3
v -0.7 0.1 0.3
v -0.6 0 0.3
v -0.6 0.1 0.3
v -0.5 0 0.3
v -0.5 0.1 0.3
v -0.4 0 0.3
v -0.4 0.1 0.3
v 0.6 0 0.3
v 0.6 0.1 0.3
v 0.7 0 0.3
v 0.7 0.1 0.3
v -1.4 0 0.2
v -1.4 0.1 0.2
v -1.3 0 0.2
v -1.3 0.1 0.2
v -1.1 0 0.2
v -1.1 0.1 0.2
v -1 0 0.2
v -1 0.1 0.2
v -0.8 0 0.2
v -0.8 0.1 0.2
v -0.7 0 0.2
v -0.7 0.1 0.2
v -0.4 0 0.2
v -0.4 0.1 0.2
v -0.3 0 0.2
v -0.3 0.1 0.2
v 0.5 0 0.2
v 0.5 0.1 0.2
v 0.6 0 0.2
v 0.6 0.1 0.2
v -1.3 0 0.1
v -1.3 0.1 0.1
v -1.2 0 0.1
v -1.2 0.1 0.1
v -1 0 0.1
v -1 0.1 0.1
v -0.8 0 0.1
v -0.8 0.1 0.1
v -0.3 0 0.1
v -0.3 0.1 0.1
v -0.2 0 0.1
v -0.2 0.1 0.1
v 0.4 0 0.1
v 0.4 0.1 0.1
v 0.5 0 0.1
v 0.5 0.1 0.1
v -1.2 0 5.96046e-08
v -1.2 0.1 5.96046e-08
v -1.1 0 5.96046e-08
v -1.1 0.1 5.96046e-08
v -0.2 0 5.96046e-08
v -0.2 0.1 5.96046e-08
v -0.1 0 5.96046e-08
v -0.1 0.1 5.96046e-08
v 0.3 0 5.96046e-08
v 0.3 0.1 5.96046e-08
v 0.4 0 5.96046e-08
v 0.4 0.1 5.96046e-08
v -1.1 0 -0.1
v -1.1 0.1 -0.1
v -1 0 -0.1
v -1 0.1 -0.1
v -0.1 0 -0.1
v -0.1 0.1 -0.1
v 0 0 -0.1
v 0 0.1 -0.1
v 0.2 0 -0.1
v 0.2 0.1 -0.1
v 0.3 0 -0.1
v 0.3 0.1 -0.1
v -1 0 -0.2
v -1 0.1 -0.2
v -0.9 0 -0.2
v -0.9 0.1 -0.2
v 0 0 -0.2
v 0 0.1 -0.2
v 0.2 0 -0.2
v 0.2 0.1 -0.2
v -0.9 0 -0.3
v -0.9 0.1 -0.3
v -0.8 0 -0.3
v -0.8 0.1 -0.3
v -0.8 0 -0.5
v -0.8 0.1 -0.5
v -0.6 0 -0.5
v -0.6 0.1 -0.5
v -0.4 0 -0.5
v -0.4 0.1 -0.5
v -0.5 0 -0.7
v -0.5 0.1 -0.7
v -0.3 0 -0.7
v -0.3 0.1 -0.7
v -1.6 0 0.6
v -1 0 0.6
v -0.7 0 0.6
v -0.4 0 0.6
v 0.7 0 0.6
v 1.6 0 0.6
v -1.6 0 0.5
v -1.5 0 0.5
v -1.1 0 0.5
v -1 0 0.5
v -0.7 0 0.5
v -0.6 0 0.5
v -0.5 0 0.5
v -0.4 0 0.5
v 0.7 0 0.5
v 0.8 0 0.5
v -1.4 0 0.4
v -1.2 0 0.4
v -0.7 0 0.4
v -0.6 0 0.4
v -0.5 0 0.4
v -0.4 0 0.4
v 0.6 0 0.4
v 0.7 0 0.4
v 0.8 0 0.4
v 1.6 0 0.4
v -1.5 0 0.3
v -1.4 0 0.3
v -1.3 0 0.3
v -1.2 0 0.3
v -1.1 0 0.3
v -1 0 0.3
v -0.8 0 0.3
v -0.7 0 0.3
v -0.6 0 0.3
v -0.5 0 0.3
v -0.4 0 0.3
v -0.3 0 0.3
v 0.5 0 0.3
v 0.6 0 0.3
v 0.7 0 0.3
v -1.4 0 0.2
v -1.3 0 0.2
v -1.2 0 0.2
v -1.1 0 0.2
v -1 0 0.2
v -0.8 0 0.2
v -0.7 0 0.2
v -0.4 0 0.2
v -0.3 0 0.2
v -0.2 0 0.2
v 0.4 0 0.2
v 0.5 0 0.2
v 0.6 0 0.2
v -1.3 0 0.1
v -1.2 0 0.1
v -1.1 0 0.1
v -1 0 0.1
v -0.8 0 0.1
v -0.3 0 0.1
v -0.2 0 0.1
v -0.1 0 0.1
v 0.3 0 0.1
v 0.4 0 0.1
v 0.5 0 0.1
v -1.2 0 5.96046e-08
v -1.1 0 5.96046e-08
v -1 0 5.96046e-08
v -0.2 0 5.96046e-08
v -0.1 0 5.96046e-08
v 0 0 5.96046e-08
v 0.2 0 5.96046e-08
v 0.3 0 5.96046e-08
v 0.4 0 5.96046e-08
v -1.1 0 -0.1
v -1 0 -0.1
v -0.9 0 -0.1
v -0.1 0 -0.1
v 0 0 -0.1
v 0.2 0 -0.1
v 0.3 0 -0.1
v -1 0 -0.2
v -0.9 0 -0.2
v -0.8 0 -0.2
v 0 0 -0.2
v 0.2 0 -0.2
v -0.9 0 -0.3
v -0.8 0 -0.3
v -0.7 0 -0.3
v -0.6 0 -0.3
v -0.8 0 -0.4
v -0.7 0 -0.4
v -0.6 0 -0.4
v -0.3 0 -0.4
v -0.8 0 -0.5
v -0.6 0 -0.5
v -0.4 0 -0.5
v -0.5 0 -0.6
v -0.4 0 -0.6
v -0.5 0 -0.7
v -0.3 0 -0.7
v -1.6 0.1 0.6
v -1 0.1 0.6
v -0.7 0.1 0.6
v -0.4 0.1 0.6
v 0.7 0.1 0.6
v 1.6 0.1 0.6
v -1.6 0.1 0.5
v -1.5 0.1 0.5
v -1.1 0.1 0.5
v -1 0.1 0.5
v -0.7 0.1 0.5
v -0.6 0.1 0.5
v -0.5 0.1 0.5
v -0.4 0.1 0.5
v 0.7 0.1 0.5
v 0.8 0.1 0.5
v -1.4 0.1 0.4
v -1.2 0.1 0.4
v -0.7 0.1 0.4
v -0.6 0.1 0.4
v -0.5 0.1 0.4
v -0.4 0.1 0.4
v 0.6 0.1 0.4
v 0.7 0.1 0.4
v 0.8 0.1 0.4
v 1.6 0.1 0.4
v -1.5 0.1 0.3
v -1.4 0.1 0.3
v -1.3 0.1 0.3
v -1.2 0.1 0.3
v -1.1 0.1 0.3
v -1 0.1 0.3
v -0.8 0.1 0.3
v -0.7 0.1 0.3
v -0.6 0.1 0.3
v -0.5 0.1 0.3
v -0.4 0.1 0.3
v -0.3 0.1 0.3
v 0.5 0.1 0.3
v 0.6 0.1 0.3
v 0.7 0.1 0.3
v -1.4 0.1 0.2
v -1.3 0.1 0.2
v -1.2 0.1 0.2
v -1.1 0.1 0.2
v -1 0.1 0.2
v -0.8 0.1 0.2
v -0.7 0.1 0.2
v -0.4 0.1 0.2
v -0.3 0.1 0.2
v -0.2 0.1 0.2
v 0.4 0.1 0.2
v 0.5 0.1 0.2
v 0.6 0.1 0.2
v -1.3 0.1 0.1
v -1.2 0.1 0.1
v -1.1 0.1 0.1
v -1 0.1 0.1
v -0.8 0.1 0.1
v -0.3 0.1 0.1
v -0.2 0.1 0.1
v -0.1 0.1 0.1
v 0.3 0.1 0.1
v 0.4 0.1 0.1
v 0.5 0.1 0.1
v -1.2 0.1 5.96046e-08
v -1.1 0.1 5.96046e-08
v -1 0.1 5.96046e-08
v -0.2 0.1 5.96046e-08
v -0.1 0.1 5.96046e-08
v 0 0.1 5.96046e-08
v 0.2 0.1 5.96046e-08
v 0.3 0.1 5.96046e-08
v 0.4 0.1 5.96046e-08
v -1.1 0.1 -0.1
v -1 0.1 -0.1
v -0.9 0.1 -0.1
v -0.1 0.1 -0.1
v 0 0.1 -0.1
v 0.2 0.1 -0.1
v 0.3 0.1 -0.1
v -1 0.1 -0.2
v -0.9 0.1 -0.2
v -0.8 0.1 -0.2
v 0 0.1 -0.2
v 0.2 0.1 -0.2
v -0.9 0.1 -0.3
v -0.8 0.1 -0.3
v -0.7 0.1 -0.3
v -0.6 0.1 -0.3
v -0.8 0.1 -0.4
v -0.7 0.1 -0.4
v -0.6 0.1 -0.4
v -0.3 0.1 -0.4
v -0.8 0.1 -0.5
v -0.6 0.1 -0.5
v -0.4 0.1 -0.5
v -0.5 0.1 -0.6
v -0.4 0.1 -0.6
v -0.5 0.1 -0.7
v -0.3 0.1 -0.7

# faces
f 3/1/1 2/1/1 1/1/1
f 4/1/1 2/1/1 3/1/1
f 7/5/1 6/5/1 5/5/1
f 8/5/1 6/5/1 7/5/1
f 11/5/1 10/5/1 9/5/1
f 12/5/1 10/5/1 11/5/1
f 15/5/1 14/5/1 13/5/1
f 16/5/1 14/5/1 15/5/1
f 21/5/1 18/5/1 17/5/1
f 22/5/1 18/5/1 21/5/1
f 23/5/1 20/5/1 19/5/1
f 24/5/1 20/5/1 23/5/1
f 29/5/1 26/5/1 25/5/1
f 30/5/1 26/5/1 29/5/1
f 31/5/1 28/5/1 27/5/1
f 32/5/1 28/5/1 31/5/1
f 37/5/1 34/5/1 33/5/1
f 38/5/1 34/5/1 37/5/1
f 39/5/1 36/5/1 35/5/1
f 40/5/1 36/5/1 39/5/1
f 43/5/1 42/5/1 41/5/1
f 44/5/1 42/5/1 43/5/1
f 50/5/1 46/5/1 45/5/1
f 51/5/1 46/5/1 50/5/1
f 52/5/1 48/5/1 47/5/1
f 53/2/1 49/2/1 48/2/1
f 53/5/1 48/5/1 52/5/1
f 54/2/1 49/2/1 53/2/1
f 57/5/1 56/5/1 55/5/1
f 58/5/1 56/5/1 57/5/1
f 61/5/1 60/5/1 59/5/1
f 62/5/1 60/5/1 61/5/1
f 67/5/1 64/5/1 63/5/1
f 68/5/1 64/5/1 67/5/1
f 69/3/1 66/3/1 65/3/1
f 70/3/1 66/3/1 69/3/1
f 75/5/1 72/5/1 71/5/1
f 76/5/1 72/5/1 75/5/1
f 77/3/1 74/3/1 73/3/1
f 78/3/1 74/3/1 77/3/1
f 81/5/1 80/5/1 79/5/1
f 82/5/1 80/5/1 81/5/1
f 85/5/1 84/5/1 83/5/1
f 86/5/1 84/5/1 85/5/1
f 89/5/1 88/5/1 87/5/1
f 90/5/1 88/5/1 89/5/1
f 93/5/1 92/5/1 91/5/1
f 94/5/1 92/5/1 93/5/1
f 97/5/1 96/5/1 95/5/1
f 98/5/1 96/5/1 97/5/1
f 101/5/1 100/5/1 99/5/1
f 102/5/1 100/5/1 101/5/1
f 105/5/1 104/5/1 103/5/1
f 106/5/1 104/5/1 105/5/1
f 109/5/1 108/5/1 107/5/1
f 110/5/1 108/5/1 109/5/1
f 113/5/1 112/5/1 111/5/1
f 114/5/1 112/5/1 113/5/1
f 117/5/1 116/5/1 115/5/1
f 118/5/1 116/5/1 117/5/1
f 119/5/2 120/5/2 121/5/2
f 121/5/2 120/5/2 122/5/2
f 123/5/2 124/5/2 125/5/2
f 125/5/2 124/5/2 126/5/2
f 127/5/2 128/5/2 129/5/2
f 129/5/2 128/5/2 130/5/2
f 131/5/2 132/5/2 135/5/2
f 135/5/2 132/5/2 136/5/2
f 133/5/2 134/5/2 137/5/2
f 137/5/2 134/5/2 138/5/2
f 139/5/2 140/5/2 143/5/2
f 143/5/2 140/5/2 144/5/2
f 141/5/2 142/5/2 145/5/2
f 145/5/2 142/5/2 146/5/2
f 147/5/2 148/5/2 149/5/2
f 149/5/2 148/5/2 150/5/2
f 151/5/2 152/5/2 155/5/2
f 155/5/2 152/5/2 156/5/2
f 153/5/2 154/5/2 157/5/2
f 157/5/2 154/5/2 158/5/2
f 159/5/2 160/5/2 161/5/2
f 161/5/2 160/5/2 162/5/2
f 163/5/2 164/5/2 167/5/2
f 167/5/2 164/5/2 168/5/2
f 165/2/2 166/2/2 169/2/2
f 169/2/2 166/2/2 170/2/2
f 171/5/2 172/5/2 173/5/2
f 173/5/2 172/5/2 174/5/2
f 175/5/2 176/5/2 177/5/2
f 177/5/2 176/5/2 178/5/2
f 179/5/2 180/5/2 183/5/2
f 183/5/2 180/5/2 184/5/2
f 181/3/2 182/3/2 185/3/2
f 185/3/2 182/3/2 186/3/2
f 187/5/2 188/5/2 189/5/2
f 189/5/2 188/5/2 190/5/2
f 191/5/2 192/5/2 193/5/2
f 193/5/2 192/5/2 194/5/2
f 195/5/2 196/5/2 197/5/2
f 197/5/2 196/5/2 198/5/2
f 199/5/2 200/5/2 201/5/2
f 201/5/2 200/5/2 202/5/2
f 203/5/2 204/5/2 205/5/2
f 205/5/2 204/5/2 206/5/2
f 207/5/2 208/5/2 209/5/2
f 209/5/2 208/5/2 210/5/2
f 211/5/2 212/5/2 213/5/2
f 213/5/2 212/5/2 214/5/2
f 215/5/2 216/5/2 217/5/2
f 217/5/2 216/5/2 218/5/2
f 219/5/2 220/5/2 221/5/2
f 221/5/2 220/5/2 222/5/2
f 223/1/2 224/1/2 225/1/2
f 225/1/2 224/1/2 226/1/2
f 229/1/3 228/1/3 227/1/3
f 230/1/3 228/1/3 229/1/3
f 231/4/3 230/4/3 229/4/3
f 232/4/3 230/4/3 231/4/3
f 233/1/3 232/1/3 231/1/3
f 234/1/3 232/1/3 233/1/3
f 235/4/3 234/4/3 233/4/3
f 236/4/3 234/4/3 235/4/3
f 237/1/3 236/1/3 235/1/3
f 238/1/3 236/1/3 237/1/3
f 241/5/3 240/5/3 239/5/3
f 242/5/3 240/5/3 241/5/3
f 245/5/3 244/5/3 243/5/3
f 246/5/3 244/5/3 245/5/3
f 249/5/3 248/5/3 247/5/3
f 250/5/3 248/5/3 249/5/3
f 253/5/3 252/5/3 251/5/3
f 254/5/3 252/5/3 253/5/3
f 257/5/3 256/5/3 255/5/3
f 258/5/3 256/5/3 257/5/3
f 261/5/3 260/5/3 259/5/3
f 262/5/3 260/5/3 261/5/3
f 265/5/3 264/5/3 263/5/3
f 266/5/3 264/5/3 265/5/3
f 269/5/3 268/5/3 267/5/3
f 270/5/3 268/5/3 269/5/3
f 273/5/3 272/5/3 271/5/3
f 274/5/3 272/5/3 273/5/3
f 277/5/3 276/5/3 275/5/3
f 278/5/3 276/5/3 277/5/3
f 281/5/3 280/5/3 279/5/3
f 282/5/3 280/5/3 281/5/3
f 285/5/3 284/5/3 283/5/3
f 286/5/3 284/5/3 285/5/3
f 289/5/3 288/5/3 287/5/3
f 290/5/3 288/5/3 289/5/3
f 293/5/3 292/5/3 291/5/3
f 294/5/3 292/5/3 293/5/3
f 297/5/3 296/5/3 295/5/3
f 298/5/3 296/5/3 297/5/3
f 301/5/3 300/5/3 299/5/3
f 302/5/3 300/5/3 301/5/3
f 305/5/3 304/5/3 303/5/3
f 306/5/3 304/5/3 305/5/3
f 309/5/3 308/5/3 307/5/3
f 310/5/3 308/5/3 309/5/3
f 313/5/3 312/5/3 311/5/3
f 314/5/3 312/5/3 313/5/3
f 317/5/3 316/5/3 315/5/3
f 318/5/3 316/5/3 317/5/3
f 321/5/3 320/5/3 319/5/3
f 322/5/3 320/5/3 321/5/3
f 325/5/3 324/5/3 323/5/3
f 326/5/3 324/5/3 325/5/3
f 327/2/3 326/2/3 325/2/3
f 328/2/3 326/2/3 327/2/3
f 331/3/3 330/3/3 329/3/3
f 332/3/3 330/3/3 331/3/3
f 335/3/3 334/3/3 333/3/3
f 336/3/3 334/3/3 335/3/3
f 337/1/4 338/1/4 339/1/4
f 339/1/4 338/1/4 340/1/4
f 341/1/4 342/1/4 343/1/4
f 343/1/4 342/1/4 344/1/4
f 343/4/4 344/4/4 345/4/4
f 345/4/4 344/4/4 346/4/4
f 345/1/4 346/1/4 347/1/4
f 347/1/4 346/1/4 348/1/4
f 349/1/4 350/1/4 351/1/4
f 351/1/4 350/1/4 352/1/4
f 351/4/4 352/4/4 353/4/4
f 353/4/4 352/4/4 354/4/4
f 355/5/4 356/5/4 357/5/4
f 357/5/4 356/5/4 358/5/4
f 359/5/4 360/5/4 361/5/4
f 361/5/4 360/5/4 362/5/4
f 363/5/4 364/5/4 365/5/4
f 365/5/4 364/5/4 366/5/4
f 365/1/4 366/1/4 367/1/4
f 367/1/4 366/1/4 368/1/4
f 369/5/4 370/5/4 371/5/4
f 371/5/4 370/5/4 372/5/4
f 373/5/4 374/5/4 375/5/4
f 375/5/4 374/5/4 376/5/4
f 377/5/4 378/5/4 379/5/4
f 379/5/4 378/5/4 380/5/4
f 381/5/4 382/5/4 383/5/4
f 383/5/4 382/5/4 384/5/4
f 385/5/4 386/5/4 387/5/4
f 387/5/4 386/5/4 388/5/4
f 389/5/4 390/5/4 391/5/4
f 391/5/4 390/5/4 392/5/4
f 393/5/4 394/5/4 395/5/4
f 395/5/4 394/5/4 396/5/4
f 397/5/4 398/5/4 399/5/4
f 399/5/4 398/5/4 400/5/4
f 401/5/4 402/5/4 403/5/4
f 403/5/4 402/5/4 404/5/4
f 405/5/4 406/5/4 407/5/4
f 407/5/4 406/5/4 408/5/4
f 409/5/4 410/5/4 411/5/4
f 411/5/4 410/5/4 412/5/4
f 413/5/4 414/5/4 415/5/4
f 415/5/4 414/5/4 416/5/4
f 417/5/4 418/5/4 419/5/4
f 419/5/4 418/5/4 420/5/4
f 421/5/4 422/5/4 423/5/4
f 423/5/4 422/5/4 424/5/4
f 425/5/4 426/5/4 427/5/4
f 427/5/4 426/5/4 428/5/4
f 429/5/4 430/5/4 431/5/4
f 431/5/4 430/5/4 432/5/4
f 433/5/4 434/5/4 435/5/4
f 435/5/4 434/5/4 436/5/4
f 437/5/4 438/5/4 439/5/4
f 439/5/4 438/5/4 440/5/4
f 441/5/4 442/5/4 443/5/4
f 443/5/4 442/5/4 444/5/4
f 445/5/4 446/5/4 447/5/4
f 447/5/4 446/5/4 448/5/4
f 449/5/4 450/5/4 451/5/4
f 451/5/4 450/5/4 452/5/4
f 453/5/4 454/5/4 455/5/4
f 455/5/4 454/5/4 456/5/4
f 457/5/4 458/5/4 459/5/4
f 459/5/4 458/5/4 460/5/4
f 461/2/4 462/2/4 463/2/4
f 463/2/4 462/2/4 464/2/4
f 463/3/4 464/3/4 465/3/4
f 465/3/4 464/3/4 466/3/4
f 467/3/4 468/3/4 469/3/4
f 469/3/4 468/3/4 470/3/4
f 477/1/5 472/1/5 471/1/5
f 478/1/5 472/1/5 477/1/5
f 479/1/5 472/1/5 478/1/5
f 480/4/5 473/4/5 472/4/5
f 480/1/5 472/1/5 479/1/5
f 481/1/5 474/1/5 473/1/5
f 481/4/5 473/4/5 480/4/5
f 482/1/5 474/1/5 481/1/5
f 483/1/5 474/1/5 482/1/5
f 484/4/5 475/4/5 474/4/5
f 484/1/5 474/1/5 483/1/5
f 485/1/5 476/1/5 475/1/5
f 485/4/5 475/4/5 484/4/5
f 486/1/5 476/1/5 485/1/5
f 487/5/5 479/5/5 478/5/5
f 488/5/5 479/5/5 487/5/5
f 490/5/5 483/5/5 482/5/5
f 491/5/5 483/5/5 490/5/5
f 494/5/5 486/5/5 485/5/5
f 495/1/5 476/1/5 486/1/5
f 495/5/5 486/5/5 494/5/5
f 496/1/5 476/1/5 495/1/5
f 497/5/5 487/5/5 478/5/5
f 498/5/5 487/5/5 497/5/5
f 500/5/5 479/5/5 488/5/5
f 501/5/5 479/5/5 500/5/5
f 504/5/5 490/5/5 489/5/5
f 505/5/5 490/5/5 504/5/5
f 506/5/5 492/5/5 491/5/5
f 507/5/5 492/5/5 506/5/5
f 510/5/5 494/5/5 493/5/5
f 511/5/5 494/5/5 510/5/5
f 512/5/5 499/5/5 498/5/5
f 513/5/5 499/5/5 512/5/5
f 515/5/5 502/5/5 501/5/5
f 516/5/5 502/5/5 515/5/5
f 517/5/5 504/5/5 503/5/5
f 518/5/5 504/5/5 517/5/5
f 519/5/5 508/5/5 507/5/5
f 520/5/5 508/5/5 519/5/5
f 523/5/5 510/5/5 509/5/5
f 524/5/5 510/5/5 523/5/5
f 525/5/5 514/5/5 513/5/5
f 526/5/5 514/5/5 525/5/5
f 528/5/5 517/5/5 516/5/5
f 529/5/5 517/5/5 528/5/5
f 530/5/5 521/5/5 520/5/5
f 531/5/5 521/5/5 530/5/5
f 534/5/5 523/5/5 522/5/5
f 535/5/5 523/5/5 534/5/5
f 536/5/5 527/5/5 526/5/5
f 537/5/5 527/5/5 536/5/5
f 539/5/5 532/5/5 531/5/5
f 540/5/5 532/5/5 539/5/5
f 543/5/5 534/5/5 533/5/5
f 544/5/5 534/5/5 543/5/5
f 545/5/5 538/5/5 537/5/5
f 546/5/5 538/5/5 545/5/5
f 548/5/5 541/5/5 540/5/5
f 549/5/5 541/5/5 548/5/5
f 550/5/5 543/5/5 542/5/5
f 551/5/5 543/5/5 550/5/5
f 552/5/5 547/5/5 546/5/5
f 553/5/5 547/5/5 552/5/5
f 555/5/5 550/5/5 549/5/5
f 556/5/5 550/5/5 555/5/5
f 557/5/5 554/5/5 553/5/5
f 558/5/5 554/5/5 557/5/5
f 561/5/5 559/5/5 558/5/5
f 562/2/5 560/2/5 559/2/5
f 562/5/5 559/5/5 561/5/5
f 563/2/5 560/2/5 562/2/5
f 565/2/5 562/2/5 561/2/5
f 565/2/5 563/2/5 562/2/5
f 566/3/5 564/3/5 563/3/5
f 566/2/5 563/2/5 565/2/5
f 567/3/5 564/3/5 566/3/5
f 569/3/5 564/3/5 567/3/5
f 570/3/5 569/3/5 568/3/5
f 571/3/5 564/3/5 569/3/5
f 571/3/5 569/3/5 570/3/5
f 572/1/6 573/1/6 578/1/6
f 578/1/6 573/1/6 579/1/6
f 579/1/6 573/1/6 580/1/6
f 573/4/6 574/4/6 581/4/6
f 580/1/6 573/1/6 581/1/6
f 574/1/6 575/1/6 582/1/6
f 581/4/6 574/4/6 582/4/6
f 582/1/6 575/1/6 583/1/6
f 583/1/6 575/1/6 584/1/6
f 575/4/6 576/4/6 585/4/6
f 584/1/6 575/1/6 585/1/6
f 576/1/6 577/1/6 586/1/6
f 585/4/6 576/4/6 586/4/6
f 586/1/6 577/1/6 587/1/6
f 579/5/6 580/5/6 588/5/6
f 588/5/6 580/5/6 589/5/6
f 583/5/6 584/5/6 591/5/6
f 591/5/6 584/5/6 592/5/6
f 586/5/6 587/5/6 595/5/6
f 587/1/6 577/1/6 596/1/6
f 595/5/6 587/5/6 596/5/6
f 596/1/6 577/1/6 597/1/6
f 579/5/6 588/5/6 598/5/6
f 598/5/6 588/5/6 599/5/6
f 589/5/6 580/5/6 601/5/6
f 601/5/6 580/5/6 602/5/6
f 590/5/6 591/5/6 605/5/6
f 605/5/6 591/5/6 606/5/6
f 592/5/6 593/5/6 607/5/6
f 607/5/6 593/5/6 608/5/6
f 594/5/6 595/5/6 611/5/6
f 611/5/6 595/5/6 612/5/6
f 599/5/6 600/5/6 613/5/6
f 613/5/6 600/5/6 614/5/6
f 602/5/6 603/5/6 616/5/6
f 616/5/6 603/5/6 617/5/6
f 604/5/6 605/5/6 618/5/6
f 618/5/6 605/5/6 619/5/6
f 608/5/6 609/5/6 620/5/6
f 620/5/6 609/5/6 621/5/6
f 610/5/6 611/5/6 624/5/6
f 624/5/6 611/5/6 625/5/6
f 614/5/6 615/5/6 626/5/6
f 626/5/6 615/5/6 627/5/6
f 617/5/6 618/5/6 629/5/6
f 629/5/6 618/5/6 630/5/6
f 621/5/6 622/5/6 631/5/6
f 631/5/6 622/5/6 632/5/6
f 623/5/6 624/5/6 635/5/6
f 635/5/6 624/5/6 636/5/6
f 627/5/6 628/5/6 637/5/6
f 637/5/6 628/5/6 638/5/6
f 632/5/6 633/5/6 640/5/6
f 640/5/6 633/5/6 641/5/6
f 634/5/6 635/5/6 644/5/6
f 644/5/6 635/5/6 645/5/6
f 638/5/6 639/5/6 646/5/6
f 646/5/6 639/5/6 647/5/6
f 641/5/6 642/5/6 649/5/6
f 649/5/6 642/5/6 650/5/6
f 643/5/6 644/5/6 651/5/6
f 651/5/6 644/5/6 652/5/6
f 647/5/6 648/5/6 653/5/6
f 653/5/6 648/5/6 654/5/6
f 650/5/6 651/5/6 656/5/6
f 656/5/6 651/5/6 657/5/6
f 654/5/6 655/5/6 658/5/6
f 658/5/6 655/5/6 659/5/6
f 659/5/6 660/5/6 662/5/6
f 660/2/6 661/2/6 663/2/6
f 662/5/6 660/5/6 663/5/6
f 663/2/6 661/2/6 664/2/6
f 662/2/6 663/2/6 666/2/6
f 663/2/6 664/2/6 666/2/6
f 664/3/6 665/3/6 667/3/6
f 666/2/6 664/2/6 667/2/6
f 667/3/6 665/3/6 668/3/6
f 668/3/6 665/3/6 670/3/6
f 669/3/6 670/3/6 671/3/6
f 670/3/6 665/3/6 672/3/6
f 671/3/6 670/3/6 672/3/6
