# MagicaVoxel @ Ephtracy

# group
o 

# material
mtllib table_plain.mtl
usemtl palette

# normals
vn -1 0 0
vn 1 0 0
vn 0 0 1
vn 0 0 -1
vn 0 -1 0
vn 0 1 0

# texcoords
vt 0.00195313 0.5
vt 0.00585938 0.5

# verts
v -2.1 1.2 1.2
v -2.1 1.2 -1.2
v -2.1 1.3 1.2
v -2.1 1.3 -1.2
v -2 1.2 1.4
v -2 1.2 1.2
v -2 1.2 -1.2
v -2 1.2 -1.4
v -2 1.3 1.4
v -2 1.3 1.2
v -2 1.3 -1.2
v -2 1.3 -1.4
v -1.9 1.2 1.5
v -1.9 1.2 1.4
v -1.9 1.2 -1.4
v -1.9 1.2 -1.5
v -1.9 1.3 1.5
v -1.9 1.3 1.4
v -1.9 1.3 -1.4
v -1.9 1.3 -1.5
v -1.7 0 1.2
v -1.7 0 0.9
v -1.7 0 -0.9
v -1.7 0 -1.2
v -1.7 1.2 1.6
v -1.7 1.2 1.5
v -1.7 1.2 1.2
v -1.7 1.2 0.9
v -1.7 1.2 -0.9
v -1.7 1.2 -1.2
v -1.7 1.2 -1.5
v -1.7 1.2 -1.6
v -1.7 1.3 1.6
v -1.7 1.3 1.5
v -1.7 1.3 -1.5
v -1.7 1.3 -1.6
v 1.4 0 1.2
v 1.4 0 0.9
v 1.4 0 -0.9
v 1.4 0 -1.2
v 1.4 1.2 1.2
v 1.4 1.2 0.9
v 1.4 1.2 -0.9
v 1.4 1.2 -1.2
v -1.4 0 1.2
v -1.4 0 0.9
v -1.4 0 -0.9
v -1.4 0 -1.2
v -1.4 1.2 1.2
v -1.4 1.2 0.9
v -1.4 1.2 -0.9
v -1.4 1.2 -1.2
v 1.7 0 1.2
v 1.7 0 0.9
v 1.7 0 -0.9
v 1.7 0 -1.2
v 1.7 1.2 1.6
v 1.7 1.2 1.5
v 1.7 1.2 1.2
v 1.7 1.2 0.9
v 1.7 1.2 -0.9
v 1.7 1.2 -1.2
v 1.7 1.2 -1.5
v 1.7 1.2 -1.6
v 1.7 1.3 1.6
v 1.7 1.3 1.5
v 1.7 1.3 -1.5
v 1.7 1.3 -1.6
v 1.9 1.2 1.5
v 1.9 1.2 1.4
v 1.9 1.2 -1.4
v 1.9 1.2 -1.5
v 1.9 1.3 1.5
v 1.9 1.3 1.4
v 1.9 1.3 -1.4
v 1.9 1.3 -1.5
v 2 1.2 1.4
v 2 1.2 1.2
v 2 1.2 -1.2
v 2 1.2 -1.4
v 2 1.3 1.4
v 2 1.3 1.2
v 2 1.3 -1.2
v 2 1.3 -1.4
v 2.1 1.2 1.2
v 2.1 1.2 -1.2
v 2.1 1.3 1.2
v 2.1 1.3 -1.2
v -1.7 1.2 1.6
v -1.7 1.3 1.6
v 1.7 1.2 1.6
v 1.7 1.3 1.6
v -1.9 1.2 1.5
v -1.9 1.3 1.5
v -1.7 1.2 1.5
v -1.7 1.3 1.5
v 1.7 1.2 1.5
v 1.7 1.3 1.5
v 1.9 1.2 1.5
v 1.9 1.3 1.5
v -2 1.2 1.4
v -2 1.3 1.4
v -1.9 1.2 1.4
v -1.9 1.3 1.4
v 1.9 1.2 1.4
v 1.9 1.3 1.4
v 2 1.2 1.4
v 2 1.3 1.4
v -2.1 1.2 1.2
v -2.1 1.3 1.2
v -2 1.2 1.2
v -2 1.3 1.2
v -1.7 0 1.2
v -1.7 1.2 1.2
v -1.4 0 1.2
v -1.4 1.2 1.2
v 1.4 0 1.2
v 1.4 1.2 1.2
v 1.7 0 1.2
v 1.7 1.2 1.2
v 2 1.2 1.2
v 2 1.3 1.2
v 2.1 1.2 1.2
v 2.1 1.3 1.2
v -1.7 0 -0.9
v -1.7 1.2 -0.9
v -1.4 0 -0.9
v -1.4 1.2 -0.9
v 1.4 0 -0.9
v 1.4 1.2 -0.9
v 1.7 0 -0.9
v 1.7 1.2 -0.9
v -1.7 0 0.9
v -1.7 1.2 0.9
v -1.4 0 0.9
v -1.4 1.2 0.9
v 1.4 0 0.9
v 1.4 1.2 0.9
v 1.7 0 0.9
v 1.7 1.2 0.9
v -2.1 1.2 -1.2
v -2.1 1.3 -1.2
v -2 1.2 -1.2
v -2 1.3 -1.2
v -1.7 0 -1.2
v -1.7 1.2 -1.2
v -1.4 0 -1.2
v -1.4 1.2 -1.2
v 1.4 0 -1.2
v 1.4 1.2 -1.2
v 1.7 0 -1.2
v 1.7 1.2 -1.2
v 2 1.2 -1.2
v 2 1.3 -1.2
v 2.1 1.2 -1.2
v 2.1 1.3 -1.2
v -2 1.2 -1.4
v -2 1.3 -1.4
v -1.9 1.2 -1.4
v -1.9 1.3 -1.4
v 1.9 1.2 -1.4
v 1.9 1.3 -1.4
v 2 1.2 -1.4
v 2 1.3 -1.4
v -1.9 1.2 -1.5
v -1.9 1.3 -1.5
v -1.7 1.2 -1.5
v -1.7 1.3 -1.5
v 1.7 1.2 -1.5
v 1.7 1.3 -1.5
v 1.9 1.2 -1.5
v 1.9 1.3 -1.5
v -1.7 1.2 -1.6
v -1.7 1.3 -1.6
v 1.7 1.2 -1.6
v 1.7 1.3 -1.6
v -1.7 0 1.2
v -1.4 0 1.2
v 1.4 0 1.2
v 1.7 0 1.2
v -1.7 0 0.9
v -1.4 0 0.9
v 1.4 0 0.9
v 1.7 0 0.9
v -1.7 0 -0.9
v -1.4 0 -0.9
v 1.4 0 -0.9
v 1.7 0 -0.9
v -1.7 0 -1.2
v -1.4 0 -1.2
v 1.4 0 -1.2
v 1.7 0 -1.2
v -1.7 1.2 1.6
v 1.7 1.2 1.6
v -1.9 1.2 1.5
v -1.7 1.2 1.5
v 1.7 1.2 1.5
v 1.9 1.2 1.5
v -2 1.2 1.4
v -1.9 1.2 1.4
v 1.9 1.2 1.4
v 2 1.2 1.4
v -2.1 1.2 1.2
v -2 1.2 1.2
v -1.7 1.2 1.2
v -1.4 1.2 1.2
v 1.4 1.2 1.2
v 1.7 1.2 1.2
v 2 1.2 1.2
v 2.1 1.2 1.2
v -1.7 1.2 0.9
v -1.4 1.2 0.9
v 1.4 1.2 0.9
v 1.7 1.2 0.9
v -1.7 1.2 -0.9
v -1.4 1.2 -0.9
v 1.4 1.2 -0.9
v 1.7 1.2 -0.9
v -2.1 1.2 -1.2
v -2 1.2 -1.2
v -1.7 1.2 -1.2
v -1.4 1.2 -1.2
v 1.4 1.2 -1.2
v 1.7 1.2 -1.2
v 2 1.2 -1.2
v 2.1 1.2 -1.2
v -2 1.2 -1.4
v -1.9 1.2 -1.4
v 1.9 1.2 -1.4
v 2 1.2 -1.4
v -1.9 1.2 -1.5
v -1.7 1.2 -1.5
v 1.7 1.2 -1.5
v 1.9 1.2 -1.5
v -1.7 1.2 -1.6
v 1.7 1.2 -1.6
v -1.7 1.3 1.6
v 1.7 1.3 1.6
v -1.9 1.3 1.5
v -1.7 1.3 1.5
v 1.7 1.3 1.5
v 1.9 1.3 1.5
v -2 1.3 1.4
v -1.9 1.3 1.4
v 1.9 1.3 1.4
v 2 1.3 1.4
v -2.1 1.3 1.2
v -2 1.3 1.2
v 2 1.3 1.2
v 2.1 1.3 1.2
v -2.1 1.3 -1.2
v -2 1.3 -1.2
v 2 1.3 -1.2
v 2.1 1.3 -1.2
v -2 1.3 -1.4
v -1.9 1.3 -1.4
v 1.9 1.3 -1.4
v 2 1.3 -1.4
v -1.9 1.3 -1.5
v -1.7 1.3 -1.5
v 1.7 1.3 -1.5
v 1.9 1.3 -1.5
v -1.7 1.3 -1.6
v 1.7 1.3 -1.6

# faces
f 3/2/1 2/2/1 1/2/1
f 4/2/1 2/2/1 3/2/1
f 9/2/1 6/2/1 5/2/1
f 10/2/1 6/2/1 9/2/1
f 11/2/1 8/2/1 7/2/1
f 12/2/1 8/2/1 11/2/1
f 17/2/1 14/2/1 13/2/1
f 18/2/1 14/2/1 17/2/1
f 19/2/1 16/2/1 15/2/1
f 20/2/1 16/2/1 19/2/1
f 27/1/1 22/1/1 21/1/1
f 28/1/1 22/1/1 27/1/1
f 29/1/1 24/1/1 23/1/1
f 30/1/1 24/1/1 29/1/1
f 33/2/1 26/2/1 25/2/1
f 34/2/1 26/2/1 33/2/1
f 35/2/1 32/2/1 31/2/1
f 36/2/1 32/2/1 35/2/1
f 41/1/1 38/1/1 37/1/1
f 42/1/1 38/1/1 41/1/1
f 43/1/1 40/1/1 39/1/1
f 44/1/1 40/1/1 43/1/1
f 45/1/2 46/1/2 49/1/2
f 49/1/2 46/1/2 50/1/2
f 47/1/2 48/1/2 51/1/2
f 51/1/2 48/1/2 52/1/2
f 53/1/2 54/1/2 59/1/2
f 59/1/2 54/1/2 60/1/2
f 55/1/2 56/1/2 61/1/2
f 61/1/2 56/1/2 62/1/2
f 57/2/2 58/2/2 65/2/2
f 65/2/2 58/2/2 66/2/2
f 63/2/2 64/2/2 67/2/2
f 67/2/2 64/2/2 68/2/2
f 69/2/2 70/2/2 73/2/2
f 73/2/2 70/2/2 74/2/2
f 71/2/2 72/2/2 75/2/2
f 75/2/2 72/2/2 76/2/2
f 77/2/2 78/2/2 81/2/2
f 81/2/2 78/2/2 82/2/2
f 79/2/2 80/2/2 83/2/2
f 83/2/2 80/2/2 84/2/2
f 85/2/2 86/2/2 87/2/2
f 87/2/2 86/2/2 88/2/2
f 91/2/3 90/2/3 89/2/3
f 92/2/3 90/2/3 91/2/3
f 95/2/3 94/2/3 93/2/3
f 96/2/3 94/2/3 95/2/3
f 99/2/3 98/2/3 97/2/3
f 100/2/3 98/2/3 99/2/3
f 103/2/3 102/2/3 101/2/3
f 104/2/3 102/2/3 103/2/3
f 107/2/3 106/2/3 105/2/3
f 108/2/3 106/2/3 107/2/3
f 111/2/3 110/2/3 109/2/3
f 112/2/3 110/2/3 111/2/3
f 115/1/3 114/1/3 113/1/3
f 116/1/3 114/1/3 115/1/3
f 119/1/3 118/1/3 117/1/3
f 120/1/3 118/1/3 119/1/3
f 123/2/3 122/2/3 121/2/3
f 124/2/3 122/2/3 123/2/3
f 127/1/3 126/1/3 125/1/3
f 128/1/3 126/1/3 127/1/3
f 131/1/3 130/1/3 129/1/3
f 132/1/3 130/1/3 131/1/3
f 133/1/4 134/1/4 135/1/4
f 135/1/4 134/1/4 136/1/4
f 137/1/4 138/1/4 139/1/4
f 139/1/4 138/1/4 140/1/4
f 141/2/4 142/2/4 143/2/4
f 143/2/4 142/2/4 144/2/4
f 145/1/4 146/1/4 147/1/4
f 147/1/4 146/1/4 148/1/4
f 149/1/4 150/1/4 151/1/4
f 151/1/4 150/1/4 152/1/4
f 153/2/4 154/2/4 155/2/4
f 155/2/4 154/2/4 156/2/4
f 157/2/4 158/2/4 159/2/4
f 159/2/4 158/2/4 160/2/4
f 161/2/4 162/2/4 163/2/4
f 163/2/4 162/2/4 164/2/4
f 165/2/4 166/2/4 167/2/4
f 167/2/4 166/2/4 168/2/4
f 169/2/4 170/2/4 171/2/4
f 171/2/4 170/2/4 172/2/4
f 173/2/4 174/2/4 175/2/4
f 175/2/4 174/2/4 176/2/4
f 181/1/5 178/1/5 177/1/5
f 182/1/5 178/1/5 181/1/5
f 183/1/5 180/1/5 179/1/5
f 184/1/5 180/1/5 183/1/5
f 189/1/5 186/1/5 185/1/5
f 190/1/5 186/1/5 189/1/5
f 191/1/5 188/1/5 187/1/5
f 192/1/5 188/1/5 191/1/5
f 196/2/5 194/2/5 193/2/5
f 197/2/5 194/2/5 196/2/5
f 200/2/5 196/2/5 195/2/5
f 200/2/5 198/2/5 197/2/5
f 200/2/5 197/2/5 196/2/5
f 201/2/5 198/2/5 200/2/5
f 204/2/5 200/2/5 199/2/5
f 204/2/5 202/2/5 201/2/5
f 204/2/5 201/2/5 200/2/5
f 205/2/5 202/2/5 204/2/5
f 206/2/5 202/2/5 205/2/5
f 207/2/5 202/2/5 206/2/5
f 208/2/5 202/2/5 207/2/5
f 209/2/5 202/2/5 208/2/5
f 211/2/5 204/2/5 203/2/5
f 211/2/5 205/2/5 204/2/5
f 212/2/5 207/2/5 206/2/5
f 213/2/5 207/2/5 212/2/5
f 214/2/5 210/2/5 209/2/5
f 214/2/5 209/2/5 208/2/5
f 215/2/5 213/2/5 212/2/5
f 215/2/5 214/2/5 213/2/5
f 215/2/5 212/2/5 211/2/5
f 215/2/5 211/2/5 203/2/5
f 216/2/5 214/2/5 215/2/5
f 217/2/5 214/2/5 216/2/5
f 218/2/5 210/2/5 214/2/5
f 218/2/5 214/2/5 217/2/5
f 219/2/5 215/2/5 203/2/5
f 220/2/5 215/2/5 219/2/5
f 221/2/5 215/2/5 220/2/5
f 222/2/5 217/2/5 216/2/5
f 223/2/5 217/2/5 222/2/5
f 224/2/5 210/2/5 218/2/5
f 225/2/5 210/2/5 224/2/5
f 226/2/5 210/2/5 225/2/5
f 227/2/5 221/2/5 220/2/5
f 227/2/5 223/2/5 222/2/5
f 227/2/5 225/2/5 224/2/5
f 227/2/5 224/2/5 223/2/5
f 227/2/5 222/2/5 221/2/5
f 228/2/5 225/2/5 227/2/5
f 229/2/5 225/2/5 228/2/5
f 230/2/5 225/2/5 229/2/5
f 231/2/5 229/2/5 228/2/5
f 232/2/5 229/2/5 231/2/5
f 233/2/5 229/2/5 232/2/5
f 234/2/5 229/2/5 233/2/5
f 235/2/5 233/2/5 232/2/5
f 236/2/5 233/2/5 235/2/5
f 237/2/6 238/2/6 240/2/6
f 240/2/6 238/2/6 241/2/6
f 239/2/6 240/2/6 244/2/6
f 241/2/6 242/2/6 244/2/6
f 240/2/6 241/2/6 244/2/6
f 244/2/6 242/2/6 245/2/6
f 243/2/6 244/2/6 248/2/6
f 245/2/6 246/2/6 248/2/6
f 244/2/6 245/2/6 248/2/6
f 248/2/6 246/2/6 249/2/6
f 247/2/6 248/2/6 251/2/6
f 249/2/6 250/2/6 251/2/6
f 248/2/6 249/2/6 251/2/6
f 251/2/6 250/2/6 252/2/6
f 252/2/6 250/2/6 253/2/6
f 253/2/6 250/2/6 254/2/6
f 252/2/6 253/2/6 255/2/6
f 255/2/6 253/2/6 256/2/6
f 256/2/6 253/2/6 257/2/6
f 257/2/6 253/2/6 258/2/6
f 256/2/6 257/2/6 259/2/6
f 259/2/6 257/2/6 260/2/6
f 260/2/6 257/2/6 261/2/6
f 261/2/6 257/2/6 262/2/6
f 260/2/6 261/2/6 263/2/6
f 263/2/6 261/2/6 264/2/6
